<?xml version="1.0" encoding="utf-8"?>
<svg xmlns="http://www.w3.org/2000/svg" xmlns:xlink="http://www.w3.org/1999/xlink" width="600" height="400" viewBox="0 0 2400 1600">
<defs>
  <clipPath id="clip710">
    <rect x="0" y="0" width="2400" height="1600"/>
  </clipPath>
</defs>
<path clip-path="url(#clip710)" d="M0 1600 L2400 1600 L2400 0 L0 0  Z" fill="#ffffff" fill-rule="evenodd" fill-opacity="1"/>
<defs>
  <clipPath id="clip711">
    <rect x="212" y="123" width="2141" height="1301"/>
  </clipPath>
</defs>
<path clip-path="url(#clip710)" d="M212.459 1423.18 L2352.76 1423.18 L2352.76 123.472 L212.459 123.472  Z" fill="#ffffff" fill-rule="evenodd" fill-opacity="1"/>
<polyline clip-path="url(#clip711)" style="stroke:#000000; stroke-linecap:round; stroke-linejoin:round; stroke-width:2; stroke-opacity:0.1; fill:none" points="323.159,1423.18 323.159,123.472 "/>
<polyline clip-path="url(#clip711)" style="stroke:#000000; stroke-linecap:round; stroke-linejoin:round; stroke-width:2; stroke-opacity:0.1; fill:none" points="666.3,1423.18 666.3,123.472 "/>
<polyline clip-path="url(#clip711)" style="stroke:#000000; stroke-linecap:round; stroke-linejoin:round; stroke-width:2; stroke-opacity:0.1; fill:none" points="1009.44,1423.18 1009.44,123.472 "/>
<polyline clip-path="url(#clip711)" style="stroke:#000000; stroke-linecap:round; stroke-linejoin:round; stroke-width:2; stroke-opacity:0.1; fill:none" points="1352.58,1423.18 1352.58,123.472 "/>
<polyline clip-path="url(#clip711)" style="stroke:#000000; stroke-linecap:round; stroke-linejoin:round; stroke-width:2; stroke-opacity:0.1; fill:none" points="1695.72,1423.18 1695.72,123.472 "/>
<polyline clip-path="url(#clip711)" style="stroke:#000000; stroke-linecap:round; stroke-linejoin:round; stroke-width:2; stroke-opacity:0.1; fill:none" points="2038.86,1423.18 2038.86,123.472 "/>
<polyline clip-path="url(#clip711)" style="stroke:#000000; stroke-linecap:round; stroke-linejoin:round; stroke-width:2; stroke-opacity:0.1; fill:none" points="212.459,1344.58 2352.76,1344.58 "/>
<polyline clip-path="url(#clip711)" style="stroke:#000000; stroke-linecap:round; stroke-linejoin:round; stroke-width:2; stroke-opacity:0.1; fill:none" points="212.459,1158.21 2352.76,1158.21 "/>
<polyline clip-path="url(#clip711)" style="stroke:#000000; stroke-linecap:round; stroke-linejoin:round; stroke-width:2; stroke-opacity:0.1; fill:none" points="212.459,971.839 2352.76,971.839 "/>
<polyline clip-path="url(#clip711)" style="stroke:#000000; stroke-linecap:round; stroke-linejoin:round; stroke-width:2; stroke-opacity:0.1; fill:none" points="212.459,785.469 2352.76,785.469 "/>
<polyline clip-path="url(#clip711)" style="stroke:#000000; stroke-linecap:round; stroke-linejoin:round; stroke-width:2; stroke-opacity:0.1; fill:none" points="212.459,599.098 2352.76,599.098 "/>
<polyline clip-path="url(#clip711)" style="stroke:#000000; stroke-linecap:round; stroke-linejoin:round; stroke-width:2; stroke-opacity:0.1; fill:none" points="212.459,412.728 2352.76,412.728 "/>
<polyline clip-path="url(#clip711)" style="stroke:#000000; stroke-linecap:round; stroke-linejoin:round; stroke-width:2; stroke-opacity:0.1; fill:none" points="212.459,226.358 2352.76,226.358 "/>
<polyline clip-path="url(#clip710)" style="stroke:#000000; stroke-linecap:round; stroke-linejoin:round; stroke-width:4; stroke-opacity:1; fill:none" points="212.459,1423.18 2352.76,1423.18 "/>
<polyline clip-path="url(#clip710)" style="stroke:#000000; stroke-linecap:round; stroke-linejoin:round; stroke-width:4; stroke-opacity:1; fill:none" points="323.159,1423.18 323.159,1404.28 "/>
<polyline clip-path="url(#clip710)" style="stroke:#000000; stroke-linecap:round; stroke-linejoin:round; stroke-width:4; stroke-opacity:1; fill:none" points="666.3,1423.18 666.3,1404.28 "/>
<polyline clip-path="url(#clip710)" style="stroke:#000000; stroke-linecap:round; stroke-linejoin:round; stroke-width:4; stroke-opacity:1; fill:none" points="1009.44,1423.18 1009.44,1404.28 "/>
<polyline clip-path="url(#clip710)" style="stroke:#000000; stroke-linecap:round; stroke-linejoin:round; stroke-width:4; stroke-opacity:1; fill:none" points="1352.58,1423.18 1352.58,1404.28 "/>
<polyline clip-path="url(#clip710)" style="stroke:#000000; stroke-linecap:round; stroke-linejoin:round; stroke-width:4; stroke-opacity:1; fill:none" points="1695.72,1423.18 1695.72,1404.28 "/>
<polyline clip-path="url(#clip710)" style="stroke:#000000; stroke-linecap:round; stroke-linejoin:round; stroke-width:4; stroke-opacity:1; fill:none" points="2038.86,1423.18 2038.86,1404.28 "/>
<path clip-path="url(#clip710)" d="M270.184 1468.75 L299.86 1468.75 L299.86 1472.69 L270.184 1472.69 L270.184 1468.75 Z" fill="#000000" fill-rule="nonzero" fill-opacity="1" /><path clip-path="url(#clip710)" d="M313.981 1481.64 L330.3 1481.64 L330.3 1485.58 L308.356 1485.58 L308.356 1481.64 Q311.018 1478.89 315.601 1474.26 Q320.207 1469.61 321.388 1468.27 Q323.633 1465.74 324.513 1464.01 Q325.416 1462.25 325.416 1460.56 Q325.416 1457.8 323.471 1456.07 Q321.55 1454.33 318.448 1454.33 Q316.249 1454.33 313.795 1455.09 Q311.365 1455.86 308.587 1457.41 L308.587 1452.69 Q311.411 1451.55 313.865 1450.97 Q316.319 1450.39 318.356 1450.39 Q323.726 1450.39 326.92 1453.08 Q330.115 1455.77 330.115 1460.26 Q330.115 1462.39 329.305 1464.31 Q328.518 1466.2 326.411 1468.8 Q325.832 1469.47 322.731 1472.69 Q319.629 1475.88 313.981 1481.64 Z" fill="#000000" fill-rule="nonzero" fill-opacity="1" /><path clip-path="url(#clip710)" d="M340.115 1479.7 L344.999 1479.7 L344.999 1485.58 L340.115 1485.58 L340.115 1479.7 Z" fill="#000000" fill-rule="nonzero" fill-opacity="1" /><path clip-path="url(#clip710)" d="M355.23 1451.02 L373.587 1451.02 L373.587 1454.96 L359.513 1454.96 L359.513 1463.43 Q360.531 1463.08 361.55 1462.92 Q362.568 1462.73 363.587 1462.73 Q369.374 1462.73 372.753 1465.9 Q376.133 1469.08 376.133 1474.49 Q376.133 1480.07 372.661 1483.17 Q369.189 1486.25 362.869 1486.25 Q360.693 1486.25 358.425 1485.88 Q356.179 1485.51 353.772 1484.77 L353.772 1480.07 Q355.855 1481.2 358.078 1481.76 Q360.3 1482.32 362.777 1482.32 Q366.781 1482.32 369.119 1480.21 Q371.457 1478.1 371.457 1474.49 Q371.457 1470.88 369.119 1468.77 Q366.781 1466.67 362.777 1466.67 Q360.902 1466.67 359.027 1467.08 Q357.175 1467.5 355.23 1468.38 L355.23 1451.02 Z" fill="#000000" fill-rule="nonzero" fill-opacity="1" /><path clip-path="url(#clip710)" d="M643.684 1454.1 Q640.073 1454.1 638.245 1457.66 Q636.439 1461.2 636.439 1468.33 Q636.439 1475.44 638.245 1479.01 Q640.073 1482.55 643.684 1482.55 Q647.319 1482.55 649.124 1479.01 Q650.953 1475.44 650.953 1468.33 Q650.953 1461.2 649.124 1457.66 Q647.319 1454.1 643.684 1454.1 M643.684 1450.39 Q649.494 1450.39 652.55 1455 Q655.629 1459.58 655.629 1468.33 Q655.629 1477.06 652.55 1481.67 Q649.494 1486.25 643.684 1486.25 Q637.874 1486.25 634.795 1481.67 Q631.74 1477.06 631.74 1468.33 Q631.74 1459.58 634.795 1455 Q637.874 1450.39 643.684 1450.39 Z" fill="#000000" fill-rule="nonzero" fill-opacity="1" /><path clip-path="url(#clip710)" d="M663.846 1479.7 L668.73 1479.7 L668.73 1485.58 L663.846 1485.58 L663.846 1479.7 Z" fill="#000000" fill-rule="nonzero" fill-opacity="1" /><path clip-path="url(#clip710)" d="M688.916 1454.1 Q685.304 1454.1 683.476 1457.66 Q681.67 1461.2 681.67 1468.33 Q681.67 1475.44 683.476 1479.01 Q685.304 1482.55 688.916 1482.55 Q692.55 1482.55 694.355 1479.01 Q696.184 1475.44 696.184 1468.33 Q696.184 1461.2 694.355 1457.66 Q692.55 1454.1 688.916 1454.1 M688.916 1450.39 Q694.726 1450.39 697.781 1455 Q700.86 1459.58 700.86 1468.33 Q700.86 1477.06 697.781 1481.67 Q694.726 1486.25 688.916 1486.25 Q683.105 1486.25 680.027 1481.67 Q676.971 1477.06 676.971 1468.33 Q676.971 1459.58 680.027 1455 Q683.105 1450.39 688.916 1450.39 Z" fill="#000000" fill-rule="nonzero" fill-opacity="1" /><path clip-path="url(#clip710)" d="M981.177 1481.64 L997.497 1481.64 L997.497 1485.58 L975.552 1485.58 L975.552 1481.64 Q978.214 1478.89 982.798 1474.26 Q987.404 1469.61 988.585 1468.27 Q990.83 1465.74 991.71 1464.01 Q992.613 1462.25 992.613 1460.56 Q992.613 1457.8 990.668 1456.07 Q988.747 1454.33 985.645 1454.33 Q983.446 1454.33 980.992 1455.09 Q978.562 1455.86 975.784 1457.41 L975.784 1452.69 Q978.608 1451.55 981.062 1450.97 Q983.515 1450.39 985.552 1450.39 Q990.923 1450.39 994.117 1453.08 Q997.312 1455.77 997.312 1460.26 Q997.312 1462.39 996.501 1464.31 Q995.714 1466.2 993.608 1468.8 Q993.029 1469.47 989.927 1472.69 Q986.826 1475.88 981.177 1481.64 Z" fill="#000000" fill-rule="nonzero" fill-opacity="1" /><path clip-path="url(#clip710)" d="M1007.31 1479.7 L1012.2 1479.7 L1012.2 1485.58 L1007.31 1485.58 L1007.31 1479.7 Z" fill="#000000" fill-rule="nonzero" fill-opacity="1" /><path clip-path="url(#clip710)" d="M1022.43 1451.02 L1040.78 1451.02 L1040.78 1454.96 L1026.71 1454.96 L1026.71 1463.43 Q1027.73 1463.08 1028.75 1462.92 Q1029.77 1462.73 1030.78 1462.73 Q1036.57 1462.73 1039.95 1465.9 Q1043.33 1469.08 1043.33 1474.49 Q1043.33 1480.07 1039.86 1483.17 Q1036.39 1486.25 1030.07 1486.25 Q1027.89 1486.25 1025.62 1485.88 Q1023.38 1485.51 1020.97 1484.77 L1020.97 1480.07 Q1023.05 1481.2 1025.27 1481.76 Q1027.5 1482.32 1029.97 1482.32 Q1033.98 1482.32 1036.32 1480.21 Q1038.65 1478.1 1038.65 1474.49 Q1038.65 1470.88 1036.32 1468.77 Q1033.98 1466.67 1029.97 1466.67 Q1028.1 1466.67 1026.22 1467.08 Q1024.37 1467.5 1022.43 1468.38 L1022.43 1451.02 Z" fill="#000000" fill-rule="nonzero" fill-opacity="1" /><path clip-path="url(#clip710)" d="M1319.75 1451.02 L1338.1 1451.02 L1338.1 1454.96 L1324.03 1454.96 L1324.03 1463.43 Q1325.05 1463.08 1326.07 1462.92 Q1327.08 1462.73 1328.1 1462.73 Q1333.89 1462.73 1337.27 1465.9 Q1340.65 1469.08 1340.65 1474.49 Q1340.65 1480.07 1337.18 1483.17 Q1333.71 1486.25 1327.39 1486.25 Q1325.21 1486.25 1322.94 1485.88 Q1320.7 1485.51 1318.29 1484.77 L1318.29 1480.07 Q1320.37 1481.2 1322.59 1481.76 Q1324.82 1482.32 1327.29 1482.32 Q1331.3 1482.32 1333.64 1480.21 Q1335.97 1478.1 1335.97 1474.49 Q1335.97 1470.88 1333.64 1468.77 Q1331.3 1466.67 1327.29 1466.67 Q1325.42 1466.67 1323.54 1467.08 Q1321.69 1467.5 1319.75 1468.38 L1319.75 1451.02 Z" fill="#000000" fill-rule="nonzero" fill-opacity="1" /><path clip-path="url(#clip710)" d="M1349.86 1479.7 L1354.75 1479.7 L1354.75 1485.58 L1349.86 1485.58 L1349.86 1479.7 Z" fill="#000000" fill-rule="nonzero" fill-opacity="1" /><path clip-path="url(#clip710)" d="M1374.93 1454.1 Q1371.32 1454.1 1369.49 1457.66 Q1367.69 1461.2 1367.69 1468.33 Q1367.69 1475.44 1369.49 1479.01 Q1371.32 1482.55 1374.93 1482.55 Q1378.57 1482.55 1380.37 1479.01 Q1382.2 1475.44 1382.2 1468.33 Q1382.2 1461.2 1380.37 1457.66 Q1378.57 1454.1 1374.93 1454.1 M1374.93 1450.39 Q1380.74 1450.39 1383.8 1455 Q1386.88 1459.58 1386.88 1468.33 Q1386.88 1477.06 1383.8 1481.67 Q1380.74 1486.25 1374.93 1486.25 Q1369.12 1486.25 1366.04 1481.67 Q1362.99 1477.06 1362.99 1468.33 Q1362.99 1459.58 1366.04 1455 Q1369.12 1450.39 1374.93 1450.39 Z" fill="#000000" fill-rule="nonzero" fill-opacity="1" /><path clip-path="url(#clip710)" d="M1662.04 1451.02 L1684.27 1451.02 L1684.27 1453.01 L1671.72 1485.58 L1666.83 1485.58 L1678.64 1454.96 L1662.04 1454.96 L1662.04 1451.02 Z" fill="#000000" fill-rule="nonzero" fill-opacity="1" /><path clip-path="url(#clip710)" d="M1693.39 1479.7 L1698.27 1479.7 L1698.27 1485.58 L1693.39 1485.58 L1693.39 1479.7 Z" fill="#000000" fill-rule="nonzero" fill-opacity="1" /><path clip-path="url(#clip710)" d="M1708.5 1451.02 L1726.86 1451.02 L1726.86 1454.96 L1712.78 1454.96 L1712.78 1463.43 Q1713.8 1463.08 1714.82 1462.92 Q1715.84 1462.73 1716.86 1462.73 Q1722.64 1462.73 1726.02 1465.9 Q1729.4 1469.08 1729.4 1474.49 Q1729.4 1480.07 1725.93 1483.17 Q1722.46 1486.25 1716.14 1486.25 Q1713.96 1486.25 1711.7 1485.88 Q1709.45 1485.51 1707.04 1484.77 L1707.04 1480.07 Q1709.13 1481.2 1711.35 1481.76 Q1713.57 1482.32 1716.05 1482.32 Q1720.05 1482.32 1722.39 1480.21 Q1724.73 1478.1 1724.73 1474.49 Q1724.73 1470.88 1722.39 1468.77 Q1720.05 1466.67 1716.05 1466.67 Q1714.17 1466.67 1712.3 1467.08 Q1710.45 1467.5 1708.5 1468.38 L1708.5 1451.02 Z" fill="#000000" fill-rule="nonzero" fill-opacity="1" /><path clip-path="url(#clip710)" d="M1990.94 1481.64 L1998.58 1481.64 L1998.58 1455.28 L1990.27 1456.95 L1990.27 1452.69 L1998.53 1451.02 L2003.21 1451.02 L2003.21 1481.64 L2010.84 1481.64 L2010.84 1485.58 L1990.94 1485.58 L1990.94 1481.64 Z" fill="#000000" fill-rule="nonzero" fill-opacity="1" /><path clip-path="url(#clip710)" d="M2030.29 1454.1 Q2026.68 1454.1 2024.85 1457.66 Q2023.04 1461.2 2023.04 1468.33 Q2023.04 1475.44 2024.85 1479.01 Q2026.68 1482.55 2030.29 1482.55 Q2033.92 1482.55 2035.73 1479.01 Q2037.56 1475.44 2037.56 1468.33 Q2037.56 1461.2 2035.73 1457.66 Q2033.92 1454.1 2030.29 1454.1 M2030.29 1450.39 Q2036.1 1450.39 2039.15 1455 Q2042.23 1459.58 2042.23 1468.33 Q2042.23 1477.06 2039.15 1481.67 Q2036.1 1486.25 2030.29 1486.25 Q2024.48 1486.25 2021.4 1481.67 Q2018.34 1477.06 2018.34 1468.33 Q2018.34 1459.58 2021.4 1455 Q2024.48 1450.39 2030.29 1450.39 Z" fill="#000000" fill-rule="nonzero" fill-opacity="1" /><path clip-path="url(#clip710)" d="M2050.45 1479.7 L2055.33 1479.7 L2055.33 1485.58 L2050.45 1485.58 L2050.45 1479.7 Z" fill="#000000" fill-rule="nonzero" fill-opacity="1" /><path clip-path="url(#clip710)" d="M2075.52 1454.1 Q2071.91 1454.1 2070.08 1457.66 Q2068.27 1461.2 2068.27 1468.33 Q2068.27 1475.44 2070.08 1479.01 Q2071.91 1482.55 2075.52 1482.55 Q2079.15 1482.55 2080.96 1479.01 Q2082.79 1475.44 2082.79 1468.33 Q2082.79 1461.2 2080.96 1457.66 Q2079.15 1454.1 2075.52 1454.1 M2075.52 1450.39 Q2081.33 1450.39 2084.39 1455 Q2087.46 1459.58 2087.46 1468.33 Q2087.46 1477.06 2084.39 1481.67 Q2081.33 1486.25 2075.52 1486.25 Q2069.71 1486.25 2066.63 1481.67 Q2063.58 1477.06 2063.58 1468.33 Q2063.58 1459.58 2066.63 1455 Q2069.71 1450.39 2075.52 1450.39 Z" fill="#000000" fill-rule="nonzero" fill-opacity="1" /><path clip-path="url(#clip710)" d="M966.502 1522.08 L966.502 1528.35 Q962.842 1526.6 959.596 1525.74 Q956.349 1524.88 953.325 1524.88 Q948.074 1524.88 945.209 1526.92 Q942.376 1528.96 942.376 1532.71 Q942.376 1535.87 944.254 1537.49 Q946.164 1539.08 951.447 1540.07 L955.331 1540.86 Q962.524 1542.23 965.929 1545.7 Q969.367 1549.14 969.367 1554.93 Q969.367 1561.84 964.72 1565.4 Q960.105 1568.97 951.161 1568.97 Q947.787 1568.97 943.968 1568.2 Q940.18 1567.44 936.106 1565.94 L936.106 1559.32 Q940.021 1561.52 943.777 1562.63 Q947.533 1563.75 951.161 1563.75 Q956.667 1563.75 959.659 1561.58 Q962.651 1559.42 962.651 1555.41 Q962.651 1551.91 960.487 1549.93 Q958.354 1547.96 953.453 1546.97 L949.538 1546.21 Q942.344 1544.78 939.13 1541.72 Q935.915 1538.67 935.915 1533.22 Q935.915 1526.92 940.339 1523.29 Q944.795 1519.66 952.593 1519.66 Q955.935 1519.66 959.405 1520.27 Q962.874 1520.87 966.502 1522.08 Z" fill="#000000" fill-rule="nonzero" fill-opacity="1" /><path clip-path="url(#clip710)" d="M985.822 1525.81 L985.822 1543.66 L993.907 1543.66 Q998.395 1543.66 1000.85 1541.34 Q1003.3 1539.02 1003.3 1534.72 Q1003.3 1530.45 1000.85 1528.13 Q998.395 1525.81 993.907 1525.81 L985.822 1525.81 M979.393 1520.52 L993.907 1520.52 Q1001.9 1520.52 1005.97 1524.15 Q1010.08 1527.75 1010.08 1534.72 Q1010.08 1541.75 1005.97 1545.35 Q1001.9 1548.95 993.907 1548.95 L985.822 1548.95 L985.822 1568.04 L979.393 1568.04 L979.393 1520.52 Z" fill="#000000" fill-rule="nonzero" fill-opacity="1" /><path clip-path="url(#clip710)" d="M1018.7 1520.52 L1025.13 1520.52 L1025.13 1562.63 L1048.27 1562.63 L1048.27 1568.04 L1018.7 1568.04 L1018.7 1520.52 Z" fill="#000000" fill-rule="nonzero" fill-opacity="1" /><path clip-path="url(#clip710)" d="M1083.5 1522.08 L1083.5 1528.35 Q1079.84 1526.6 1076.6 1525.74 Q1073.35 1524.88 1070.33 1524.88 Q1065.08 1524.88 1062.21 1526.92 Q1059.38 1528.96 1059.38 1532.71 Q1059.38 1535.87 1061.26 1537.49 Q1063.17 1539.08 1068.45 1540.07 L1072.33 1540.86 Q1079.53 1542.23 1082.93 1545.7 Q1086.37 1549.14 1086.37 1554.93 Q1086.37 1561.84 1081.72 1565.4 Q1077.11 1568.97 1068.16 1568.97 Q1064.79 1568.97 1060.97 1568.2 Q1057.18 1567.44 1053.11 1565.94 L1053.11 1559.32 Q1057.02 1561.52 1060.78 1562.63 Q1064.53 1563.75 1068.16 1563.75 Q1073.67 1563.75 1076.66 1561.58 Q1079.65 1559.42 1079.65 1555.41 Q1079.65 1551.91 1077.49 1549.93 Q1075.36 1547.96 1070.45 1546.97 L1066.54 1546.21 Q1059.35 1544.78 1056.13 1541.72 Q1052.92 1538.67 1052.92 1533.22 Q1052.92 1526.92 1057.34 1523.29 Q1061.8 1519.66 1069.59 1519.66 Q1072.94 1519.66 1076.41 1520.27 Q1079.88 1520.87 1083.5 1522.08 Z" fill="#000000" fill-rule="nonzero" fill-opacity="1" /><path clip-path="url(#clip710)" d="M1102.82 1525.81 L1102.82 1562.76 L1110.59 1562.76 Q1120.43 1562.76 1124.98 1558.3 Q1129.56 1553.85 1129.56 1544.24 Q1129.56 1534.69 1124.98 1530.26 Q1120.43 1525.81 1110.59 1525.81 L1102.82 1525.81 M1096.39 1520.52 L1109.6 1520.52 Q1123.42 1520.52 1129.88 1526.28 Q1136.34 1532.01 1136.34 1544.24 Q1136.34 1556.52 1129.85 1562.28 Q1123.35 1568.04 1109.6 1568.04 L1096.39 1568.04 L1096.39 1520.52 Z" fill="#000000" fill-rule="nonzero" fill-opacity="1" /><path clip-path="url(#clip710)" d="M1161.32 1526.86 L1152.6 1550.51 L1170.08 1550.51 L1161.32 1526.86 M1157.7 1520.52 L1164.99 1520.52 L1183.1 1568.04 L1176.41 1568.04 L1172.08 1555.85 L1150.66 1555.85 L1146.33 1568.04 L1139.55 1568.04 L1157.7 1520.52 Z" fill="#000000" fill-rule="nonzero" fill-opacity="1" /><path clip-path="url(#clip710)" d="M1236.15 1533.76 L1236.15 1539.24 Q1233.67 1537.87 1231.16 1537.2 Q1228.67 1536.5 1226.13 1536.5 Q1220.43 1536.5 1217.28 1540.13 Q1214.13 1543.73 1214.13 1550.25 Q1214.13 1556.78 1217.28 1560.4 Q1220.43 1564 1226.13 1564 Q1228.67 1564 1231.16 1563.33 Q1233.67 1562.63 1236.15 1561.26 L1236.15 1566.68 Q1233.7 1567.82 1231.06 1568.39 Q1228.45 1568.97 1225.49 1568.97 Q1217.44 1568.97 1212.7 1563.91 Q1207.95 1558.85 1207.95 1550.25 Q1207.95 1541.53 1212.73 1536.53 Q1217.53 1531.54 1225.87 1531.54 Q1228.58 1531.54 1231.16 1532.11 Q1233.73 1532.65 1236.15 1533.76 Z" fill="#000000" fill-rule="nonzero" fill-opacity="1" /><path clip-path="url(#clip710)" d="M1260.15 1536.5 Q1255.44 1536.5 1252.7 1540.19 Q1249.97 1543.85 1249.97 1550.25 Q1249.97 1556.65 1252.67 1560.34 Q1255.41 1564 1260.15 1564 Q1264.83 1564 1267.57 1560.31 Q1270.31 1556.62 1270.31 1550.25 Q1270.31 1543.92 1267.57 1540.23 Q1264.83 1536.5 1260.15 1536.5 M1260.15 1531.54 Q1267.79 1531.54 1272.15 1536.5 Q1276.51 1541.47 1276.51 1550.25 Q1276.51 1559 1272.15 1564 Q1267.79 1568.97 1260.15 1568.97 Q1252.48 1568.97 1248.12 1564 Q1243.79 1559 1243.79 1550.25 Q1243.79 1541.47 1248.12 1536.5 Q1252.48 1531.54 1260.15 1531.54 Z" fill="#000000" fill-rule="nonzero" fill-opacity="1" /><path clip-path="url(#clip710)" d="M1313.97 1539.24 Q1316.17 1535.29 1319.23 1533.41 Q1322.28 1531.54 1326.42 1531.54 Q1331.99 1531.54 1335.01 1535.45 Q1338.04 1539.33 1338.04 1546.53 L1338.04 1568.04 L1332.15 1568.04 L1332.15 1546.72 Q1332.15 1541.59 1330.33 1539.11 Q1328.52 1536.63 1324.8 1536.63 Q1320.24 1536.63 1317.6 1539.65 Q1314.96 1542.68 1314.96 1547.9 L1314.96 1568.04 L1309.07 1568.04 L1309.07 1546.72 Q1309.07 1541.56 1307.26 1539.11 Q1305.44 1536.63 1301.66 1536.63 Q1297.17 1536.63 1294.53 1539.68 Q1291.89 1542.71 1291.89 1547.9 L1291.89 1568.04 L1286 1568.04 L1286 1532.4 L1291.89 1532.4 L1291.89 1537.93 Q1293.89 1534.66 1296.69 1533.1 Q1299.49 1531.54 1303.34 1531.54 Q1307.23 1531.54 1309.93 1533.51 Q1312.67 1535.48 1313.97 1539.24 Z" fill="#000000" fill-rule="nonzero" fill-opacity="1" /><path clip-path="url(#clip710)" d="M1355.38 1562.7 L1355.38 1581.6 L1349.5 1581.6 L1349.5 1532.4 L1355.38 1532.4 L1355.38 1537.81 Q1357.23 1534.62 1360.03 1533.1 Q1362.86 1531.54 1366.78 1531.54 Q1373.27 1531.54 1377.31 1536.69 Q1381.39 1541.85 1381.39 1550.25 Q1381.39 1558.65 1377.31 1563.81 Q1373.27 1568.97 1366.78 1568.97 Q1362.86 1568.97 1360.03 1567.44 Q1357.23 1565.88 1355.38 1562.7 M1375.31 1550.25 Q1375.31 1543.79 1372.63 1540.13 Q1369.99 1536.44 1365.35 1536.44 Q1360.7 1536.44 1358.03 1540.13 Q1355.38 1543.79 1355.38 1550.25 Q1355.38 1556.71 1358.03 1560.4 Q1360.7 1564.07 1365.35 1564.07 Q1369.99 1564.07 1372.63 1560.4 Q1375.31 1556.71 1375.31 1550.25 Z" fill="#000000" fill-rule="nonzero" fill-opacity="1" /><path clip-path="url(#clip710)" d="M1404.91 1536.5 Q1400.2 1536.5 1397.46 1540.19 Q1394.72 1543.85 1394.72 1550.25 Q1394.72 1556.65 1397.43 1560.34 Q1400.17 1564 1404.91 1564 Q1409.59 1564 1412.32 1560.31 Q1415.06 1556.62 1415.06 1550.25 Q1415.06 1543.92 1412.32 1540.23 Q1409.59 1536.5 1404.91 1536.5 M1404.91 1531.54 Q1412.55 1531.54 1416.91 1536.5 Q1421.27 1541.47 1421.27 1550.25 Q1421.27 1559 1416.91 1564 Q1412.55 1568.97 1404.91 1568.97 Q1397.24 1568.97 1392.88 1564 Q1388.55 1559 1388.55 1550.25 Q1388.55 1541.47 1392.88 1536.5 Q1397.24 1531.54 1404.91 1531.54 Z" fill="#000000" fill-rule="nonzero" fill-opacity="1" /><path clip-path="url(#clip710)" d="M1460.61 1546.53 L1460.61 1568.04 L1454.75 1568.04 L1454.75 1546.72 Q1454.75 1541.66 1452.78 1539.14 Q1450.81 1536.63 1446.86 1536.63 Q1442.12 1536.63 1439.38 1539.65 Q1436.64 1542.68 1436.64 1547.9 L1436.64 1568.04 L1430.75 1568.04 L1430.75 1532.4 L1436.64 1532.4 L1436.64 1537.93 Q1438.74 1534.72 1441.58 1533.13 Q1444.44 1531.54 1448.16 1531.54 Q1454.31 1531.54 1457.46 1535.36 Q1460.61 1539.14 1460.61 1546.53 Z" fill="#000000" fill-rule="nonzero" fill-opacity="1" /><path clip-path="url(#clip710)" d="M1502.78 1548.76 L1502.78 1551.62 L1475.85 1551.62 Q1476.24 1557.67 1479.48 1560.85 Q1482.76 1564 1488.59 1564 Q1491.96 1564 1495.11 1563.17 Q1498.29 1562.35 1501.41 1560.69 L1501.41 1566.23 Q1498.26 1567.57 1494.95 1568.27 Q1491.64 1568.97 1488.24 1568.97 Q1479.71 1568.97 1474.71 1564 Q1469.74 1559.04 1469.74 1550.57 Q1469.74 1541.82 1474.45 1536.69 Q1479.2 1531.54 1487.22 1531.54 Q1494.41 1531.54 1498.58 1536.18 Q1502.78 1540.8 1502.78 1548.76 M1496.92 1547.04 Q1496.86 1542.23 1494.22 1539.37 Q1491.61 1536.5 1487.28 1536.5 Q1482.38 1536.5 1479.42 1539.27 Q1476.49 1542.04 1476.05 1547.07 L1496.92 1547.04 Z" fill="#000000" fill-rule="nonzero" fill-opacity="1" /><path clip-path="url(#clip710)" d="M1542.03 1546.53 L1542.03 1568.04 L1536.17 1568.04 L1536.17 1546.72 Q1536.17 1541.66 1534.2 1539.14 Q1532.22 1536.63 1528.28 1536.63 Q1523.53 1536.63 1520.8 1539.65 Q1518.06 1542.68 1518.06 1547.9 L1518.06 1568.04 L1512.17 1568.04 L1512.17 1532.4 L1518.06 1532.4 L1518.06 1537.93 Q1520.16 1534.72 1522.99 1533.13 Q1525.86 1531.54 1529.58 1531.54 Q1535.72 1531.54 1538.87 1535.36 Q1542.03 1539.14 1542.03 1546.53 Z" fill="#000000" fill-rule="nonzero" fill-opacity="1" /><path clip-path="url(#clip710)" d="M1559.5 1522.27 L1559.5 1532.4 L1571.56 1532.4 L1571.56 1536.95 L1559.5 1536.95 L1559.5 1556.3 Q1559.5 1560.66 1560.68 1561.9 Q1561.89 1563.14 1565.55 1563.14 L1571.56 1563.14 L1571.56 1568.04 L1565.55 1568.04 Q1558.77 1568.04 1556.19 1565.53 Q1553.61 1562.98 1553.61 1556.3 L1553.61 1536.95 L1549.31 1536.95 L1549.31 1532.4 L1553.61 1532.4 L1553.61 1522.27 L1559.5 1522.27 Z" fill="#000000" fill-rule="nonzero" fill-opacity="1" /><path clip-path="url(#clip710)" d="M1601.93 1562.63 L1612.43 1562.63 L1612.43 1526.38 L1601 1528.67 L1601 1522.82 L1612.37 1520.52 L1618.8 1520.52 L1618.8 1562.63 L1629.3 1562.63 L1629.3 1568.04 L1601.93 1568.04 L1601.93 1562.63 Z" fill="#000000" fill-rule="nonzero" fill-opacity="1" /><polyline clip-path="url(#clip710)" style="stroke:#000000; stroke-linecap:round; stroke-linejoin:round; stroke-width:4; stroke-opacity:1; fill:none" points="212.459,1423.18 212.459,123.472 "/>
<polyline clip-path="url(#clip710)" style="stroke:#000000; stroke-linecap:round; stroke-linejoin:round; stroke-width:4; stroke-opacity:1; fill:none" points="212.459,1344.58 231.357,1344.58 "/>
<polyline clip-path="url(#clip710)" style="stroke:#000000; stroke-linecap:round; stroke-linejoin:round; stroke-width:4; stroke-opacity:1; fill:none" points="212.459,1158.21 231.357,1158.21 "/>
<polyline clip-path="url(#clip710)" style="stroke:#000000; stroke-linecap:round; stroke-linejoin:round; stroke-width:4; stroke-opacity:1; fill:none" points="212.459,971.839 231.357,971.839 "/>
<polyline clip-path="url(#clip710)" style="stroke:#000000; stroke-linecap:round; stroke-linejoin:round; stroke-width:4; stroke-opacity:1; fill:none" points="212.459,785.469 231.357,785.469 "/>
<polyline clip-path="url(#clip710)" style="stroke:#000000; stroke-linecap:round; stroke-linejoin:round; stroke-width:4; stroke-opacity:1; fill:none" points="212.459,599.098 231.357,599.098 "/>
<polyline clip-path="url(#clip710)" style="stroke:#000000; stroke-linecap:round; stroke-linejoin:round; stroke-width:4; stroke-opacity:1; fill:none" points="212.459,412.728 231.357,412.728 "/>
<polyline clip-path="url(#clip710)" style="stroke:#000000; stroke-linecap:round; stroke-linejoin:round; stroke-width:4; stroke-opacity:1; fill:none" points="212.459,226.358 231.357,226.358 "/>
<path clip-path="url(#clip710)" d="M114.26 1345.03 L143.936 1345.03 L143.936 1348.97 L114.26 1348.97 L114.26 1345.03 Z" fill="#000000" fill-rule="nonzero" fill-opacity="1" /><path clip-path="url(#clip710)" d="M166.876 1331.37 L155.07 1349.82 L166.876 1349.82 L166.876 1331.37 M165.649 1327.3 L171.528 1327.3 L171.528 1349.82 L176.459 1349.82 L176.459 1353.71 L171.528 1353.71 L171.528 1361.86 L166.876 1361.86 L166.876 1353.71 L151.274 1353.71 L151.274 1349.2 L165.649 1327.3 Z" fill="#000000" fill-rule="nonzero" fill-opacity="1" /><path clip-path="url(#clip710)" d="M115.394 1158.66 L145.07 1158.66 L145.07 1162.6 L115.394 1162.6 L115.394 1158.66 Z" fill="#000000" fill-rule="nonzero" fill-opacity="1" /><path clip-path="url(#clip710)" d="M169.329 1156.86 Q172.686 1157.57 174.561 1159.84 Q176.459 1162.11 176.459 1165.44 Q176.459 1170.56 172.94 1173.36 Q169.422 1176.16 162.94 1176.16 Q160.765 1176.16 158.45 1175.72 Q156.158 1175.3 153.704 1174.45 L153.704 1169.93 Q155.649 1171.07 157.964 1171.65 Q160.278 1172.23 162.802 1172.23 Q167.2 1172.23 169.491 1170.49 Q171.806 1168.75 171.806 1165.44 Q171.806 1162.39 169.653 1160.67 Q167.524 1158.94 163.704 1158.94 L159.677 1158.94 L159.677 1155.1 L163.89 1155.1 Q167.339 1155.1 169.167 1153.73 Q170.996 1152.34 170.996 1149.75 Q170.996 1147.09 169.098 1145.67 Q167.223 1144.24 163.704 1144.24 Q161.783 1144.24 159.584 1144.66 Q157.385 1145.07 154.746 1145.95 L154.746 1141.79 Q157.408 1141.05 159.723 1140.67 Q162.061 1140.3 164.121 1140.3 Q169.445 1140.3 172.547 1142.73 Q175.649 1145.14 175.649 1149.26 Q175.649 1152.13 174.005 1154.12 Q172.362 1156.09 169.329 1156.86 Z" fill="#000000" fill-rule="nonzero" fill-opacity="1" /><path clip-path="url(#clip710)" d="M116.343 972.29 L146.019 972.29 L146.019 976.226 L116.343 976.226 L116.343 972.29 Z" fill="#000000" fill-rule="nonzero" fill-opacity="1" /><path clip-path="url(#clip710)" d="M160.14 985.184 L176.459 985.184 L176.459 989.119 L154.515 989.119 L154.515 985.184 Q157.177 982.429 161.76 977.8 Q166.366 973.147 167.547 971.804 Q169.792 969.281 170.672 967.545 Q171.575 965.786 171.575 964.096 Q171.575 961.341 169.63 959.605 Q167.709 957.869 164.607 957.869 Q162.408 957.869 159.954 958.633 Q157.524 959.397 154.746 960.948 L154.746 956.226 Q157.57 955.091 160.024 954.513 Q162.477 953.934 164.515 953.934 Q169.885 953.934 173.079 956.619 Q176.274 959.304 176.274 963.795 Q176.274 965.925 175.464 967.846 Q174.677 969.744 172.57 972.337 Q171.991 973.008 168.889 976.226 Q165.788 979.42 160.14 985.184 Z" fill="#000000" fill-rule="nonzero" fill-opacity="1" /><path clip-path="url(#clip710)" d="M115.973 785.92 L145.649 785.92 L145.649 789.855 L115.973 789.855 L115.973 785.92 Z" fill="#000000" fill-rule="nonzero" fill-opacity="1" /><path clip-path="url(#clip710)" d="M156.552 798.814 L164.19 798.814 L164.19 772.448 L155.88 774.115 L155.88 769.855 L164.144 768.189 L168.82 768.189 L168.82 798.814 L176.459 798.814 L176.459 802.749 L156.552 802.749 L156.552 798.814 Z" fill="#000000" fill-rule="nonzero" fill-opacity="1" /><path clip-path="url(#clip710)" d="M164.515 584.897 Q160.903 584.897 159.075 588.462 Q157.269 592.003 157.269 599.133 Q157.269 606.239 159.075 609.804 Q160.903 613.346 164.515 613.346 Q168.149 613.346 169.954 609.804 Q171.783 606.239 171.783 599.133 Q171.783 592.003 169.954 588.462 Q168.149 584.897 164.515 584.897 M164.515 581.193 Q170.325 581.193 173.38 585.8 Q176.459 590.383 176.459 599.133 Q176.459 607.86 173.38 612.466 Q170.325 617.05 164.515 617.05 Q158.704 617.05 155.626 612.466 Q152.57 607.86 152.57 599.133 Q152.57 590.383 155.626 585.8 Q158.704 581.193 164.515 581.193 Z" fill="#000000" fill-rule="nonzero" fill-opacity="1" /><path clip-path="url(#clip710)" d="M156.552 426.073 L164.19 426.073 L164.19 399.707 L155.88 401.374 L155.88 397.115 L164.144 395.448 L168.82 395.448 L168.82 426.073 L176.459 426.073 L176.459 430.008 L156.552 430.008 L156.552 426.073 Z" fill="#000000" fill-rule="nonzero" fill-opacity="1" /><path clip-path="url(#clip710)" d="M160.14 239.702 L176.459 239.702 L176.459 243.638 L154.515 243.638 L154.515 239.702 Q157.177 236.948 161.76 232.318 Q166.366 227.665 167.547 226.323 Q169.792 223.8 170.672 222.064 Q171.575 220.304 171.575 218.615 Q171.575 215.86 169.63 214.124 Q167.709 212.388 164.607 212.388 Q162.408 212.388 159.954 213.152 Q157.524 213.915 154.746 215.466 L154.746 210.744 Q157.57 209.61 160.024 209.031 Q162.477 208.453 164.515 208.453 Q169.885 208.453 173.079 211.138 Q176.274 213.823 176.274 218.314 Q176.274 220.443 175.464 222.365 Q174.677 224.263 172.57 226.855 Q171.991 227.527 168.889 230.744 Q165.788 233.939 160.14 239.702 Z" fill="#000000" fill-rule="nonzero" fill-opacity="1" /><path clip-path="url(#clip710)" d="M18.0438 1089.18 L24.314 1089.18 Q22.5634 1092.84 21.704 1096.08 Q20.8447 1099.33 20.8447 1102.35 Q20.8447 1107.61 22.8817 1110.47 Q24.9187 1113.3 28.6745 1113.3 Q31.8255 1113.3 33.4488 1111.42 Q35.0402 1109.51 36.0269 1104.23 L36.8226 1100.35 Q38.1912 1093.15 41.6605 1089.75 Q45.098 1086.31 50.8908 1086.31 Q57.7976 1086.31 61.3624 1090.96 Q64.9272 1095.57 64.9272 1104.52 Q64.9272 1107.89 64.1633 1111.71 Q63.3994 1115.5 61.9035 1119.57 L55.2831 1119.57 Q57.4793 1115.66 58.5933 1111.9 Q59.7073 1108.15 59.7073 1104.52 Q59.7073 1099.01 57.543 1096.02 Q55.3786 1093.03 51.3682 1093.03 Q47.8671 1093.03 45.8937 1095.19 Q43.9204 1097.32 42.9337 1102.23 L42.1698 1106.14 Q40.7375 1113.33 37.682 1116.55 Q34.6264 1119.76 29.1837 1119.76 Q22.8817 1119.76 19.2532 1115.34 Q15.6248 1110.88 15.6248 1103.09 Q15.6248 1099.74 16.2295 1096.27 Q16.8343 1092.8 18.0438 1089.18 Z" fill="#000000" fill-rule="nonzero" fill-opacity="1" /><path clip-path="url(#clip710)" d="M21.7677 1069.86 L39.6235 1069.86 L39.6235 1061.77 Q39.6235 1057.28 37.3 1054.83 Q34.9765 1052.38 30.6797 1052.38 Q26.4147 1052.38 24.0912 1054.83 Q21.7677 1057.28 21.7677 1061.77 L21.7677 1069.86 M16.4842 1076.29 L16.4842 1061.77 Q16.4842 1053.78 20.1126 1049.71 Q23.7092 1045.6 30.6797 1045.6 Q37.7138 1045.6 41.3104 1049.71 Q44.907 1053.78 44.907 1061.77 L44.907 1069.86 L64.0042 1069.86 L64.0042 1076.29 L16.4842 1076.29 Z" fill="#000000" fill-rule="nonzero" fill-opacity="1" /><path clip-path="url(#clip710)" d="M16.4842 1036.98 L16.4842 1030.55 L58.5933 1030.55 L58.5933 1007.41 L64.0042 1007.41 L64.0042 1036.98 L16.4842 1036.98 Z" fill="#000000" fill-rule="nonzero" fill-opacity="1" /><path clip-path="url(#clip710)" d="M18.0438 972.175 L24.314 972.175 Q22.5634 975.835 21.704 979.082 Q20.8447 982.328 20.8447 985.352 Q20.8447 990.603 22.8817 993.468 Q24.9187 996.301 28.6745 996.301 Q31.8255 996.301 33.4488 994.423 Q35.0402 992.513 36.0269 987.23 L36.8226 983.347 Q38.1912 976.153 41.6605 972.748 Q45.098 969.31 50.8908 969.31 Q57.7976 969.31 61.3624 973.957 Q64.9272 978.572 64.9272 987.516 Q64.9272 990.89 64.1633 994.709 Q63.3994 998.497 61.9035 1002.57 L55.2831 1002.57 Q57.4793 998.656 58.5933 994.9 Q59.7073 991.145 59.7073 987.516 Q59.7073 982.01 57.543 979.018 Q55.3786 976.026 51.3682 976.026 Q47.8671 976.026 45.8937 978.19 Q43.9204 980.323 42.9337 985.224 L42.1698 989.139 Q40.7375 996.333 37.682 999.547 Q34.6264 1002.76 29.1837 1002.76 Q22.8817 1002.76 19.2532 998.338 Q15.6248 993.882 15.6248 986.084 Q15.6248 982.742 16.2295 979.273 Q16.8343 975.803 18.0438 972.175 Z" fill="#000000" fill-rule="nonzero" fill-opacity="1" /><path clip-path="url(#clip710)" d="M21.7677 952.855 L58.7206 952.855 L58.7206 945.089 Q58.7206 935.254 54.2646 930.702 Q49.8086 926.119 40.1964 926.119 Q30.6479 926.119 26.2237 930.702 Q21.7677 935.254 21.7677 945.089 L21.7677 952.855 M16.4842 959.284 L16.4842 946.075 Q16.4842 932.262 22.2451 925.801 Q27.9743 919.339 40.1964 919.339 Q52.4822 919.339 58.2432 925.832 Q64.0042 932.325 64.0042 946.075 L64.0042 959.284 L16.4842 959.284 Z" fill="#000000" fill-rule="nonzero" fill-opacity="1" /><path clip-path="url(#clip710)" d="M22.818 894.354 L46.4666 903.075 L46.4666 885.601 L22.818 894.354 M16.4842 897.982 L16.4842 890.694 L64.0042 872.583 L64.0042 879.267 L51.8138 883.596 L51.8138 905.017 L64.0042 909.345 L64.0042 916.125 L16.4842 897.982 Z" fill="#000000" fill-rule="nonzero" fill-opacity="1" /><path clip-path="url(#clip710)" d="M29.7248 819.525 L35.1993 819.525 Q33.8307 822.008 33.1623 824.522 Q32.4621 827.005 32.4621 829.551 Q32.4621 835.248 36.0905 838.399 Q39.6872 841.55 46.212 841.55 Q52.7369 841.55 56.3653 838.399 Q59.9619 835.248 59.9619 829.551 Q59.9619 827.005 59.2935 824.522 Q58.5933 822.008 57.2247 819.525 L62.6355 819.525 Q63.7814 821.976 64.3543 824.618 Q64.9272 827.228 64.9272 830.188 Q64.9272 838.24 59.8664 842.983 Q54.8057 847.725 46.212 847.725 Q37.491 847.725 32.4939 842.951 Q27.4968 838.145 27.4968 829.806 Q27.4968 827.1 28.0697 824.522 Q28.6108 821.944 29.7248 819.525 Z" fill="#000000" fill-rule="nonzero" fill-opacity="1" /><path clip-path="url(#clip710)" d="M32.4621 795.526 Q32.4621 800.237 36.1542 802.974 Q39.8145 805.712 46.212 805.712 Q52.6095 805.712 56.3017 803.006 Q59.9619 800.269 59.9619 795.526 Q59.9619 790.848 56.2698 788.11 Q52.5777 785.373 46.212 785.373 Q39.8781 785.373 36.186 788.11 Q32.4621 790.848 32.4621 795.526 M27.4968 795.526 Q27.4968 787.888 32.4621 783.527 Q37.4273 779.167 46.212 779.167 Q54.9649 779.167 59.9619 783.527 Q64.9272 787.888 64.9272 795.526 Q64.9272 803.197 59.9619 807.558 Q54.9649 811.886 46.212 811.886 Q37.4273 811.886 32.4621 807.558 Q27.4968 803.197 27.4968 795.526 Z" fill="#000000" fill-rule="nonzero" fill-opacity="1" /><path clip-path="url(#clip710)" d="M35.1993 741.704 Q31.2526 739.508 29.3747 736.453 Q27.4968 733.397 27.4968 729.259 Q27.4968 723.689 31.4117 720.666 Q35.2948 717.642 42.4881 717.642 L64.0042 717.642 L64.0042 723.53 L42.679 723.53 Q37.5546 723.53 35.072 725.344 Q32.5894 727.159 32.5894 730.883 Q32.5894 735.434 35.6131 738.076 Q38.6368 740.718 43.8567 740.718 L64.0042 740.718 L64.0042 746.606 L42.679 746.606 Q37.5228 746.606 35.072 748.42 Q32.5894 750.234 32.5894 754.022 Q32.5894 758.51 35.6449 761.152 Q38.6686 763.793 43.8567 763.793 L64.0042 763.793 L64.0042 769.682 L28.3562 769.682 L28.3562 763.793 L33.8944 763.793 Q30.616 761.788 29.0564 758.987 Q27.4968 756.186 27.4968 752.335 Q27.4968 748.452 29.4702 745.747 Q31.4436 743.009 35.1993 741.704 Z" fill="#000000" fill-rule="nonzero" fill-opacity="1" /><path clip-path="url(#clip710)" d="M58.657 700.295 L77.5631 700.295 L77.5631 706.184 L28.3562 706.184 L28.3562 700.295 L33.7671 700.295 Q30.5842 698.449 29.0564 695.648 Q27.4968 692.816 27.4968 688.901 Q27.4968 682.408 32.6531 678.366 Q37.8093 674.292 46.212 674.292 Q54.6147 674.292 59.771 678.366 Q64.9272 682.408 64.9272 688.901 Q64.9272 692.816 63.3994 695.648 Q61.8398 698.449 58.657 700.295 M46.212 680.371 Q39.7508 680.371 36.0905 683.044 Q32.3984 685.686 32.3984 690.333 Q32.3984 694.98 36.0905 697.654 Q39.7508 700.295 46.212 700.295 Q52.6732 700.295 56.3653 697.654 Q60.0256 694.98 60.0256 690.333 Q60.0256 685.686 56.3653 683.044 Q52.6732 680.371 46.212 680.371 Z" fill="#000000" fill-rule="nonzero" fill-opacity="1" /><path clip-path="url(#clip710)" d="M32.4621 650.77 Q32.4621 655.481 36.1542 658.218 Q39.8145 660.955 46.212 660.955 Q52.6095 660.955 56.3017 658.25 Q59.9619 655.513 59.9619 650.77 Q59.9619 646.091 56.2698 643.354 Q52.5777 640.617 46.212 640.617 Q39.8781 640.617 36.186 643.354 Q32.4621 646.091 32.4621 650.77 M27.4968 650.77 Q27.4968 643.131 32.4621 638.771 Q37.4273 634.41 46.212 634.41 Q54.9649 634.41 59.9619 638.771 Q64.9272 643.131 64.9272 650.77 Q64.9272 658.441 59.9619 662.801 Q54.9649 667.13 46.212 667.13 Q37.4273 667.13 32.4621 662.801 Q27.4968 658.441 27.4968 650.77 Z" fill="#000000" fill-rule="nonzero" fill-opacity="1" /><path clip-path="url(#clip710)" d="M42.4881 595.07 L64.0042 595.07 L64.0042 600.927 L42.679 600.927 Q37.6183 600.927 35.1038 602.9 Q32.5894 604.873 32.5894 608.82 Q32.5894 613.563 35.6131 616.3 Q38.6368 619.037 43.8567 619.037 L64.0042 619.037 L64.0042 624.925 L28.3562 624.925 L28.3562 619.037 L33.8944 619.037 Q30.6797 616.936 29.0883 614.104 Q27.4968 611.239 27.4968 607.515 Q27.4968 601.372 31.3163 598.221 Q35.1038 595.07 42.4881 595.07 Z" fill="#000000" fill-rule="nonzero" fill-opacity="1" /><path clip-path="url(#clip710)" d="M44.7161 552.897 L47.5806 552.897 L47.5806 579.824 Q53.6281 579.442 56.8109 576.196 Q59.9619 572.918 59.9619 567.093 Q59.9619 563.719 59.1344 560.568 Q58.3069 557.385 56.6518 554.266 L62.1899 554.266 Q63.5267 557.417 64.227 560.727 Q64.9272 564.037 64.9272 567.443 Q64.9272 575.973 59.9619 580.97 Q54.9967 585.935 46.5303 585.935 Q37.7774 585.935 32.6531 581.225 Q27.4968 576.482 27.4968 568.462 Q27.4968 561.268 32.1438 557.099 Q36.7589 552.897 44.7161 552.897 M42.9973 558.754 Q38.1912 558.818 35.3266 561.459 Q32.4621 564.069 32.4621 568.398 Q32.4621 573.3 35.2312 576.26 Q38.0002 579.188 43.0292 579.633 L42.9973 558.754 Z" fill="#000000" fill-rule="nonzero" fill-opacity="1" /><path clip-path="url(#clip710)" d="M42.4881 513.653 L64.0042 513.653 L64.0042 519.509 L42.679 519.509 Q37.6183 519.509 35.1038 521.483 Q32.5894 523.456 32.5894 527.403 Q32.5894 532.145 35.6131 534.883 Q38.6368 537.62 43.8567 537.62 L64.0042 537.62 L64.0042 543.508 L28.3562 543.508 L28.3562 537.62 L33.8944 537.62 Q30.6797 535.519 29.0883 532.686 Q27.4968 529.822 27.4968 526.098 Q27.4968 519.955 31.3163 516.804 Q35.1038 513.653 42.4881 513.653 Z" fill="#000000" fill-rule="nonzero" fill-opacity="1" /><path clip-path="url(#clip710)" d="M18.2347 496.179 L28.3562 496.179 L28.3562 484.116 L32.9077 484.116 L32.9077 496.179 L52.2594 496.179 Q56.6199 496.179 57.8613 495.001 Q59.1026 493.792 59.1026 490.132 L59.1026 484.116 L64.0042 484.116 L64.0042 490.132 Q64.0042 496.911 61.4897 499.489 Q58.9434 502.067 52.2594 502.067 L32.9077 502.067 L32.9077 506.364 L28.3562 506.364 L28.3562 502.067 L18.2347 502.067 L18.2347 496.179 Z" fill="#000000" fill-rule="nonzero" fill-opacity="1" /><path clip-path="url(#clip710)" d="M58.5933 449.327 L58.5933 426.888 L64.0042 426.888 L64.0042 457.062 L58.5933 457.062 Q54.8057 453.401 48.44 447.099 Q42.0425 440.766 40.1964 439.142 Q36.7271 436.055 34.34 434.845 Q31.921 433.604 29.5975 433.604 Q25.8099 433.604 23.4228 436.278 Q21.0356 438.92 21.0356 443.185 Q21.0356 446.208 22.086 449.582 Q23.1363 452.924 25.2688 456.743 L18.7758 456.743 Q17.2162 452.86 16.4205 449.487 Q15.6248 446.113 15.6248 443.312 Q15.6248 435.928 19.3169 431.535 Q23.009 427.143 29.1837 427.143 Q32.112 427.143 34.7537 428.257 Q37.3637 429.339 40.9285 432.236 Q41.8515 433.031 46.2757 437.296 Q50.668 441.561 58.5933 449.327 Z" fill="#000000" fill-rule="nonzero" fill-opacity="1" /><path clip-path="url(#clip710)" d="M551.804 14.0809 L551.804 22.0612 Q547.145 19.8332 543.014 18.7395 Q538.882 17.6457 535.033 17.6457 Q528.349 17.6457 524.703 20.2383 Q521.098 22.8309 521.098 27.611 Q521.098 31.6214 523.488 33.6873 Q525.919 35.7128 532.643 36.9686 L537.585 37.9813 Q546.74 39.7232 551.075 44.1387 Q555.45 48.5136 555.45 55.8863 Q555.45 64.6767 549.536 69.2137 Q543.662 73.7508 532.279 73.7508 Q527.985 73.7508 523.124 72.7785 Q518.303 71.8063 513.118 69.9024 L513.118 61.4765 Q518.101 64.2716 522.881 65.6895 Q527.661 67.1073 532.279 67.1073 Q539.287 67.1073 543.095 64.3527 Q546.902 61.598 546.902 56.4939 Q546.902 52.0379 544.148 49.5264 Q541.434 47.0148 535.195 45.759 L530.213 44.7868 Q521.058 42.9639 516.966 39.075 Q512.875 35.1862 512.875 28.2591 Q512.875 20.2383 518.506 15.6203 Q524.177 11.0023 534.102 11.0023 Q538.355 11.0023 542.771 11.7719 Q547.186 12.5416 551.804 14.0809 Z" fill="#000000" fill-rule="nonzero" fill-opacity="1" /><path clip-path="url(#clip710)" d="M596.891 44.2197 Q599.524 45.1109 601.995 48.0275 Q604.506 50.9442 607.018 56.0483 L615.322 72.576 L606.532 72.576 L598.795 57.061 Q595.797 50.9847 592.961 48.9997 Q590.166 47.0148 585.305 47.0148 L576.393 47.0148 L576.393 72.576 L568.21 72.576 L568.21 12.096 L586.682 12.096 Q597.053 12.096 602.157 16.4305 Q607.261 20.7649 607.261 29.5149 Q607.261 35.2267 604.587 38.994 Q601.954 42.7613 596.891 44.2197 M576.393 18.8205 L576.393 40.2903 L586.682 40.2903 Q592.597 40.2903 595.594 37.5762 Q598.632 34.8216 598.632 29.5149 Q598.632 24.2082 595.594 21.5346 Q592.597 18.8205 586.682 18.8205 L576.393 18.8205 Z" fill="#000000" fill-rule="nonzero" fill-opacity="1" /><path clip-path="url(#clip710)" d="M634.037 43.6931 L634.037 65.8515 L647.162 65.8515 Q653.765 65.8515 656.925 63.1374 Q660.125 60.3828 660.125 54.752 Q660.125 49.0808 656.925 46.4072 Q653.765 43.6931 647.162 43.6931 L634.037 43.6931 M634.037 18.8205 L634.037 37.0496 L646.15 37.0496 Q652.145 37.0496 655.062 34.8216 Q658.019 32.5531 658.019 27.935 Q658.019 23.3575 655.062 21.089 Q652.145 18.8205 646.15 18.8205 L634.037 18.8205 M625.855 12.096 L646.757 12.096 Q656.115 12.096 661.178 15.9849 Q666.242 19.8737 666.242 27.0438 Q666.242 32.5936 663.649 35.8748 Q661.057 39.156 656.034 39.9662 Q662.07 41.2625 665.391 45.3944 Q668.754 49.4858 668.754 55.6432 Q668.754 63.745 663.244 68.1605 Q657.735 72.576 647.567 72.576 L625.855 72.576 L625.855 12.096 Z" fill="#000000" fill-rule="nonzero" fill-opacity="1" /><path clip-path="url(#clip710)" d="M726.601 16.7545 L726.601 25.383 Q722.469 21.5346 717.77 19.6307 Q713.111 17.7268 707.845 17.7268 Q697.475 17.7268 691.965 24.0867 Q686.456 30.4061 686.456 42.3968 Q686.456 54.3469 691.965 60.7069 Q697.475 67.0263 707.845 67.0263 Q713.111 67.0263 717.77 65.1223 Q722.469 63.2184 726.601 59.3701 L726.601 67.9175 Q722.307 70.8341 717.486 72.2924 Q712.706 73.7508 707.359 73.7508 Q693.626 73.7508 685.727 65.3654 Q677.828 56.9395 677.828 42.3968 Q677.828 27.8135 685.727 19.4281 Q693.626 11.0023 707.359 11.0023 Q712.787 11.0023 717.567 12.4606 Q722.388 13.8784 726.601 16.7545 Z" fill="#000000" fill-rule="nonzero" fill-opacity="1" /><path clip-path="url(#clip710)" d="M730.854 12.096 L782.017 12.096 L782.017 18.9825 L760.547 18.9825 L760.547 72.576 L752.324 72.576 L752.324 18.9825 L730.854 18.9825 L730.854 12.096 Z" fill="#000000" fill-rule="nonzero" fill-opacity="1" /><path clip-path="url(#clip710)" d="M844.887 28.5427 L844.887 35.5912 Q841.727 33.9709 838.324 33.1607 Q834.922 32.3505 831.276 32.3505 Q825.726 32.3505 822.931 34.0519 Q820.176 35.7533 820.176 39.156 Q820.176 41.7486 822.161 43.2475 Q824.146 44.7058 830.142 46.0426 L832.694 46.6097 Q840.633 48.3111 843.955 51.4303 Q847.317 54.509 847.317 60.0587 Q847.317 66.3781 842.294 70.0644 Q837.312 73.7508 828.562 73.7508 Q824.916 73.7508 820.946 73.0216 Q817.017 72.3329 812.642 70.9151 L812.642 63.2184 Q816.774 65.3654 820.784 66.4591 Q824.794 67.5124 828.724 67.5124 Q833.99 67.5124 836.826 65.73 Q839.661 63.9071 839.661 60.6258 Q839.661 57.5877 837.595 55.9673 Q835.57 54.3469 828.643 52.8481 L826.05 52.2405 Q819.123 50.7821 816.045 47.7845 Q812.966 44.7463 812.966 39.4801 Q812.966 33.0797 817.503 29.5959 Q822.04 26.1121 830.385 26.1121 Q834.517 26.1121 838.162 26.7198 Q841.808 27.3274 844.887 28.5427 Z" fill="#000000" fill-rule="nonzero" fill-opacity="1" /><path clip-path="url(#clip710)" d="M879.806 49.7694 Q870.772 49.7694 867.288 51.8354 Q863.805 53.9013 863.805 58.8839 Q863.805 62.8538 866.397 65.2034 Q869.03 67.5124 873.527 67.5124 Q879.725 67.5124 883.452 63.1374 Q887.219 58.7219 887.219 51.4303 L887.219 49.7694 L879.806 49.7694 M894.673 46.6907 L894.673 72.576 L887.219 72.576 L887.219 65.6895 Q884.667 69.8214 880.859 71.8063 Q877.051 73.7508 871.542 73.7508 Q864.574 73.7508 860.442 69.8619 Q856.351 65.9325 856.351 59.3701 Q856.351 51.7138 861.455 47.825 Q866.6 43.9361 876.768 43.9361 L887.219 43.9361 L887.219 43.2069 Q887.219 38.0623 883.816 35.2672 Q880.454 32.4315 874.337 32.4315 Q870.448 32.4315 866.762 33.3632 Q863.076 34.295 859.673 36.1584 L859.673 29.2718 Q863.764 27.692 867.613 26.9223 Q871.461 26.1121 875.107 26.1121 Q884.95 26.1121 889.811 31.2163 Q894.673 36.3204 894.673 46.6907 Z" fill="#000000" fill-rule="nonzero" fill-opacity="1" /><path clip-path="url(#clip710)" d="M945.349 35.9153 Q948.144 30.8922 952.033 28.5022 Q955.922 26.1121 961.188 26.1121 Q968.277 26.1121 972.126 31.0947 Q975.974 36.0368 975.974 45.1919 L975.974 72.576 L968.48 72.576 L968.48 45.4349 Q968.48 38.913 966.171 35.7533 Q963.862 32.5936 959.122 32.5936 Q953.33 32.5936 949.967 36.4419 Q946.605 40.2903 946.605 46.9338 L946.605 72.576 L939.111 72.576 L939.111 45.4349 Q939.111 38.8725 936.802 35.7533 Q934.493 32.5936 929.672 32.5936 Q923.961 32.5936 920.598 36.4824 Q917.236 40.3308 917.236 46.9338 L917.236 72.576 L909.742 72.576 L909.742 27.2059 L917.236 27.2059 L917.236 34.2544 Q919.788 30.082 923.353 28.0971 Q926.918 26.1121 931.819 26.1121 Q936.761 26.1121 940.205 28.6237 Q943.689 31.1352 945.349 35.9153 Z" fill="#000000" fill-rule="nonzero" fill-opacity="1" /><path clip-path="url(#clip710)" d="M998.052 65.7705 L998.052 89.8329 L990.557 89.8329 L990.557 27.2059 L998.052 27.2059 L998.052 34.0924 Q1000.4 30.0415 1003.97 28.0971 Q1007.57 26.1121 1012.55 26.1121 Q1020.82 26.1121 1025.96 32.6746 Q1031.15 39.2371 1031.15 49.9314 Q1031.15 60.6258 1025.96 67.1883 Q1020.82 73.7508 1012.55 73.7508 Q1007.57 73.7508 1003.97 71.8063 Q1000.4 69.8214 998.052 65.7705 M1023.41 49.9314 Q1023.41 41.7081 1020.01 37.0496 Q1016.65 32.3505 1010.73 32.3505 Q1004.82 32.3505 1001.41 37.0496 Q998.052 41.7081 998.052 49.9314 Q998.052 58.1548 1001.41 62.8538 Q1004.82 67.5124 1010.73 67.5124 Q1016.65 67.5124 1020.01 62.8538 Q1023.41 58.1548 1023.41 49.9314 Z" fill="#000000" fill-rule="nonzero" fill-opacity="1" /><path clip-path="url(#clip710)" d="M1043.5 9.54393 L1050.96 9.54393 L1050.96 72.576 L1043.5 72.576 L1043.5 9.54393 Z" fill="#000000" fill-rule="nonzero" fill-opacity="1" /><path clip-path="url(#clip710)" d="M1105.36 48.0275 L1105.36 51.6733 L1071.09 51.6733 Q1071.58 59.3701 1075.71 63.421 Q1079.88 67.4314 1087.29 67.4314 Q1091.59 67.4314 1095.6 66.3781 Q1099.65 65.3249 1103.62 63.2184 L1103.62 70.267 Q1099.61 71.9684 1095.39 72.8596 Q1091.18 73.7508 1086.85 73.7508 Q1075.99 73.7508 1069.63 67.4314 Q1063.31 61.1119 1063.31 50.3365 Q1063.31 39.1965 1069.31 32.6746 Q1075.34 26.1121 1085.55 26.1121 Q1094.71 26.1121 1100.01 32.0264 Q1105.36 37.9003 1105.36 48.0275 M1097.91 45.84 Q1097.83 39.7232 1094.46 36.0774 Q1091.14 32.4315 1085.63 32.4315 Q1079.39 32.4315 1075.63 35.9558 Q1071.9 39.4801 1071.33 45.8805 L1097.91 45.84 Z" fill="#000000" fill-rule="nonzero" fill-opacity="1" /><path clip-path="url(#clip710)" d="M1146.52 28.5427 L1146.52 35.5912 Q1143.36 33.9709 1139.95 33.1607 Q1136.55 32.3505 1132.91 32.3505 Q1127.36 32.3505 1124.56 34.0519 Q1121.81 35.7533 1121.81 39.156 Q1121.81 41.7486 1123.79 43.2475 Q1125.78 44.7058 1131.77 46.0426 L1134.32 46.6097 Q1142.26 48.3111 1145.59 51.4303 Q1148.95 54.509 1148.95 60.0587 Q1148.95 66.3781 1143.92 70.0644 Q1138.94 73.7508 1130.19 73.7508 Q1126.55 73.7508 1122.58 73.0216 Q1118.65 72.3329 1114.27 70.9151 L1114.27 63.2184 Q1118.4 65.3654 1122.41 66.4591 Q1126.42 67.5124 1130.35 67.5124 Q1135.62 67.5124 1138.46 65.73 Q1141.29 63.9071 1141.29 60.6258 Q1141.29 57.5877 1139.23 55.9673 Q1137.2 54.3469 1130.27 52.8481 L1127.68 52.2405 Q1120.75 50.7821 1117.67 47.7845 Q1114.6 44.7463 1114.6 39.4801 Q1114.6 33.0797 1119.13 29.5959 Q1123.67 26.1121 1132.02 26.1121 Q1136.15 26.1121 1139.79 26.7198 Q1143.44 27.3274 1146.52 28.5427 Z" fill="#000000" fill-rule="nonzero" fill-opacity="1" /><path clip-path="url(#clip710)" d="M1162.72 62.2867 L1171.27 62.2867 L1171.27 72.576 L1162.72 72.576 L1162.72 62.2867 M1162.72 29.6769 L1171.27 29.6769 L1171.27 39.9662 L1162.72 39.9662 L1162.72 29.6769 Z" fill="#000000" fill-rule="nonzero" fill-opacity="1" /><path clip-path="url(#clip710)" d="M1247.79 28.9478 L1247.79 35.9153 Q1244.63 34.1734 1241.43 33.3227 Q1238.27 32.4315 1235.03 32.4315 Q1227.78 32.4315 1223.77 37.0496 Q1219.76 41.6271 1219.76 49.9314 Q1219.76 58.2358 1223.77 62.8538 Q1227.78 67.4314 1235.03 67.4314 Q1238.27 67.4314 1241.43 66.5807 Q1244.63 65.6895 1247.79 63.9476 L1247.79 70.8341 Q1244.67 72.2924 1241.31 73.0216 Q1237.99 73.7508 1234.22 73.7508 Q1223.97 73.7508 1217.93 67.3098 Q1211.9 60.8689 1211.9 49.9314 Q1211.9 38.832 1217.98 32.472 Q1224.09 26.1121 1234.71 26.1121 Q1238.15 26.1121 1241.43 26.8413 Q1244.71 27.5299 1247.79 28.9478 Z" fill="#000000" fill-rule="nonzero" fill-opacity="1" /><path clip-path="url(#clip710)" d="M1278.33 32.4315 Q1272.34 32.4315 1268.85 37.1306 Q1265.37 41.7891 1265.37 49.9314 Q1265.37 58.0738 1268.81 62.7728 Q1272.3 67.4314 1278.33 67.4314 Q1284.29 67.4314 1287.77 62.7323 Q1291.26 58.0333 1291.26 49.9314 Q1291.26 41.8701 1287.77 37.1711 Q1284.29 32.4315 1278.33 32.4315 M1278.33 26.1121 Q1288.06 26.1121 1293.61 32.4315 Q1299.16 38.7509 1299.16 49.9314 Q1299.16 61.0714 1293.61 67.4314 Q1288.06 73.7508 1278.33 73.7508 Q1268.57 73.7508 1263.02 67.4314 Q1257.51 61.0714 1257.51 49.9314 Q1257.51 38.7509 1263.02 32.4315 Q1268.57 26.1121 1278.33 26.1121 Z" fill="#000000" fill-rule="nonzero" fill-opacity="1" /><path clip-path="url(#clip710)" d="M1346.83 35.9153 Q1349.63 30.8922 1353.52 28.5022 Q1357.41 26.1121 1362.67 26.1121 Q1369.76 26.1121 1373.61 31.0947 Q1377.46 36.0368 1377.46 45.1919 L1377.46 72.576 L1369.97 72.576 L1369.97 45.4349 Q1369.97 38.913 1367.66 35.7533 Q1365.35 32.5936 1360.61 32.5936 Q1354.81 32.5936 1351.45 36.4419 Q1348.09 40.2903 1348.09 46.9338 L1348.09 72.576 L1340.6 72.576 L1340.6 45.4349 Q1340.6 38.8725 1338.29 35.7533 Q1335.98 32.5936 1331.16 32.5936 Q1325.45 32.5936 1322.08 36.4824 Q1318.72 40.3308 1318.72 46.9338 L1318.72 72.576 L1311.23 72.576 L1311.23 27.2059 L1318.72 27.2059 L1318.72 34.2544 Q1321.27 30.082 1324.84 28.0971 Q1328.4 26.1121 1333.3 26.1121 Q1338.25 26.1121 1341.69 28.6237 Q1345.17 31.1352 1346.83 35.9153 Z" fill="#000000" fill-rule="nonzero" fill-opacity="1" /><path clip-path="url(#clip710)" d="M1399.54 65.7705 L1399.54 89.8329 L1392.04 89.8329 L1392.04 27.2059 L1399.54 27.2059 L1399.54 34.0924 Q1401.89 30.0415 1405.45 28.0971 Q1409.06 26.1121 1414.04 26.1121 Q1422.3 26.1121 1427.45 32.6746 Q1432.63 39.2371 1432.63 49.9314 Q1432.63 60.6258 1427.45 67.1883 Q1422.3 73.7508 1414.04 73.7508 Q1409.06 73.7508 1405.45 71.8063 Q1401.89 69.8214 1399.54 65.7705 M1424.9 49.9314 Q1424.9 41.7081 1421.49 37.0496 Q1418.13 32.3505 1412.22 32.3505 Q1406.3 32.3505 1402.9 37.0496 Q1399.54 41.7081 1399.54 49.9314 Q1399.54 58.1548 1402.9 62.8538 Q1406.3 67.5124 1412.22 67.5124 Q1418.13 67.5124 1421.49 62.8538 Q1424.9 58.1548 1424.9 49.9314 Z" fill="#000000" fill-rule="nonzero" fill-opacity="1" /><path clip-path="url(#clip710)" d="M1462.57 32.4315 Q1456.57 32.4315 1453.09 37.1306 Q1449.61 41.7891 1449.61 49.9314 Q1449.61 58.0738 1453.05 62.7728 Q1456.53 67.4314 1462.57 67.4314 Q1468.52 67.4314 1472.01 62.7323 Q1475.49 58.0333 1475.49 49.9314 Q1475.49 41.8701 1472.01 37.1711 Q1468.52 32.4315 1462.57 32.4315 M1462.57 26.1121 Q1472.29 26.1121 1477.84 32.4315 Q1483.39 38.7509 1483.39 49.9314 Q1483.39 61.0714 1477.84 67.4314 Q1472.29 73.7508 1462.57 73.7508 Q1452.81 73.7508 1447.26 67.4314 Q1441.75 61.0714 1441.75 49.9314 Q1441.75 38.7509 1447.26 32.4315 Q1452.81 26.1121 1462.57 26.1121 Z" fill="#000000" fill-rule="nonzero" fill-opacity="1" /><path clip-path="url(#clip710)" d="M1533.46 45.1919 L1533.46 72.576 L1526.01 72.576 L1526.01 45.4349 Q1526.01 38.994 1523.49 35.7938 Q1520.98 32.5936 1515.96 32.5936 Q1509.92 32.5936 1506.44 36.4419 Q1502.96 40.2903 1502.96 46.9338 L1502.96 72.576 L1495.46 72.576 L1495.46 27.2059 L1502.96 27.2059 L1502.96 34.2544 Q1505.63 30.163 1509.24 28.1376 Q1512.88 26.1121 1517.62 26.1121 Q1525.44 26.1121 1529.45 30.9732 Q1533.46 35.7938 1533.46 45.1919 Z" fill="#000000" fill-rule="nonzero" fill-opacity="1" /><path clip-path="url(#clip710)" d="M1587.13 48.0275 L1587.13 51.6733 L1552.86 51.6733 Q1553.35 59.3701 1557.48 63.421 Q1561.65 67.4314 1569.07 67.4314 Q1573.36 67.4314 1577.37 66.3781 Q1581.42 65.3249 1585.39 63.2184 L1585.39 70.267 Q1581.38 71.9684 1577.17 72.8596 Q1572.96 73.7508 1568.62 73.7508 Q1557.77 73.7508 1551.41 67.4314 Q1545.09 61.1119 1545.09 50.3365 Q1545.09 39.1965 1551.08 32.6746 Q1557.12 26.1121 1567.33 26.1121 Q1576.48 26.1121 1581.79 32.0264 Q1587.13 37.9003 1587.13 48.0275 M1579.68 45.84 Q1579.6 39.7232 1576.24 36.0774 Q1572.92 32.4315 1567.41 32.4315 Q1561.17 32.4315 1557.4 35.9558 Q1553.67 39.4801 1553.11 45.8805 L1579.68 45.84 Z" fill="#000000" fill-rule="nonzero" fill-opacity="1" /><path clip-path="url(#clip710)" d="M1637.08 45.1919 L1637.08 72.576 L1629.63 72.576 L1629.63 45.4349 Q1629.63 38.994 1627.12 35.7938 Q1624.6 32.5936 1619.58 32.5936 Q1613.55 32.5936 1610.06 36.4419 Q1606.58 40.2903 1606.58 46.9338 L1606.58 72.576 L1599.08 72.576 L1599.08 27.2059 L1606.58 27.2059 L1606.58 34.2544 Q1609.25 30.163 1612.86 28.1376 Q1616.5 26.1121 1621.24 26.1121 Q1629.06 26.1121 1633.07 30.9732 Q1637.08 35.7938 1637.08 45.1919 Z" fill="#000000" fill-rule="nonzero" fill-opacity="1" /><path clip-path="url(#clip710)" d="M1659.32 14.324 L1659.32 27.2059 L1674.67 27.2059 L1674.67 32.9987 L1659.32 32.9987 L1659.32 57.6282 Q1659.32 63.1779 1660.82 64.7578 Q1662.36 66.3376 1667.02 66.3376 L1674.67 66.3376 L1674.67 72.576 L1667.02 72.576 Q1658.39 72.576 1655.11 69.3758 Q1651.83 66.1351 1651.83 57.6282 L1651.83 32.9987 L1646.36 32.9987 L1646.36 27.2059 L1651.83 27.2059 L1651.83 14.324 L1659.32 14.324 Z" fill="#000000" fill-rule="nonzero" fill-opacity="1" /><path clip-path="url(#clip710)" d="M1713.4 28.5427 L1713.4 35.5912 Q1710.24 33.9709 1706.84 33.1607 Q1703.44 32.3505 1699.79 32.3505 Q1694.24 32.3505 1691.44 34.0519 Q1688.69 35.7533 1688.69 39.156 Q1688.69 41.7486 1690.68 43.2475 Q1692.66 44.7058 1698.66 46.0426 L1701.21 46.6097 Q1709.15 48.3111 1712.47 51.4303 Q1715.83 54.509 1715.83 60.0587 Q1715.83 66.3781 1710.81 70.0644 Q1705.83 73.7508 1697.08 73.7508 Q1693.43 73.7508 1689.46 73.0216 Q1685.53 72.3329 1681.16 70.9151 L1681.16 63.2184 Q1685.29 65.3654 1689.3 66.4591 Q1693.31 67.5124 1697.24 67.5124 Q1702.5 67.5124 1705.34 65.73 Q1708.18 63.9071 1708.18 60.6258 Q1708.18 57.5877 1706.11 55.9673 Q1704.08 54.3469 1697.16 52.8481 L1694.56 52.2405 Q1687.64 50.7821 1684.56 47.7845 Q1681.48 44.7463 1681.48 39.4801 Q1681.48 33.0797 1686.02 29.5959 Q1690.55 26.1121 1698.9 26.1121 Q1703.03 26.1121 1706.68 26.7198 Q1710.32 27.3274 1713.4 28.5427 Z" fill="#000000" fill-rule="nonzero" fill-opacity="1" /><path clip-path="url(#clip710)" d="M1756.54 65.6895 L1769.91 65.6895 L1769.91 19.5497 L1755.37 22.4663 L1755.37 15.0127 L1769.83 12.096 L1778.01 12.096 L1778.01 65.6895 L1791.38 65.6895 L1791.38 72.576 L1756.54 72.576 L1756.54 65.6895 Z" fill="#000000" fill-rule="nonzero" fill-opacity="1" /><path clip-path="url(#clip710)" d="M1853.85 49.7694 Q1844.81 49.7694 1841.33 51.8354 Q1837.84 53.9013 1837.84 58.8839 Q1837.84 62.8538 1840.44 65.2034 Q1843.07 67.5124 1847.57 67.5124 Q1853.76 67.5124 1857.49 63.1374 Q1861.26 58.7219 1861.26 51.4303 L1861.26 49.7694 L1853.85 49.7694 M1868.71 46.6907 L1868.71 72.576 L1861.26 72.576 L1861.26 65.6895 Q1858.71 69.8214 1854.9 71.8063 Q1851.09 73.7508 1845.58 73.7508 Q1838.61 73.7508 1834.48 69.8619 Q1830.39 65.9325 1830.39 59.3701 Q1830.39 51.7138 1835.5 47.825 Q1840.64 43.9361 1850.81 43.9361 L1861.26 43.9361 L1861.26 43.2069 Q1861.26 38.0623 1857.86 35.2672 Q1854.49 32.4315 1848.38 32.4315 Q1844.49 32.4315 1840.8 33.3632 Q1837.12 34.295 1833.71 36.1584 L1833.71 29.2718 Q1837.8 27.692 1841.65 26.9223 Q1845.5 26.1121 1849.15 26.1121 Q1858.99 26.1121 1863.85 31.2163 Q1868.71 36.3204 1868.71 46.6907 Z" fill="#000000" fill-rule="nonzero" fill-opacity="1" /><path clip-path="url(#clip710)" d="M1921.78 45.1919 L1921.78 72.576 L1914.33 72.576 L1914.33 45.4349 Q1914.33 38.994 1911.81 35.7938 Q1909.3 32.5936 1904.28 32.5936 Q1898.24 32.5936 1894.76 36.4419 Q1891.28 40.2903 1891.28 46.9338 L1891.28 72.576 L1883.78 72.576 L1883.78 27.2059 L1891.28 27.2059 L1891.28 34.2544 Q1893.95 30.163 1897.55 28.1376 Q1901.2 26.1121 1905.94 26.1121 Q1913.76 26.1121 1917.77 30.9732 Q1921.78 35.7938 1921.78 45.1919 Z" fill="#000000" fill-rule="nonzero" fill-opacity="1" /><path clip-path="url(#clip710)" d="M1966.5 34.0924 L1966.5 9.54393 L1973.95 9.54393 L1973.95 72.576 L1966.5 72.576 L1966.5 65.7705 Q1964.15 69.8214 1960.55 71.8063 Q1956.98 73.7508 1951.96 73.7508 Q1943.74 73.7508 1938.55 67.1883 Q1933.41 60.6258 1933.41 49.9314 Q1933.41 39.2371 1938.55 32.6746 Q1943.74 26.1121 1951.96 26.1121 Q1956.98 26.1121 1960.55 28.0971 Q1964.15 30.0415 1966.5 34.0924 M1941.1 49.9314 Q1941.1 58.1548 1944.46 62.8538 Q1947.87 67.5124 1953.78 67.5124 Q1959.7 67.5124 1963.1 62.8538 Q1966.5 58.1548 1966.5 49.9314 Q1966.5 41.7081 1963.1 37.0496 Q1959.7 32.3505 1953.78 32.3505 Q1947.87 32.3505 1944.46 37.0496 Q1941.1 41.7081 1941.1 49.9314 Z" fill="#000000" fill-rule="nonzero" fill-opacity="1" /><path clip-path="url(#clip710)" d="M2023.78 65.6895 L2052.34 65.6895 L2052.34 72.576 L2013.94 72.576 L2013.94 65.6895 Q2018.6 60.8689 2026.62 52.7671 Q2034.68 44.6248 2036.74 42.2752 Q2040.67 37.8598 2042.21 34.8216 Q2043.79 31.7429 2043.79 28.7857 Q2043.79 23.9651 2040.39 20.927 Q2037.03 17.8888 2031.6 17.8888 Q2027.75 17.8888 2023.46 19.2256 Q2019.2 20.5624 2014.34 23.2765 L2014.34 15.0127 Q2019.28 13.0277 2023.58 12.015 Q2027.87 11.0023 2031.44 11.0023 Q2040.84 11.0023 2046.43 15.7013 Q2052.02 20.4004 2052.02 28.2591 Q2052.02 31.9859 2050.6 35.3482 Q2049.22 38.6699 2045.53 43.2069 Q2044.52 44.3817 2039.09 50.0125 Q2033.67 55.6027 2023.78 65.6895 Z" fill="#000000" fill-rule="nonzero" fill-opacity="1" /><circle clip-path="url(#clip711)" cx="2247.07" cy="596.788" r="18" fill="#009af9" fill-rule="evenodd" fill-opacity="1" stroke="#000000" stroke-opacity="1" stroke-width="1.6"/>
<circle clip-path="url(#clip711)" cx="1867.2" cy="546.847" r="18" fill="#009af9" fill-rule="evenodd" fill-opacity="1" stroke="#000000" stroke-opacity="1" stroke-width="1.6"/>
<circle clip-path="url(#clip711)" cx="2292.18" cy="595.366" r="18" fill="#009af9" fill-rule="evenodd" fill-opacity="1" stroke="#000000" stroke-opacity="1" stroke-width="1.6"/>
<circle clip-path="url(#clip711)" cx="2096.09" cy="571.378" r="18" fill="#009af9" fill-rule="evenodd" fill-opacity="1" stroke="#000000" stroke-opacity="1" stroke-width="1.6"/>
<circle clip-path="url(#clip711)" cx="2143.97" cy="560.675" r="18" fill="#009af9" fill-rule="evenodd" fill-opacity="1" stroke="#000000" stroke-opacity="1" stroke-width="1.6"/>
<circle clip-path="url(#clip711)" cx="1774.89" cy="521.031" r="18" fill="#009af9" fill-rule="evenodd" fill-opacity="1" stroke="#000000" stroke-opacity="1" stroke-width="1.6"/>
<circle clip-path="url(#clip711)" cx="2276.68" cy="626.306" r="18" fill="#009af9" fill-rule="evenodd" fill-opacity="1" stroke="#000000" stroke-opacity="1" stroke-width="1.6"/>
<circle clip-path="url(#clip711)" cx="2201.63" cy="593.881" r="18" fill="#009af9" fill-rule="evenodd" fill-opacity="1" stroke="#000000" stroke-opacity="1" stroke-width="1.6"/>
<circle clip-path="url(#clip711)" cx="445.418" cy="1062.81" r="18" fill="#e26f46" fill-rule="evenodd" fill-opacity="1" stroke="#000000" stroke-opacity="1" stroke-width="1.6"/>
<circle clip-path="url(#clip711)" cx="531.115" cy="1099.82" r="18" fill="#e26f46" fill-rule="evenodd" fill-opacity="1" stroke="#000000" stroke-opacity="1" stroke-width="1.6"/>
<circle clip-path="url(#clip711)" cx="431.579" cy="1000.57" r="18" fill="#e26f46" fill-rule="evenodd" fill-opacity="1" stroke="#000000" stroke-opacity="1" stroke-width="1.6"/>
<circle clip-path="url(#clip711)" cx="519.905" cy="1239.19" r="18" fill="#e26f46" fill-rule="evenodd" fill-opacity="1" stroke="#000000" stroke-opacity="1" stroke-width="1.6"/>
<circle clip-path="url(#clip711)" cx="488.031" cy="1027.8" r="18" fill="#e26f46" fill-rule="evenodd" fill-opacity="1" stroke="#000000" stroke-opacity="1" stroke-width="1.6"/>
<circle clip-path="url(#clip711)" cx="485.025" cy="1163.8" r="18" fill="#e26f46" fill-rule="evenodd" fill-opacity="1" stroke="#000000" stroke-opacity="1" stroke-width="1.6"/>
<circle clip-path="url(#clip711)" cx="654.06" cy="1117.88" r="18" fill="#e26f46" fill-rule="evenodd" fill-opacity="1" stroke="#000000" stroke-opacity="1" stroke-width="1.6"/>
<circle clip-path="url(#clip711)" cx="447.106" cy="1070.83" r="18" fill="#e26f46" fill-rule="evenodd" fill-opacity="1" stroke="#000000" stroke-opacity="1" stroke-width="1.6"/>
<circle clip-path="url(#clip711)" cx="346.903" cy="1386.4" r="18" fill="#e26f46" fill-rule="evenodd" fill-opacity="1" stroke="#000000" stroke-opacity="1" stroke-width="1.6"/>
<circle clip-path="url(#clip711)" cx="760.427" cy="960.987" r="18" fill="#e26f46" fill-rule="evenodd" fill-opacity="1" stroke="#000000" stroke-opacity="1" stroke-width="1.6"/>
<circle clip-path="url(#clip711)" cx="398.932" cy="1137.04" r="18" fill="#e26f46" fill-rule="evenodd" fill-opacity="1" stroke="#000000" stroke-opacity="1" stroke-width="1.6"/>
<circle clip-path="url(#clip711)" cx="456.287" cy="1196.07" r="18" fill="#e26f46" fill-rule="evenodd" fill-opacity="1" stroke="#000000" stroke-opacity="1" stroke-width="1.6"/>
<circle clip-path="url(#clip711)" cx="544.831" cy="1250.11" r="18" fill="#e26f46" fill-rule="evenodd" fill-opacity="1" stroke="#000000" stroke-opacity="1" stroke-width="1.6"/>
<circle clip-path="url(#clip711)" cx="497.984" cy="1325.05" r="18" fill="#e26f46" fill-rule="evenodd" fill-opacity="1" stroke="#000000" stroke-opacity="1" stroke-width="1.6"/>
<circle clip-path="url(#clip711)" cx="407.433" cy="783.424" r="18" fill="#e26f46" fill-rule="evenodd" fill-opacity="1" stroke="#000000" stroke-opacity="1" stroke-width="1.6"/>
<circle clip-path="url(#clip711)" cx="432.286" cy="726.645" r="18" fill="#e26f46" fill-rule="evenodd" fill-opacity="1" stroke="#000000" stroke-opacity="1" stroke-width="1.6"/>
<circle clip-path="url(#clip711)" cx="535.777" cy="784.781" r="18" fill="#e26f46" fill-rule="evenodd" fill-opacity="1" stroke="#000000" stroke-opacity="1" stroke-width="1.6"/>
<circle clip-path="url(#clip711)" cx="479.218" cy="952.856" r="18" fill="#e26f46" fill-rule="evenodd" fill-opacity="1" stroke="#000000" stroke-opacity="1" stroke-width="1.6"/>
<circle clip-path="url(#clip711)" cx="447.513" cy="1079.81" r="18" fill="#e26f46" fill-rule="evenodd" fill-opacity="1" stroke="#000000" stroke-opacity="1" stroke-width="1.6"/>
<circle clip-path="url(#clip711)" cx="364.223" cy="1382.57" r="18" fill="#e26f46" fill-rule="evenodd" fill-opacity="1" stroke="#000000" stroke-opacity="1" stroke-width="1.6"/>
<circle clip-path="url(#clip711)" cx="273.033" cy="916.339" r="18" fill="#e26f46" fill-rule="evenodd" fill-opacity="1" stroke="#000000" stroke-opacity="1" stroke-width="1.6"/>
<circle clip-path="url(#clip711)" cx="448.385" cy="875.089" r="18" fill="#e26f46" fill-rule="evenodd" fill-opacity="1" stroke="#000000" stroke-opacity="1" stroke-width="1.6"/>
<circle clip-path="url(#clip711)" cx="372.375" cy="881.517" r="18" fill="#e26f46" fill-rule="evenodd" fill-opacity="1" stroke="#000000" stroke-opacity="1" stroke-width="1.6"/>
<circle clip-path="url(#clip711)" cx="484.358" cy="239.597" r="18" fill="#3da44d" fill-rule="evenodd" fill-opacity="1" stroke="#000000" stroke-opacity="1" stroke-width="1.6"/>
<circle clip-path="url(#clip711)" cx="587.343" cy="310.33" r="18" fill="#3da44d" fill-rule="evenodd" fill-opacity="1" stroke="#000000" stroke-opacity="1" stroke-width="1.6"/>
<circle clip-path="url(#clip711)" cx="484.871" cy="245.258" r="18" fill="#3da44d" fill-rule="evenodd" fill-opacity="1" stroke="#000000" stroke-opacity="1" stroke-width="1.6"/>
<circle clip-path="url(#clip711)" cx="426.343" cy="243.769" r="18" fill="#3da44d" fill-rule="evenodd" fill-opacity="1" stroke="#000000" stroke-opacity="1" stroke-width="1.6"/>
<circle clip-path="url(#clip711)" cx="313.605" cy="251.712" r="18" fill="#3da44d" fill-rule="evenodd" fill-opacity="1" stroke="#000000" stroke-opacity="1" stroke-width="1.6"/>
<circle clip-path="url(#clip711)" cx="389.305" cy="355.949" r="18" fill="#3da44d" fill-rule="evenodd" fill-opacity="1" stroke="#000000" stroke-opacity="1" stroke-width="1.6"/>
<circle clip-path="url(#clip711)" cx="458.719" cy="193.6" r="18" fill="#3da44d" fill-rule="evenodd" fill-opacity="1" stroke="#000000" stroke-opacity="1" stroke-width="1.6"/>
<circle clip-path="url(#clip711)" cx="487.701" cy="160.256" r="18" fill="#3da44d" fill-rule="evenodd" fill-opacity="1" stroke="#000000" stroke-opacity="1" stroke-width="1.6"/>
<circle clip-path="url(#clip711)" cx="424.63" cy="233.472" r="18" fill="#3da44d" fill-rule="evenodd" fill-opacity="1" stroke="#000000" stroke-opacity="1" stroke-width="1.6"/>
<circle clip-path="url(#clip711)" cx="400.953" cy="282.806" r="18" fill="#3da44d" fill-rule="evenodd" fill-opacity="1" stroke="#000000" stroke-opacity="1" stroke-width="1.6"/>
<circle clip-path="url(#clip711)" cx="480" cy="314.175" r="18" fill="#3da44d" fill-rule="evenodd" fill-opacity="1" stroke="#000000" stroke-opacity="1" stroke-width="1.6"/>
<circle clip-path="url(#clip711)" cx="378.627" cy="190.438" r="18" fill="#3da44d" fill-rule="evenodd" fill-opacity="1" stroke="#000000" stroke-opacity="1" stroke-width="1.6"/>
<circle clip-path="url(#clip711)" cx="396.186" cy="219.17" r="18" fill="#c271d2" fill-rule="evenodd" fill-opacity="1" stroke="#000000" stroke-opacity="1" stroke-width="1.6"/>
<circle clip-path="url(#clip711)" cx="536.275" cy="267.976" r="18" fill="#c271d2" fill-rule="evenodd" fill-opacity="1" stroke="#000000" stroke-opacity="1" stroke-width="1.6"/>
<circle clip-path="url(#clip711)" cx="403.221" cy="356.843" r="18" fill="#c271d2" fill-rule="evenodd" fill-opacity="1" stroke="#000000" stroke-opacity="1" stroke-width="1.6"/>
<circle clip-path="url(#clip711)" cx="329.468" cy="328.273" r="18" fill="#c271d2" fill-rule="evenodd" fill-opacity="1" stroke="#000000" stroke-opacity="1" stroke-width="1.6"/>
<circle clip-path="url(#clip711)" cx="453.402" cy="246.099" r="18" fill="#c271d2" fill-rule="evenodd" fill-opacity="1" stroke="#000000" stroke-opacity="1" stroke-width="1.6"/>
<circle clip-path="url(#clip711)" cx="425.585" cy="200.658" r="18" fill="#c271d2" fill-rule="evenodd" fill-opacity="1" stroke="#000000" stroke-opacity="1" stroke-width="1.6"/>
<circle clip-path="url(#clip711)" cx="486.332" cy="224.184" r="18" fill="#c271d2" fill-rule="evenodd" fill-opacity="1" stroke="#000000" stroke-opacity="1" stroke-width="1.6"/>
<circle clip-path="url(#clip711)" cx="407.362" cy="190.47" r="18" fill="#c271d2" fill-rule="evenodd" fill-opacity="1" stroke="#000000" stroke-opacity="1" stroke-width="1.6"/>
<circle clip-path="url(#clip711)" cx="318.611" cy="241.184" r="18" fill="#c271d2" fill-rule="evenodd" fill-opacity="1" stroke="#000000" stroke-opacity="1" stroke-width="1.6"/>
<circle clip-path="url(#clip711)" cx="417.414" cy="204.597" r="18" fill="#c271d2" fill-rule="evenodd" fill-opacity="1" stroke="#000000" stroke-opacity="1" stroke-width="1.6"/>
<circle clip-path="url(#clip711)" cx="649.365" cy="279.439" r="18" fill="#c271d2" fill-rule="evenodd" fill-opacity="1" stroke="#000000" stroke-opacity="1" stroke-width="1.6"/>
<circle clip-path="url(#clip711)" cx="656.85" cy="387.285" r="18" fill="#c271d2" fill-rule="evenodd" fill-opacity="1" stroke="#000000" stroke-opacity="1" stroke-width="1.6"/>
<circle clip-path="url(#clip711)" cx="484.793" cy="376.904" r="18" fill="#c271d2" fill-rule="evenodd" fill-opacity="1" stroke="#000000" stroke-opacity="1" stroke-width="1.6"/>
<circle clip-path="url(#clip711)" cx="401.409" cy="275.1" r="18" fill="#c271d2" fill-rule="evenodd" fill-opacity="1" stroke="#000000" stroke-opacity="1" stroke-width="1.6"/>
<circle clip-path="url(#clip711)" cx="385.555" cy="333.841" r="18" fill="#c271d2" fill-rule="evenodd" fill-opacity="1" stroke="#000000" stroke-opacity="1" stroke-width="1.6"/>
<circle clip-path="url(#clip711)" cx="466.711" cy="242.946" r="18" fill="#c271d2" fill-rule="evenodd" fill-opacity="1" stroke="#000000" stroke-opacity="1" stroke-width="1.6"/>
<circle clip-path="url(#clip711)" cx="625.773" cy="379.949" r="18" fill="#c271d2" fill-rule="evenodd" fill-opacity="1" stroke="#000000" stroke-opacity="1" stroke-width="1.6"/>
<circle clip-path="url(#clip711)" cx="368.26" cy="333.754" r="18" fill="#c271d2" fill-rule="evenodd" fill-opacity="1" stroke="#000000" stroke-opacity="1" stroke-width="1.6"/>
<circle clip-path="url(#clip711)" cx="370.681" cy="331.129" r="18" fill="#c271d2" fill-rule="evenodd" fill-opacity="1" stroke="#000000" stroke-opacity="1" stroke-width="1.6"/>
<circle clip-path="url(#clip711)" cx="409.638" cy="268.368" r="18" fill="#c271d2" fill-rule="evenodd" fill-opacity="1" stroke="#000000" stroke-opacity="1" stroke-width="1.6"/>
<path clip-path="url(#clip710)" d="M1967.75 425.996 L2281.41 425.996 L2281.41 166.796 L1967.75 166.796  Z" fill="#ffffff" fill-rule="evenodd" fill-opacity="1"/>
<polyline clip-path="url(#clip710)" style="stroke:#000000; stroke-linecap:round; stroke-linejoin:round; stroke-width:4; stroke-opacity:1; fill:none" points="1967.75,425.996 2281.41,425.996 2281.41,166.796 1967.75,166.796 1967.75,425.996 "/>
<circle clip-path="url(#clip710)" cx="2062.88" cy="218.636" r="21.9429" fill="#009af9" fill-rule="evenodd" fill-opacity="1" stroke="#000000" stroke-opacity="1" stroke-width="1.95048"/>
<path clip-path="url(#clip710)" d="M2162.68 219.411 L2162.68 232.073 L2170.18 232.073 Q2173.95 232.073 2175.76 230.522 Q2177.59 228.948 2177.59 225.731 Q2177.59 222.49 2175.76 220.962 Q2173.95 219.411 2170.18 219.411 L2162.68 219.411 M2162.68 205.198 L2162.68 215.615 L2169.6 215.615 Q2173.03 215.615 2174.69 214.342 Q2176.38 213.045 2176.38 210.407 Q2176.38 207.791 2174.69 206.495 Q2173.03 205.198 2169.6 205.198 L2162.68 205.198 M2158 201.356 L2169.95 201.356 Q2175.29 201.356 2178.19 203.578 Q2181.08 205.8 2181.08 209.897 Q2181.08 213.069 2179.6 214.944 Q2178.12 216.819 2175.25 217.282 Q2178.7 218.022 2180.59 220.383 Q2182.52 222.721 2182.52 226.24 Q2182.52 230.869 2179.37 233.393 Q2176.22 235.916 2170.41 235.916 L2158 235.916 L2158 201.356 Z" fill="#000000" fill-rule="nonzero" fill-opacity="1" /><path clip-path="url(#clip710)" d="M2190.53 201.356 L2195.2 201.356 L2195.2 231.981 L2212.03 231.981 L2212.03 235.916 L2190.53 235.916 L2190.53 201.356 Z" fill="#000000" fill-rule="nonzero" fill-opacity="1" /><circle clip-path="url(#clip710)" cx="2062.88" cy="270.476" r="21.9429" fill="#e26f46" fill-rule="evenodd" fill-opacity="1" stroke="#000000" stroke-opacity="1" stroke-width="1.95048"/>
<path clip-path="url(#clip710)" d="M2158 253.196 L2179.85 253.196 L2179.85 257.131 L2162.68 257.131 L2162.68 267.362 L2179.14 267.362 L2179.14 271.297 L2162.68 271.297 L2162.68 283.821 L2180.27 283.821 L2180.27 287.756 L2158 287.756 L2158 253.196 Z" fill="#000000" fill-rule="nonzero" fill-opacity="1" /><path clip-path="url(#clip710)" d="M2184.88 253.196 L2189.6 253.196 L2196.87 282.409 L2204.11 253.196 L2209.37 253.196 L2216.64 282.409 L2223.88 253.196 L2228.63 253.196 L2219.95 287.756 L2214.07 287.756 L2206.78 257.756 L2199.41 287.756 L2193.53 287.756 L2184.88 253.196 Z" fill="#000000" fill-rule="nonzero" fill-opacity="1" /><path clip-path="url(#clip710)" d="M2255.55 254.33 L2255.55 258.89 Q2252.89 257.617 2250.53 256.992 Q2248.16 256.367 2245.96 256.367 Q2242.15 256.367 2240.06 257.848 Q2238 259.33 2238 262.061 Q2238 264.353 2239.37 265.534 Q2240.76 266.691 2244.6 267.409 L2247.42 267.987 Q2252.65 268.983 2255.13 271.506 Q2257.63 274.006 2257.63 278.219 Q2257.63 283.242 2254.25 285.834 Q2250.9 288.427 2244.39 288.427 Q2241.94 288.427 2239.16 287.871 Q2236.4 287.316 2233.44 286.228 L2233.44 281.413 Q2236.29 283.01 2239.02 283.821 Q2241.75 284.631 2244.39 284.631 Q2248.4 284.631 2250.57 283.057 Q2252.75 281.483 2252.75 278.566 Q2252.75 276.02 2251.17 274.584 Q2249.62 273.149 2246.06 272.432 L2243.21 271.876 Q2237.98 270.835 2235.64 268.612 Q2233.3 266.39 2233.3 262.432 Q2233.3 257.848 2236.52 255.21 Q2239.76 252.571 2245.43 252.571 Q2247.86 252.571 2250.39 253.011 Q2252.91 253.45 2255.55 254.33 Z" fill="#000000" fill-rule="nonzero" fill-opacity="1" /><circle clip-path="url(#clip710)" cx="2062.88" cy="322.316" r="21.9429" fill="#3da44d" fill-rule="evenodd" fill-opacity="1" stroke="#000000" stroke-opacity="1" stroke-width="1.95048"/>
<path clip-path="url(#clip710)" d="M2158 305.036 L2164.3 305.036 L2179.62 333.948 L2179.62 305.036 L2184.16 305.036 L2184.16 339.596 L2177.86 339.596 L2162.54 310.684 L2162.54 339.596 L2158 339.596 L2158 305.036 Z" fill="#000000" fill-rule="nonzero" fill-opacity="1" /><path clip-path="url(#clip710)" d="M2198.14 323.091 L2198.14 335.753 L2205.64 335.753 Q2209.41 335.753 2211.22 334.202 Q2213.05 332.628 2213.05 329.411 Q2213.05 326.17 2211.22 324.642 Q2209.41 323.091 2205.64 323.091 L2198.14 323.091 M2198.14 308.878 L2198.14 319.295 L2205.06 319.295 Q2208.49 319.295 2210.15 318.022 Q2211.84 316.725 2211.84 314.087 Q2211.84 311.471 2210.15 310.175 Q2208.49 308.878 2205.06 308.878 L2198.14 308.878 M2193.47 305.036 L2205.41 305.036 Q2210.76 305.036 2213.65 307.258 Q2216.54 309.48 2216.54 313.577 Q2216.54 316.749 2215.06 318.624 Q2213.58 320.499 2210.71 320.962 Q2214.16 321.702 2216.06 324.063 Q2217.98 326.401 2217.98 329.92 Q2217.98 334.549 2214.83 337.073 Q2211.68 339.596 2205.87 339.596 L2193.47 339.596 L2193.47 305.036 Z" fill="#000000" fill-rule="nonzero" fill-opacity="1" /><circle clip-path="url(#clip710)" cx="2062.88" cy="374.156" r="21.9429" fill="#c271d2" fill-rule="evenodd" fill-opacity="1" stroke="#000000" stroke-opacity="1" stroke-width="1.95048"/>
<path clip-path="url(#clip710)" d="M2174.39 375.232 Q2175.9 375.741 2177.31 377.408 Q2178.74 379.075 2180.18 381.991 L2184.92 391.436 L2179.9 391.436 L2175.48 382.57 Q2173.77 379.098 2172.15 377.964 Q2170.55 376.829 2167.77 376.829 L2162.68 376.829 L2162.68 391.436 L2158 391.436 L2158 356.876 L2168.56 356.876 Q2174.48 356.876 2177.4 359.353 Q2180.32 361.829 2180.32 366.829 Q2180.32 370.093 2178.79 372.246 Q2177.28 374.399 2174.39 375.232 M2162.68 360.718 L2162.68 372.987 L2168.56 372.987 Q2171.94 372.987 2173.65 371.436 Q2175.39 369.862 2175.39 366.829 Q2175.39 363.797 2173.65 362.269 Q2171.94 360.718 2168.56 360.718 L2162.68 360.718 Z" fill="#000000" fill-rule="nonzero" fill-opacity="1" /><path clip-path="url(#clip710)" d="M2190.94 356.876 L2197.91 356.876 L2206.73 380.394 L2215.59 356.876 L2222.56 356.876 L2222.56 391.436 L2218 391.436 L2218 361.089 L2209.09 384.792 L2204.39 384.792 L2195.48 361.089 L2195.48 391.436 L2190.94 391.436 L2190.94 356.876 Z" fill="#000000" fill-rule="nonzero" fill-opacity="1" /><path clip-path="url(#clip710)" d="M2252.56 358.01 L2252.56 362.57 Q2249.9 361.297 2247.54 360.672 Q2245.18 360.047 2242.98 360.047 Q2239.16 360.047 2237.08 361.528 Q2235.02 363.01 2235.02 365.741 Q2235.02 368.033 2236.38 369.214 Q2237.77 370.371 2241.61 371.089 L2244.44 371.667 Q2249.67 372.663 2252.15 375.186 Q2254.65 377.686 2254.65 381.899 Q2254.65 386.922 2251.27 389.514 Q2247.91 392.107 2241.4 392.107 Q2238.95 392.107 2236.17 391.551 Q2233.42 390.996 2230.46 389.908 L2230.46 385.093 Q2233.3 386.69 2236.03 387.501 Q2238.77 388.311 2241.4 388.311 Q2245.41 388.311 2247.59 386.737 Q2249.76 385.163 2249.76 382.246 Q2249.76 379.7 2248.19 378.264 Q2246.64 376.829 2243.07 376.112 L2240.22 375.556 Q2234.99 374.515 2232.65 372.292 Q2230.32 370.07 2230.32 366.112 Q2230.32 361.528 2233.53 358.89 Q2236.78 356.251 2242.45 356.251 Q2244.88 356.251 2247.4 356.691 Q2249.92 357.13 2252.56 358.01 Z" fill="#000000" fill-rule="nonzero" fill-opacity="1" /></svg>
