<?xml version="1.0" encoding="utf-8"?>
<svg xmlns="http://www.w3.org/2000/svg" xmlns:xlink="http://www.w3.org/1999/xlink" width="600" height="400" viewBox="0 0 2400 1600">
<defs>
  <clipPath id="clip550">
    <rect x="0" y="0" width="2400" height="1600"/>
  </clipPath>
</defs>
<path clip-path="url(#clip550)" d="M0 1600 L2400 1600 L2400 0 L0 0  Z" fill="#ffffff" fill-rule="evenodd" fill-opacity="1"/>
<defs>
  <clipPath id="clip551">
    <rect x="242" y="123" width="2112" height="1301"/>
  </clipPath>
</defs>
<path clip-path="url(#clip550)" d="M242.135 1423.18 L2352.76 1423.18 L2352.76 123.472 L242.135 123.472  Z" fill="#ffffff" fill-rule="evenodd" fill-opacity="1"/>
<polyline clip-path="url(#clip551)" style="stroke:#000000; stroke-linecap:round; stroke-linejoin:round; stroke-width:2; stroke-opacity:0.1; fill:none" points="444.417,1423.18 444.417,123.472 "/>
<polyline clip-path="url(#clip551)" style="stroke:#000000; stroke-linecap:round; stroke-linejoin:round; stroke-width:2; stroke-opacity:0.1; fill:none" points="848.339,1423.18 848.339,123.472 "/>
<polyline clip-path="url(#clip551)" style="stroke:#000000; stroke-linecap:round; stroke-linejoin:round; stroke-width:2; stroke-opacity:0.1; fill:none" points="1252.26,1423.18 1252.26,123.472 "/>
<polyline clip-path="url(#clip551)" style="stroke:#000000; stroke-linecap:round; stroke-linejoin:round; stroke-width:2; stroke-opacity:0.1; fill:none" points="1656.18,1423.18 1656.18,123.472 "/>
<polyline clip-path="url(#clip551)" style="stroke:#000000; stroke-linecap:round; stroke-linejoin:round; stroke-width:2; stroke-opacity:0.1; fill:none" points="2060.11,1423.18 2060.11,123.472 "/>
<polyline clip-path="url(#clip551)" style="stroke:#000000; stroke-linecap:round; stroke-linejoin:round; stroke-width:2; stroke-opacity:0.1; fill:none" points="242.135,1386.25 2352.76,1386.25 "/>
<polyline clip-path="url(#clip551)" style="stroke:#000000; stroke-linecap:round; stroke-linejoin:round; stroke-width:2; stroke-opacity:0.1; fill:none" points="242.135,1043.88 2352.76,1043.88 "/>
<polyline clip-path="url(#clip551)" style="stroke:#000000; stroke-linecap:round; stroke-linejoin:round; stroke-width:2; stroke-opacity:0.1; fill:none" points="242.135,701.507 2352.76,701.507 "/>
<polyline clip-path="url(#clip551)" style="stroke:#000000; stroke-linecap:round; stroke-linejoin:round; stroke-width:2; stroke-opacity:0.1; fill:none" points="242.135,359.136 2352.76,359.136 "/>
<polyline clip-path="url(#clip550)" style="stroke:#000000; stroke-linecap:round; stroke-linejoin:round; stroke-width:4; stroke-opacity:1; fill:none" points="242.135,1423.18 2352.76,1423.18 "/>
<polyline clip-path="url(#clip550)" style="stroke:#000000; stroke-linecap:round; stroke-linejoin:round; stroke-width:4; stroke-opacity:1; fill:none" points="444.417,1423.18 444.417,1404.28 "/>
<polyline clip-path="url(#clip550)" style="stroke:#000000; stroke-linecap:round; stroke-linejoin:round; stroke-width:4; stroke-opacity:1; fill:none" points="848.339,1423.18 848.339,1404.28 "/>
<polyline clip-path="url(#clip550)" style="stroke:#000000; stroke-linecap:round; stroke-linejoin:round; stroke-width:4; stroke-opacity:1; fill:none" points="1252.26,1423.18 1252.26,1404.28 "/>
<polyline clip-path="url(#clip550)" style="stroke:#000000; stroke-linecap:round; stroke-linejoin:round; stroke-width:4; stroke-opacity:1; fill:none" points="1656.18,1423.18 1656.18,1404.28 "/>
<polyline clip-path="url(#clip550)" style="stroke:#000000; stroke-linecap:round; stroke-linejoin:round; stroke-width:4; stroke-opacity:1; fill:none" points="2060.11,1423.18 2060.11,1404.28 "/>
<path clip-path="url(#clip550)" d="M398.48 1468.75 L428.156 1468.75 L428.156 1472.69 L398.48 1472.69 L398.48 1468.75 Z" fill="#000000" fill-rule="nonzero" fill-opacity="1" /><path clip-path="url(#clip550)" d="M442.276 1481.64 L458.595 1481.64 L458.595 1485.58 L436.651 1485.58 L436.651 1481.64 Q439.313 1478.89 443.896 1474.26 Q448.503 1469.61 449.683 1468.27 Q451.929 1465.74 452.808 1464.01 Q453.711 1462.25 453.711 1460.56 Q453.711 1457.8 451.767 1456.07 Q449.845 1454.33 446.743 1454.33 Q444.544 1454.33 442.091 1455.09 Q439.66 1455.86 436.882 1457.41 L436.882 1452.69 Q439.706 1451.55 442.16 1450.97 Q444.614 1450.39 446.651 1450.39 Q452.021 1450.39 455.216 1453.08 Q458.41 1455.77 458.41 1460.26 Q458.41 1462.39 457.6 1464.31 Q456.813 1466.2 454.706 1468.8 Q454.128 1469.47 451.026 1472.69 Q447.924 1475.88 442.276 1481.64 Z" fill="#000000" fill-rule="nonzero" fill-opacity="1" /><path clip-path="url(#clip550)" d="M478.41 1454.1 Q474.799 1454.1 472.97 1457.66 Q471.165 1461.2 471.165 1468.33 Q471.165 1475.44 472.97 1479.01 Q474.799 1482.55 478.41 1482.55 Q482.044 1482.55 483.85 1479.01 Q485.678 1475.44 485.678 1468.33 Q485.678 1461.2 483.85 1457.66 Q482.044 1454.1 478.41 1454.1 M478.41 1450.39 Q484.22 1450.39 487.276 1455 Q490.354 1459.58 490.354 1468.33 Q490.354 1477.06 487.276 1481.67 Q484.22 1486.25 478.41 1486.25 Q472.6 1486.25 469.521 1481.67 Q466.466 1477.06 466.466 1468.33 Q466.466 1459.58 469.521 1455 Q472.6 1450.39 478.41 1450.39 Z" fill="#000000" fill-rule="nonzero" fill-opacity="1" /><path clip-path="url(#clip550)" d="M802.402 1468.75 L832.078 1468.75 L832.078 1472.69 L802.402 1472.69 L802.402 1468.75 Z" fill="#000000" fill-rule="nonzero" fill-opacity="1" /><path clip-path="url(#clip550)" d="M842.981 1481.64 L850.619 1481.64 L850.619 1455.28 L842.309 1456.95 L842.309 1452.69 L850.573 1451.02 L855.249 1451.02 L855.249 1481.64 L862.888 1481.64 L862.888 1485.58 L842.981 1485.58 L842.981 1481.64 Z" fill="#000000" fill-rule="nonzero" fill-opacity="1" /><path clip-path="url(#clip550)" d="M882.332 1454.1 Q878.721 1454.1 876.892 1457.66 Q875.087 1461.2 875.087 1468.33 Q875.087 1475.44 876.892 1479.01 Q878.721 1482.55 882.332 1482.55 Q885.967 1482.55 887.772 1479.01 Q889.601 1475.44 889.601 1468.33 Q889.601 1461.2 887.772 1457.66 Q885.967 1454.1 882.332 1454.1 M882.332 1450.39 Q888.142 1450.39 891.198 1455 Q894.277 1459.58 894.277 1468.33 Q894.277 1477.06 891.198 1481.67 Q888.142 1486.25 882.332 1486.25 Q876.522 1486.25 873.443 1481.67 Q870.388 1477.06 870.388 1468.33 Q870.388 1459.58 873.443 1455 Q876.522 1450.39 882.332 1450.39 Z" fill="#000000" fill-rule="nonzero" fill-opacity="1" /><path clip-path="url(#clip550)" d="M1252.26 1454.1 Q1248.65 1454.1 1246.82 1457.66 Q1245.02 1461.2 1245.02 1468.33 Q1245.02 1475.44 1246.82 1479.01 Q1248.65 1482.55 1252.26 1482.55 Q1255.9 1482.55 1257.7 1479.01 Q1259.53 1475.44 1259.53 1468.33 Q1259.53 1461.2 1257.7 1457.66 Q1255.9 1454.1 1252.26 1454.1 M1252.26 1450.39 Q1258.07 1450.39 1261.13 1455 Q1264.21 1459.58 1264.21 1468.33 Q1264.21 1477.06 1261.13 1481.67 Q1258.07 1486.25 1252.26 1486.25 Q1246.45 1486.25 1243.37 1481.67 Q1240.32 1477.06 1240.32 1468.33 Q1240.32 1459.58 1243.37 1455 Q1246.45 1450.39 1252.26 1450.39 Z" fill="#000000" fill-rule="nonzero" fill-opacity="1" /><path clip-path="url(#clip550)" d="M1630.87 1481.64 L1638.51 1481.64 L1638.51 1455.28 L1630.2 1456.95 L1630.2 1452.69 L1638.46 1451.02 L1643.14 1451.02 L1643.14 1481.64 L1650.78 1481.64 L1650.78 1485.58 L1630.87 1485.58 L1630.87 1481.64 Z" fill="#000000" fill-rule="nonzero" fill-opacity="1" /><path clip-path="url(#clip550)" d="M1670.22 1454.1 Q1666.61 1454.1 1664.78 1457.66 Q1662.98 1461.2 1662.98 1468.33 Q1662.98 1475.44 1664.78 1479.01 Q1666.61 1482.55 1670.22 1482.55 Q1673.86 1482.55 1675.66 1479.01 Q1677.49 1475.44 1677.49 1468.33 Q1677.49 1461.2 1675.66 1457.66 Q1673.86 1454.1 1670.22 1454.1 M1670.22 1450.39 Q1676.03 1450.39 1679.09 1455 Q1682.17 1459.58 1682.17 1468.33 Q1682.17 1477.06 1679.09 1481.67 Q1676.03 1486.25 1670.22 1486.25 Q1664.41 1486.25 1661.33 1481.67 Q1658.28 1477.06 1658.28 1468.33 Q1658.28 1459.58 1661.33 1455 Q1664.41 1450.39 1670.22 1450.39 Z" fill="#000000" fill-rule="nonzero" fill-opacity="1" /><path clip-path="url(#clip550)" d="M2038.88 1481.64 L2055.2 1481.64 L2055.2 1485.58 L2033.25 1485.58 L2033.25 1481.64 Q2035.92 1478.89 2040.5 1474.26 Q2045.11 1469.61 2046.29 1468.27 Q2048.53 1465.74 2049.41 1464.01 Q2050.31 1462.25 2050.31 1460.56 Q2050.31 1457.8 2048.37 1456.07 Q2046.45 1454.33 2043.35 1454.33 Q2041.15 1454.33 2038.69 1455.09 Q2036.26 1455.86 2033.49 1457.41 L2033.49 1452.69 Q2036.31 1451.55 2038.76 1450.97 Q2041.22 1450.39 2043.25 1450.39 Q2048.62 1450.39 2051.82 1453.08 Q2055.01 1455.77 2055.01 1460.26 Q2055.01 1462.39 2054.2 1464.31 Q2053.42 1466.2 2051.31 1468.8 Q2050.73 1469.47 2047.63 1472.69 Q2044.53 1475.88 2038.88 1481.64 Z" fill="#000000" fill-rule="nonzero" fill-opacity="1" /><path clip-path="url(#clip550)" d="M2075.01 1454.1 Q2071.4 1454.1 2069.57 1457.66 Q2067.77 1461.2 2067.77 1468.33 Q2067.77 1475.44 2069.57 1479.01 Q2071.4 1482.55 2075.01 1482.55 Q2078.65 1482.55 2080.45 1479.01 Q2082.28 1475.44 2082.28 1468.33 Q2082.28 1461.2 2080.45 1457.66 Q2078.65 1454.1 2075.01 1454.1 M2075.01 1450.39 Q2080.82 1450.39 2083.88 1455 Q2086.96 1459.58 2086.96 1468.33 Q2086.96 1477.06 2083.88 1481.67 Q2080.82 1486.25 2075.01 1486.25 Q2069.2 1486.25 2066.12 1481.67 Q2063.07 1477.06 2063.07 1468.33 Q2063.07 1459.58 2066.12 1455 Q2069.2 1450.39 2075.01 1450.39 Z" fill="#000000" fill-rule="nonzero" fill-opacity="1" /><path clip-path="url(#clip550)" d="M978.921 1525.81 L978.921 1543.66 L987.006 1543.66 Q991.494 1543.66 993.944 1541.34 Q996.395 1539.02 996.395 1534.72 Q996.395 1530.45 993.944 1528.13 Q991.494 1525.81 987.006 1525.81 L978.921 1525.81 M972.492 1520.52 L987.006 1520.52 Q994.995 1520.52 999.069 1524.15 Q1003.17 1527.75 1003.17 1534.72 Q1003.17 1541.75 999.069 1545.35 Q994.995 1548.95 987.006 1548.95 L978.921 1548.95 L978.921 1568.04 L972.492 1568.04 L972.492 1520.52 Z" fill="#000000" fill-rule="nonzero" fill-opacity="1" /><path clip-path="url(#clip550)" d="M1011.8 1520.52 L1018.23 1520.52 L1018.23 1562.63 L1041.37 1562.63 L1041.37 1568.04 L1011.8 1568.04 L1011.8 1520.52 Z" fill="#000000" fill-rule="nonzero" fill-opacity="1" /><path clip-path="url(#clip550)" d="M1076.6 1522.08 L1076.6 1528.35 Q1072.94 1526.6 1069.7 1525.74 Q1066.45 1524.88 1063.43 1524.88 Q1058.17 1524.88 1055.31 1526.92 Q1052.48 1528.96 1052.48 1532.71 Q1052.48 1535.87 1054.35 1537.49 Q1056.26 1539.08 1061.55 1540.07 L1065.43 1540.86 Q1072.62 1542.23 1076.03 1545.7 Q1079.47 1549.14 1079.47 1554.93 Q1079.47 1561.84 1074.82 1565.4 Q1070.21 1568.97 1061.26 1568.97 Q1057.89 1568.97 1054.07 1568.2 Q1050.28 1567.44 1046.21 1565.94 L1046.21 1559.32 Q1050.12 1561.52 1053.88 1562.63 Q1057.63 1563.75 1061.26 1563.75 Q1066.77 1563.75 1069.76 1561.58 Q1072.75 1559.42 1072.75 1555.41 Q1072.75 1551.91 1070.59 1549.93 Q1068.45 1547.96 1063.55 1546.97 L1059.64 1546.21 Q1052.45 1544.78 1049.23 1541.72 Q1046.02 1538.67 1046.02 1533.22 Q1046.02 1526.92 1050.44 1523.29 Q1054.9 1519.66 1062.69 1519.66 Q1066.04 1519.66 1069.51 1520.27 Q1072.97 1520.87 1076.6 1522.08 Z" fill="#000000" fill-rule="nonzero" fill-opacity="1" /><path clip-path="url(#clip550)" d="M1095.92 1525.81 L1095.92 1562.76 L1103.69 1562.76 Q1113.52 1562.76 1118.08 1558.3 Q1122.66 1553.85 1122.66 1544.24 Q1122.66 1534.69 1118.08 1530.26 Q1113.52 1525.81 1103.69 1525.81 L1095.92 1525.81 M1089.49 1520.52 L1102.7 1520.52 Q1116.52 1520.52 1122.98 1526.28 Q1129.44 1532.01 1129.44 1544.24 Q1129.44 1556.52 1122.95 1562.28 Q1116.45 1568.04 1102.7 1568.04 L1089.49 1568.04 L1089.49 1520.52 Z" fill="#000000" fill-rule="nonzero" fill-opacity="1" /><path clip-path="url(#clip550)" d="M1154.42 1526.86 L1145.7 1550.51 L1163.18 1550.51 L1154.42 1526.86 M1150.8 1520.52 L1158.08 1520.52 L1176.19 1568.04 L1169.51 1568.04 L1165.18 1555.85 L1143.76 1555.85 L1139.43 1568.04 L1132.65 1568.04 L1150.8 1520.52 Z" fill="#000000" fill-rule="nonzero" fill-opacity="1" /><path clip-path="url(#clip550)" d="M1229.25 1533.76 L1229.25 1539.24 Q1226.77 1537.87 1224.26 1537.2 Q1221.77 1536.5 1219.23 1536.5 Q1213.53 1536.5 1210.38 1540.13 Q1207.23 1543.73 1207.23 1550.25 Q1207.23 1556.78 1210.38 1560.4 Q1213.53 1564 1219.23 1564 Q1221.77 1564 1224.26 1563.33 Q1226.77 1562.63 1229.25 1561.26 L1229.25 1566.68 Q1226.8 1567.82 1224.16 1568.39 Q1221.55 1568.97 1218.59 1568.97 Q1210.54 1568.97 1205.8 1563.91 Q1201.05 1558.85 1201.05 1550.25 Q1201.05 1541.53 1205.83 1536.53 Q1210.63 1531.54 1218.97 1531.54 Q1221.68 1531.54 1224.26 1532.11 Q1226.83 1532.65 1229.25 1533.76 Z" fill="#000000" fill-rule="nonzero" fill-opacity="1" /><path clip-path="url(#clip550)" d="M1253.25 1536.5 Q1248.54 1536.5 1245.8 1540.19 Q1243.07 1543.85 1243.07 1550.25 Q1243.07 1556.65 1245.77 1560.34 Q1248.51 1564 1253.25 1564 Q1257.93 1564 1260.67 1560.31 Q1263.4 1556.62 1263.4 1550.25 Q1263.4 1543.92 1260.67 1540.23 Q1257.93 1536.5 1253.25 1536.5 M1253.25 1531.54 Q1260.89 1531.54 1265.25 1536.5 Q1269.61 1541.47 1269.61 1550.25 Q1269.61 1559 1265.25 1564 Q1260.89 1568.97 1253.25 1568.97 Q1245.58 1568.97 1241.22 1564 Q1236.89 1559 1236.89 1550.25 Q1236.89 1541.47 1241.22 1536.5 Q1245.58 1531.54 1253.25 1531.54 Z" fill="#000000" fill-rule="nonzero" fill-opacity="1" /><path clip-path="url(#clip550)" d="M1307.07 1539.24 Q1309.27 1535.29 1312.33 1533.41 Q1315.38 1531.54 1319.52 1531.54 Q1325.09 1531.54 1328.11 1535.45 Q1331.14 1539.33 1331.14 1546.53 L1331.14 1568.04 L1325.25 1568.04 L1325.25 1546.72 Q1325.25 1541.59 1323.43 1539.11 Q1321.62 1536.63 1317.9 1536.63 Q1313.34 1536.63 1310.7 1539.65 Q1308.06 1542.68 1308.06 1547.9 L1308.06 1568.04 L1302.17 1568.04 L1302.17 1546.72 Q1302.17 1541.56 1300.36 1539.11 Q1298.54 1536.63 1294.76 1536.63 Q1290.27 1536.63 1287.63 1539.68 Q1284.98 1542.71 1284.98 1547.9 L1284.98 1568.04 L1279.1 1568.04 L1279.1 1532.4 L1284.98 1532.4 L1284.98 1537.93 Q1286.99 1534.66 1289.79 1533.1 Q1292.59 1531.54 1296.44 1531.54 Q1300.33 1531.54 1303.03 1533.51 Q1305.77 1535.48 1307.07 1539.24 Z" fill="#000000" fill-rule="nonzero" fill-opacity="1" /><path clip-path="url(#clip550)" d="M1348.48 1562.7 L1348.48 1581.6 L1342.59 1581.6 L1342.59 1532.4 L1348.48 1532.4 L1348.48 1537.81 Q1350.33 1534.62 1353.13 1533.1 Q1355.96 1531.54 1359.88 1531.54 Q1366.37 1531.54 1370.41 1536.69 Q1374.49 1541.85 1374.49 1550.25 Q1374.49 1558.65 1370.41 1563.81 Q1366.37 1568.97 1359.88 1568.97 Q1355.96 1568.97 1353.13 1567.44 Q1350.33 1565.88 1348.48 1562.7 M1368.41 1550.25 Q1368.41 1543.79 1365.73 1540.13 Q1363.09 1536.44 1358.44 1536.44 Q1353.8 1536.44 1351.12 1540.13 Q1348.48 1543.79 1348.48 1550.25 Q1348.48 1556.71 1351.12 1560.4 Q1353.8 1564.07 1358.44 1564.07 Q1363.09 1564.07 1365.73 1560.4 Q1368.41 1556.71 1368.41 1550.25 Z" fill="#000000" fill-rule="nonzero" fill-opacity="1" /><path clip-path="url(#clip550)" d="M1398.01 1536.5 Q1393.3 1536.5 1390.56 1540.19 Q1387.82 1543.85 1387.82 1550.25 Q1387.82 1556.65 1390.53 1560.34 Q1393.27 1564 1398.01 1564 Q1402.69 1564 1405.42 1560.31 Q1408.16 1556.62 1408.16 1550.25 Q1408.16 1543.92 1405.42 1540.23 Q1402.69 1536.5 1398.01 1536.5 M1398.01 1531.54 Q1405.65 1531.54 1410.01 1536.5 Q1414.37 1541.47 1414.37 1550.25 Q1414.37 1559 1410.01 1564 Q1405.65 1568.97 1398.01 1568.97 Q1390.34 1568.97 1385.98 1564 Q1381.65 1559 1381.65 1550.25 Q1381.65 1541.47 1385.98 1536.5 Q1390.34 1531.54 1398.01 1531.54 Z" fill="#000000" fill-rule="nonzero" fill-opacity="1" /><path clip-path="url(#clip550)" d="M1453.71 1546.53 L1453.71 1568.04 L1447.85 1568.04 L1447.85 1546.72 Q1447.85 1541.66 1445.88 1539.14 Q1443.9 1536.63 1439.96 1536.63 Q1435.22 1536.63 1432.48 1539.65 Q1429.74 1542.68 1429.74 1547.9 L1429.74 1568.04 L1423.85 1568.04 L1423.85 1532.4 L1429.74 1532.4 L1429.74 1537.93 Q1431.84 1534.72 1434.67 1533.13 Q1437.54 1531.54 1441.26 1531.54 Q1447.41 1531.54 1450.56 1535.36 Q1453.71 1539.14 1453.71 1546.53 Z" fill="#000000" fill-rule="nonzero" fill-opacity="1" /><path clip-path="url(#clip550)" d="M1495.88 1548.76 L1495.88 1551.62 L1468.95 1551.62 Q1469.34 1557.67 1472.58 1560.85 Q1475.86 1564 1481.68 1564 Q1485.06 1564 1488.21 1563.17 Q1491.39 1562.35 1494.51 1560.69 L1494.51 1566.23 Q1491.36 1567.57 1488.05 1568.27 Q1484.74 1568.97 1481.33 1568.97 Q1472.8 1568.97 1467.81 1564 Q1462.84 1559.04 1462.84 1550.57 Q1462.84 1541.82 1467.55 1536.69 Q1472.3 1531.54 1480.32 1531.54 Q1487.51 1531.54 1491.68 1536.18 Q1495.88 1540.8 1495.88 1548.76 M1490.02 1547.04 Q1489.96 1542.23 1487.32 1539.37 Q1484.71 1536.5 1480.38 1536.5 Q1475.48 1536.5 1472.52 1539.27 Q1469.59 1542.04 1469.14 1547.07 L1490.02 1547.04 Z" fill="#000000" fill-rule="nonzero" fill-opacity="1" /><path clip-path="url(#clip550)" d="M1535.12 1546.53 L1535.12 1568.04 L1529.27 1568.04 L1529.27 1546.72 Q1529.27 1541.66 1527.3 1539.14 Q1525.32 1536.63 1521.37 1536.63 Q1516.63 1536.63 1513.9 1539.65 Q1511.16 1542.68 1511.16 1547.9 L1511.16 1568.04 L1505.27 1568.04 L1505.27 1532.4 L1511.16 1532.4 L1511.16 1537.93 Q1513.26 1534.72 1516.09 1533.13 Q1518.96 1531.54 1522.68 1531.54 Q1528.82 1531.54 1531.97 1535.36 Q1535.12 1539.14 1535.12 1546.53 Z" fill="#000000" fill-rule="nonzero" fill-opacity="1" /><path clip-path="url(#clip550)" d="M1552.6 1522.27 L1552.6 1532.4 L1564.66 1532.4 L1564.66 1536.95 L1552.6 1536.95 L1552.6 1556.3 Q1552.6 1560.66 1553.78 1561.9 Q1554.99 1563.14 1558.65 1563.14 L1564.66 1563.14 L1564.66 1568.04 L1558.65 1568.04 Q1551.87 1568.04 1549.29 1565.53 Q1546.71 1562.98 1546.71 1556.3 L1546.71 1536.95 L1542.41 1536.95 L1542.41 1532.4 L1546.71 1532.4 L1546.71 1522.27 L1552.6 1522.27 Z" fill="#000000" fill-rule="nonzero" fill-opacity="1" /><path clip-path="url(#clip550)" d="M1595.03 1562.63 L1605.53 1562.63 L1605.53 1526.38 L1594.1 1528.67 L1594.1 1522.82 L1605.47 1520.52 L1611.9 1520.52 L1611.9 1562.63 L1622.4 1562.63 L1622.4 1568.04 L1595.03 1568.04 L1595.03 1562.63 Z" fill="#000000" fill-rule="nonzero" fill-opacity="1" /><polyline clip-path="url(#clip550)" style="stroke:#000000; stroke-linecap:round; stroke-linejoin:round; stroke-width:4; stroke-opacity:1; fill:none" points="242.135,1423.18 242.135,123.472 "/>
<polyline clip-path="url(#clip550)" style="stroke:#000000; stroke-linecap:round; stroke-linejoin:round; stroke-width:4; stroke-opacity:1; fill:none" points="242.135,1386.25 261.032,1386.25 "/>
<polyline clip-path="url(#clip550)" style="stroke:#000000; stroke-linecap:round; stroke-linejoin:round; stroke-width:4; stroke-opacity:1; fill:none" points="242.135,1043.88 261.032,1043.88 "/>
<polyline clip-path="url(#clip550)" style="stroke:#000000; stroke-linecap:round; stroke-linejoin:round; stroke-width:4; stroke-opacity:1; fill:none" points="242.135,701.507 261.032,701.507 "/>
<polyline clip-path="url(#clip550)" style="stroke:#000000; stroke-linecap:round; stroke-linejoin:round; stroke-width:4; stroke-opacity:1; fill:none" points="242.135,359.136 261.032,359.136 "/>
<path clip-path="url(#clip550)" d="M114.26 1386.7 L143.936 1386.7 L143.936 1390.64 L114.26 1390.64 L114.26 1386.7 Z" fill="#000000" fill-rule="nonzero" fill-opacity="1" /><path clip-path="url(#clip550)" d="M158.056 1399.59 L174.376 1399.59 L174.376 1403.53 L152.431 1403.53 L152.431 1399.59 Q155.093 1396.84 159.677 1392.21 Q164.283 1387.56 165.464 1386.21 Q167.709 1383.69 168.589 1381.96 Q169.491 1380.2 169.491 1378.51 Q169.491 1375.75 167.547 1374.02 Q165.626 1372.28 162.524 1372.28 Q160.325 1372.28 157.871 1373.04 Q155.44 1373.81 152.663 1375.36 L152.663 1370.64 Q155.487 1369.5 157.94 1368.92 Q160.394 1368.34 162.431 1368.34 Q167.802 1368.34 170.996 1371.03 Q174.19 1373.71 174.19 1378.21 Q174.19 1380.33 173.38 1382.26 Q172.593 1384.15 170.487 1386.75 Q169.908 1387.42 166.806 1390.64 Q163.704 1393.83 158.056 1399.59 Z" fill="#000000" fill-rule="nonzero" fill-opacity="1" /><path clip-path="url(#clip550)" d="M194.19 1372.05 Q190.579 1372.05 188.75 1375.61 Q186.945 1379.15 186.945 1386.28 Q186.945 1393.39 188.75 1396.96 Q190.579 1400.5 194.19 1400.5 Q197.825 1400.5 199.63 1396.96 Q201.459 1393.39 201.459 1386.28 Q201.459 1379.15 199.63 1375.61 Q197.825 1372.05 194.19 1372.05 M194.19 1368.34 Q200 1368.34 203.056 1372.95 Q206.135 1377.53 206.135 1386.28 Q206.135 1395.01 203.056 1399.62 Q200 1404.2 194.19 1404.2 Q188.38 1404.2 185.301 1399.62 Q182.246 1395.01 182.246 1386.28 Q182.246 1377.53 185.301 1372.95 Q188.38 1368.34 194.19 1368.34 Z" fill="#000000" fill-rule="nonzero" fill-opacity="1" /><path clip-path="url(#clip550)" d="M114.26 1044.33 L143.936 1044.33 L143.936 1048.26 L114.26 1048.26 L114.26 1044.33 Z" fill="#000000" fill-rule="nonzero" fill-opacity="1" /><path clip-path="url(#clip550)" d="M154.839 1057.22 L162.477 1057.22 L162.477 1030.86 L154.167 1032.52 L154.167 1028.26 L162.431 1026.6 L167.107 1026.6 L167.107 1057.22 L174.746 1057.22 L174.746 1061.16 L154.839 1061.16 L154.839 1057.22 Z" fill="#000000" fill-rule="nonzero" fill-opacity="1" /><path clip-path="url(#clip550)" d="M194.19 1029.68 Q190.579 1029.68 188.75 1033.24 Q186.945 1036.78 186.945 1043.91 Q186.945 1051.02 188.75 1054.58 Q190.579 1058.13 194.19 1058.13 Q197.825 1058.13 199.63 1054.58 Q201.459 1051.02 201.459 1043.91 Q201.459 1036.78 199.63 1033.24 Q197.825 1029.68 194.19 1029.68 M194.19 1025.97 Q200 1025.97 203.056 1030.58 Q206.135 1035.16 206.135 1043.91 Q206.135 1052.64 203.056 1057.25 Q200 1061.83 194.19 1061.83 Q188.38 1061.83 185.301 1057.25 Q182.246 1052.64 182.246 1043.91 Q182.246 1035.16 185.301 1030.58 Q188.38 1025.97 194.19 1025.97 Z" fill="#000000" fill-rule="nonzero" fill-opacity="1" /><path clip-path="url(#clip550)" d="M194.19 687.306 Q190.579 687.306 188.75 690.87 Q186.945 694.412 186.945 701.542 Q186.945 708.648 188.75 712.213 Q190.579 715.755 194.19 715.755 Q197.825 715.755 199.63 712.213 Q201.459 708.648 201.459 701.542 Q201.459 694.412 199.63 690.87 Q197.825 687.306 194.19 687.306 M194.19 683.602 Q200 683.602 203.056 688.208 Q206.135 692.792 206.135 701.542 Q206.135 710.269 203.056 714.875 Q200 719.458 194.19 719.458 Q188.38 719.458 185.301 714.875 Q182.246 710.269 182.246 701.542 Q182.246 692.792 185.301 688.208 Q188.38 683.602 194.19 683.602 Z" fill="#000000" fill-rule="nonzero" fill-opacity="1" /><path clip-path="url(#clip550)" d="M154.839 372.481 L162.477 372.481 L162.477 346.115 L154.167 347.782 L154.167 343.523 L162.431 341.856 L167.107 341.856 L167.107 372.481 L174.746 372.481 L174.746 376.416 L154.839 376.416 L154.839 372.481 Z" fill="#000000" fill-rule="nonzero" fill-opacity="1" /><path clip-path="url(#clip550)" d="M194.19 344.935 Q190.579 344.935 188.75 348.499 Q186.945 352.041 186.945 359.171 Q186.945 366.277 188.75 369.842 Q190.579 373.384 194.19 373.384 Q197.825 373.384 199.63 369.842 Q201.459 366.277 201.459 359.171 Q201.459 352.041 199.63 348.499 Q197.825 344.935 194.19 344.935 M194.19 341.231 Q200 341.231 203.056 345.837 Q206.135 350.421 206.135 359.171 Q206.135 367.897 203.056 372.504 Q200 377.087 194.19 377.087 Q188.38 377.087 185.301 372.504 Q182.246 367.897 182.246 359.171 Q182.246 350.421 185.301 345.837 Q188.38 341.231 194.19 341.231 Z" fill="#000000" fill-rule="nonzero" fill-opacity="1" /><path clip-path="url(#clip550)" d="M21.7677 1091.6 L39.6235 1091.6 L39.6235 1083.51 Q39.6235 1079.02 37.3 1076.57 Q34.9765 1074.12 30.6797 1074.12 Q26.4147 1074.12 24.0912 1076.57 Q21.7677 1079.02 21.7677 1083.51 L21.7677 1091.6 M16.4842 1098.02 L16.4842 1083.51 Q16.4842 1075.52 20.1126 1071.45 Q23.7092 1067.34 30.6797 1067.34 Q37.7138 1067.34 41.3104 1071.45 Q44.907 1075.52 44.907 1083.51 L44.907 1091.6 L64.0042 1091.6 L64.0042 1098.02 L16.4842 1098.02 Z" fill="#000000" fill-rule="nonzero" fill-opacity="1" /><path clip-path="url(#clip550)" d="M16.4842 1058.72 L16.4842 1052.29 L58.5933 1052.29 L58.5933 1029.15 L64.0042 1029.15 L64.0042 1058.72 L16.4842 1058.72 Z" fill="#000000" fill-rule="nonzero" fill-opacity="1" /><path clip-path="url(#clip550)" d="M18.0438 993.914 L24.314 993.914 Q22.5634 997.574 21.704 1000.82 Q20.8447 1004.07 20.8447 1007.09 Q20.8447 1012.34 22.8817 1015.21 Q24.9187 1018.04 28.6745 1018.04 Q31.8255 1018.04 33.4488 1016.16 Q35.0402 1014.25 36.0269 1008.97 L36.8226 1005.09 Q38.1912 997.892 41.6605 994.487 Q45.098 991.049 50.8908 991.049 Q57.7976 991.049 61.3624 995.696 Q64.9272 1000.31 64.9272 1009.25 Q64.9272 1012.63 64.1633 1016.45 Q63.3994 1020.24 61.9035 1024.31 L55.2831 1024.31 Q57.4793 1020.39 58.5933 1016.64 Q59.7073 1012.88 59.7073 1009.25 Q59.7073 1003.75 57.543 1000.76 Q55.3786 997.765 51.3682 997.765 Q47.8671 997.765 45.8937 999.929 Q43.9204 1002.06 42.9337 1006.96 L42.1698 1010.88 Q40.7375 1018.07 37.682 1021.29 Q34.6264 1024.5 29.1837 1024.5 Q22.8817 1024.5 19.2532 1020.08 Q15.6248 1015.62 15.6248 1007.82 Q15.6248 1004.48 16.2295 1001.01 Q16.8343 997.542 18.0438 993.914 Z" fill="#000000" fill-rule="nonzero" fill-opacity="1" /><path clip-path="url(#clip550)" d="M21.7677 974.594 L58.7206 974.594 L58.7206 966.828 Q58.7206 956.993 54.2646 952.441 Q49.8086 947.858 40.1964 947.858 Q30.6479 947.858 26.2237 952.441 Q21.7677 956.993 21.7677 966.828 L21.7677 974.594 M16.4842 981.023 L16.4842 967.814 Q16.4842 954.001 22.2451 947.539 Q27.9743 941.078 40.1964 941.078 Q52.4822 941.078 58.2432 947.571 Q64.0042 954.064 64.0042 967.814 L64.0042 981.023 L16.4842 981.023 Z" fill="#000000" fill-rule="nonzero" fill-opacity="1" /><path clip-path="url(#clip550)" d="M22.818 916.093 L46.4666 924.814 L46.4666 907.34 L22.818 916.093 M16.4842 919.721 L16.4842 912.433 L64.0042 894.322 L64.0042 901.006 L51.8138 905.335 L51.8138 926.755 L64.0042 931.084 L64.0042 937.864 L16.4842 919.721 Z" fill="#000000" fill-rule="nonzero" fill-opacity="1" /><path clip-path="url(#clip550)" d="M29.7248 841.264 L35.1993 841.264 Q33.8307 843.747 33.1623 846.261 Q32.4621 848.744 32.4621 851.29 Q32.4621 856.987 36.0905 860.138 Q39.6872 863.289 46.212 863.289 Q52.7369 863.289 56.3653 860.138 Q59.9619 856.987 59.9619 851.29 Q59.9619 848.744 59.2935 846.261 Q58.5933 843.747 57.2247 841.264 L62.6355 841.264 Q63.7814 843.715 64.3543 846.357 Q64.9272 848.966 64.9272 851.927 Q64.9272 859.979 59.8664 864.722 Q54.8057 869.464 46.212 869.464 Q37.491 869.464 32.4939 864.69 Q27.4968 859.884 27.4968 851.545 Q27.4968 848.839 28.0697 846.261 Q28.6108 843.683 29.7248 841.264 Z" fill="#000000" fill-rule="nonzero" fill-opacity="1" /><path clip-path="url(#clip550)" d="M32.4621 817.265 Q32.4621 821.976 36.1542 824.713 Q39.8145 827.45 46.212 827.45 Q52.6095 827.45 56.3017 824.745 Q59.9619 822.008 59.9619 817.265 Q59.9619 812.586 56.2698 809.849 Q52.5777 807.112 46.212 807.112 Q39.8781 807.112 36.186 809.849 Q32.4621 812.586 32.4621 817.265 M27.4968 817.265 Q27.4968 809.626 32.4621 805.266 Q37.4273 800.905 46.212 800.905 Q54.9649 800.905 59.9619 805.266 Q64.9272 809.626 64.9272 817.265 Q64.9272 824.936 59.9619 829.296 Q54.9649 833.625 46.212 833.625 Q37.4273 833.625 32.4621 829.296 Q27.4968 824.936 27.4968 817.265 Z" fill="#000000" fill-rule="nonzero" fill-opacity="1" /><path clip-path="url(#clip550)" d="M35.1993 763.443 Q31.2526 761.247 29.3747 758.192 Q27.4968 755.136 27.4968 750.998 Q27.4968 745.428 31.4117 742.405 Q35.2948 739.381 42.4881 739.381 L64.0042 739.381 L64.0042 745.269 L42.679 745.269 Q37.5546 745.269 35.072 747.083 Q32.5894 748.898 32.5894 752.622 Q32.5894 757.173 35.6131 759.815 Q38.6368 762.457 43.8567 762.457 L64.0042 762.457 L64.0042 768.345 L42.679 768.345 Q37.5228 768.345 35.072 770.159 Q32.5894 771.973 32.5894 775.761 Q32.5894 780.249 35.6449 782.89 Q38.6686 785.532 43.8567 785.532 L64.0042 785.532 L64.0042 791.421 L28.3562 791.421 L28.3562 785.532 L33.8944 785.532 Q30.616 783.527 29.0564 780.726 Q27.4968 777.925 27.4968 774.074 Q27.4968 770.191 29.4702 767.485 Q31.4436 764.748 35.1993 763.443 Z" fill="#000000" fill-rule="nonzero" fill-opacity="1" /><path clip-path="url(#clip550)" d="M58.657 722.034 L77.5631 722.034 L77.5631 727.923 L28.3562 727.923 L28.3562 722.034 L33.7671 722.034 Q30.5842 720.188 29.0564 717.387 Q27.4968 714.555 27.4968 710.64 Q27.4968 704.147 32.6531 700.104 Q37.8093 696.03 46.212 696.03 Q54.6147 696.03 59.771 700.104 Q64.9272 704.147 64.9272 710.64 Q64.9272 714.555 63.3994 717.387 Q61.8398 720.188 58.657 722.034 M46.212 702.11 Q39.7508 702.11 36.0905 704.783 Q32.3984 707.425 32.3984 712.072 Q32.3984 716.719 36.0905 719.393 Q39.7508 722.034 46.212 722.034 Q52.6732 722.034 56.3653 719.393 Q60.0256 716.719 60.0256 712.072 Q60.0256 707.425 56.3653 704.783 Q52.6732 702.11 46.212 702.11 Z" fill="#000000" fill-rule="nonzero" fill-opacity="1" /><path clip-path="url(#clip550)" d="M32.4621 672.509 Q32.4621 677.22 36.1542 679.957 Q39.8145 682.694 46.212 682.694 Q52.6095 682.694 56.3017 679.989 Q59.9619 677.252 59.9619 672.509 Q59.9619 667.83 56.2698 665.093 Q52.5777 662.356 46.212 662.356 Q39.8781 662.356 36.186 665.093 Q32.4621 667.83 32.4621 672.509 M27.4968 672.509 Q27.4968 664.87 32.4621 660.51 Q37.4273 656.149 46.212 656.149 Q54.9649 656.149 59.9619 660.51 Q64.9272 664.87 64.9272 672.509 Q64.9272 680.18 59.9619 684.54 Q54.9649 688.869 46.212 688.869 Q37.4273 688.869 32.4621 684.54 Q27.4968 680.18 27.4968 672.509 Z" fill="#000000" fill-rule="nonzero" fill-opacity="1" /><path clip-path="url(#clip550)" d="M42.4881 616.809 L64.0042 616.809 L64.0042 622.666 L42.679 622.666 Q37.6183 622.666 35.1038 624.639 Q32.5894 626.612 32.5894 630.559 Q32.5894 635.302 35.6131 638.039 Q38.6368 640.776 43.8567 640.776 L64.0042 640.776 L64.0042 646.664 L28.3562 646.664 L28.3562 640.776 L33.8944 640.776 Q30.6797 638.675 29.0883 635.843 Q27.4968 632.978 27.4968 629.254 Q27.4968 623.111 31.3163 619.96 Q35.1038 616.809 42.4881 616.809 Z" fill="#000000" fill-rule="nonzero" fill-opacity="1" /><path clip-path="url(#clip550)" d="M44.7161 574.636 L47.5806 574.636 L47.5806 601.563 Q53.6281 601.181 56.8109 597.935 Q59.9619 594.657 59.9619 588.832 Q59.9619 585.458 59.1344 582.307 Q58.3069 579.124 56.6518 576.005 L62.1899 576.005 Q63.5267 579.156 64.227 582.466 Q64.9272 585.776 64.9272 589.182 Q64.9272 597.712 59.9619 602.709 Q54.9967 607.674 46.5303 607.674 Q37.7774 607.674 32.6531 602.964 Q27.4968 598.221 27.4968 590.201 Q27.4968 583.007 32.1438 578.838 Q36.7589 574.636 44.7161 574.636 M42.9973 580.493 Q38.1912 580.556 35.3266 583.198 Q32.4621 585.808 32.4621 590.137 Q32.4621 595.038 35.2312 597.999 Q38.0002 600.927 43.0292 601.372 L42.9973 580.493 Z" fill="#000000" fill-rule="nonzero" fill-opacity="1" /><path clip-path="url(#clip550)" d="M42.4881 535.392 L64.0042 535.392 L64.0042 541.248 L42.679 541.248 Q37.6183 541.248 35.1038 543.222 Q32.5894 545.195 32.5894 549.142 Q32.5894 553.884 35.6131 556.621 Q38.6368 559.359 43.8567 559.359 L64.0042 559.359 L64.0042 565.247 L28.3562 565.247 L28.3562 559.359 L33.8944 559.359 Q30.6797 557.258 29.0883 554.425 Q27.4968 551.561 27.4968 547.837 Q27.4968 541.694 31.3163 538.543 Q35.1038 535.392 42.4881 535.392 Z" fill="#000000" fill-rule="nonzero" fill-opacity="1" /><path clip-path="url(#clip550)" d="M18.2347 517.918 L28.3562 517.918 L28.3562 505.855 L32.9077 505.855 L32.9077 517.918 L52.2594 517.918 Q56.6199 517.918 57.8613 516.74 Q59.1026 515.531 59.1026 511.87 L59.1026 505.855 L64.0042 505.855 L64.0042 511.87 Q64.0042 518.65 61.4897 521.228 Q58.9434 523.806 52.2594 523.806 L32.9077 523.806 L32.9077 528.103 L28.3562 528.103 L28.3562 523.806 L18.2347 523.806 L18.2347 517.918 Z" fill="#000000" fill-rule="nonzero" fill-opacity="1" /><path clip-path="url(#clip550)" d="M58.5933 471.066 L58.5933 448.627 L64.0042 448.627 L64.0042 478.801 L58.5933 478.801 Q54.8057 475.14 48.44 468.838 Q42.0425 462.504 40.1964 460.881 Q36.7271 457.794 34.34 456.584 Q31.921 455.343 29.5975 455.343 Q25.8099 455.343 23.4228 458.017 Q21.0356 460.658 21.0356 464.923 Q21.0356 467.947 22.086 471.321 Q23.1363 474.663 25.2688 478.482 L18.7758 478.482 Q17.2162 474.599 16.4205 471.225 Q15.6248 467.852 15.6248 465.051 Q15.6248 457.667 19.3169 453.274 Q23.009 448.882 29.1837 448.882 Q32.112 448.882 34.7537 449.996 Q37.3637 451.078 40.9285 453.974 Q41.8515 454.77 46.2757 459.035 Q50.668 463.3 58.5933 471.066 Z" fill="#000000" fill-rule="nonzero" fill-opacity="1" /><path clip-path="url(#clip550)" d="M566.642 14.0809 L566.642 22.0612 Q561.983 19.8332 557.851 18.7395 Q553.72 17.6457 549.871 17.6457 Q543.187 17.6457 539.541 20.2383 Q535.936 22.8309 535.936 27.611 Q535.936 31.6214 538.326 33.6873 Q540.757 35.7128 547.481 36.9686 L552.423 37.9813 Q561.578 39.7232 565.913 44.1387 Q570.288 48.5136 570.288 55.8863 Q570.288 64.6767 564.373 69.2137 Q558.5 73.7508 547.117 73.7508 Q542.823 73.7508 537.962 72.7785 Q533.141 71.8063 527.956 69.9024 L527.956 61.4765 Q532.938 64.2716 537.718 65.6895 Q542.499 67.1073 547.117 67.1073 Q554.125 67.1073 557.932 64.3527 Q561.74 61.598 561.74 56.4939 Q561.74 52.0379 558.986 49.5264 Q556.272 47.0148 550.033 45.759 L545.051 44.7868 Q535.896 42.9639 531.804 39.075 Q527.713 35.1862 527.713 28.2591 Q527.713 20.2383 533.343 15.6203 Q539.015 11.0023 548.939 11.0023 Q553.193 11.0023 557.608 11.7719 Q562.024 12.5416 566.642 14.0809 Z" fill="#000000" fill-rule="nonzero" fill-opacity="1" /><path clip-path="url(#clip550)" d="M611.728 44.2197 Q614.362 45.1109 616.833 48.0275 Q619.344 50.9442 621.856 56.0483 L630.16 72.576 L621.37 72.576 L613.632 57.061 Q610.635 50.9847 607.799 48.9997 Q605.004 47.0148 600.143 47.0148 L591.231 47.0148 L591.231 72.576 L583.048 72.576 L583.048 12.096 L601.52 12.096 Q611.891 12.096 616.995 16.4305 Q622.099 20.7649 622.099 29.5149 Q622.099 35.2267 619.425 38.994 Q616.792 42.7613 611.728 44.2197 M591.231 18.8205 L591.231 40.2903 L601.52 40.2903 Q607.435 40.2903 610.432 37.5762 Q613.47 34.8216 613.47 29.5149 Q613.47 24.2082 610.432 21.5346 Q607.435 18.8205 601.52 18.8205 L591.231 18.8205 Z" fill="#000000" fill-rule="nonzero" fill-opacity="1" /><path clip-path="url(#clip550)" d="M648.875 43.6931 L648.875 65.8515 L662 65.8515 Q668.603 65.8515 671.763 63.1374 Q674.963 60.3828 674.963 54.752 Q674.963 49.0808 671.763 46.4072 Q668.603 43.6931 662 43.6931 L648.875 43.6931 M648.875 18.8205 L648.875 37.0496 L660.987 37.0496 Q666.983 37.0496 669.899 34.8216 Q672.857 32.5531 672.857 27.935 Q672.857 23.3575 669.899 21.089 Q666.983 18.8205 660.987 18.8205 L648.875 18.8205 M640.692 12.096 L661.595 12.096 Q670.953 12.096 676.016 15.9849 Q681.08 19.8737 681.08 27.0438 Q681.08 32.5936 678.487 35.8748 Q675.895 39.156 670.872 39.9662 Q676.908 41.2625 680.229 45.3944 Q683.592 49.4858 683.592 55.6432 Q683.592 63.745 678.082 68.1605 Q672.573 72.576 662.405 72.576 L640.692 72.576 L640.692 12.096 Z" fill="#000000" fill-rule="nonzero" fill-opacity="1" /><path clip-path="url(#clip550)" d="M741.438 16.7545 L741.438 25.383 Q737.307 21.5346 732.607 19.6307 Q727.949 17.7268 722.683 17.7268 Q712.312 17.7268 706.803 24.0867 Q701.294 30.4061 701.294 42.3968 Q701.294 54.3469 706.803 60.7069 Q712.312 67.0263 722.683 67.0263 Q727.949 67.0263 732.607 65.1223 Q737.307 63.2184 741.438 59.3701 L741.438 67.9175 Q737.144 70.8341 732.324 72.2924 Q727.544 73.7508 722.197 73.7508 Q708.464 73.7508 700.565 65.3654 Q692.666 56.9395 692.666 42.3968 Q692.666 27.8135 700.565 19.4281 Q708.464 11.0023 722.197 11.0023 Q727.625 11.0023 732.405 12.4606 Q737.225 13.8784 741.438 16.7545 Z" fill="#000000" fill-rule="nonzero" fill-opacity="1" /><path clip-path="url(#clip550)" d="M745.692 12.096 L796.855 12.096 L796.855 18.9825 L775.385 18.9825 L775.385 72.576 L767.162 72.576 L767.162 18.9825 L745.692 18.9825 L745.692 12.096 Z" fill="#000000" fill-rule="nonzero" fill-opacity="1" /><path clip-path="url(#clip550)" d="M859.725 28.5427 L859.725 35.5912 Q856.565 33.9709 853.162 33.1607 Q849.76 32.3505 846.114 32.3505 Q840.564 32.3505 837.769 34.0519 Q835.014 35.7533 835.014 39.156 Q835.014 41.7486 836.999 43.2475 Q838.984 44.7058 844.98 46.0426 L847.532 46.6097 Q855.471 48.3111 858.793 51.4303 Q862.155 54.509 862.155 60.0587 Q862.155 66.3781 857.132 70.0644 Q852.15 73.7508 843.4 73.7508 Q839.754 73.7508 835.784 73.0216 Q831.855 72.3329 827.48 70.9151 L827.48 63.2184 Q831.612 65.3654 835.622 66.4591 Q839.632 67.5124 843.562 67.5124 Q848.828 67.5124 851.664 65.73 Q854.499 63.9071 854.499 60.6258 Q854.499 57.5877 852.433 55.9673 Q850.408 54.3469 843.481 52.8481 L840.888 52.2405 Q833.961 50.7821 830.882 47.7845 Q827.804 44.7463 827.804 39.4801 Q827.804 33.0797 832.341 29.5959 Q836.878 26.1121 845.223 26.1121 Q849.355 26.1121 853 26.7198 Q856.646 27.3274 859.725 28.5427 Z" fill="#000000" fill-rule="nonzero" fill-opacity="1" /><path clip-path="url(#clip550)" d="M894.644 49.7694 Q885.61 49.7694 882.126 51.8354 Q878.643 53.9013 878.643 58.8839 Q878.643 62.8538 881.235 65.2034 Q883.868 67.5124 888.365 67.5124 Q894.563 67.5124 898.289 63.1374 Q902.057 58.7219 902.057 51.4303 L902.057 49.7694 L894.644 49.7694 M909.51 46.6907 L909.51 72.576 L902.057 72.576 L902.057 65.6895 Q899.505 69.8214 895.697 71.8063 Q891.889 73.7508 886.38 73.7508 Q879.412 73.7508 875.28 69.8619 Q871.189 65.9325 871.189 59.3701 Q871.189 51.7138 876.293 47.825 Q881.438 43.9361 891.605 43.9361 L902.057 43.9361 L902.057 43.2069 Q902.057 38.0623 898.654 35.2672 Q895.292 32.4315 889.175 32.4315 Q885.286 32.4315 881.6 33.3632 Q877.913 34.295 874.511 36.1584 L874.511 29.2718 Q878.602 27.692 882.45 26.9223 Q886.299 26.1121 889.945 26.1121 Q899.788 26.1121 904.649 31.2163 Q909.51 36.3204 909.51 46.6907 Z" fill="#000000" fill-rule="nonzero" fill-opacity="1" /><path clip-path="url(#clip550)" d="M960.187 35.9153 Q962.982 30.8922 966.871 28.5022 Q970.76 26.1121 976.026 26.1121 Q983.115 26.1121 986.964 31.0947 Q990.812 36.0368 990.812 45.1919 L990.812 72.576 L983.318 72.576 L983.318 45.4349 Q983.318 38.913 981.009 35.7533 Q978.7 32.5936 973.96 32.5936 Q968.168 32.5936 964.805 36.4419 Q961.443 40.2903 961.443 46.9338 L961.443 72.576 L953.949 72.576 L953.949 45.4349 Q953.949 38.8725 951.64 35.7533 Q949.331 32.5936 944.51 32.5936 Q938.798 32.5936 935.436 36.4824 Q932.074 40.3308 932.074 46.9338 L932.074 72.576 L924.58 72.576 L924.58 27.2059 L932.074 27.2059 L932.074 34.2544 Q934.626 30.082 938.191 28.0971 Q941.756 26.1121 946.657 26.1121 Q951.599 26.1121 955.043 28.6237 Q958.526 31.1352 960.187 35.9153 Z" fill="#000000" fill-rule="nonzero" fill-opacity="1" /><path clip-path="url(#clip550)" d="M1012.89 65.7705 L1012.89 89.8329 L1005.4 89.8329 L1005.4 27.2059 L1012.89 27.2059 L1012.89 34.0924 Q1015.24 30.0415 1018.8 28.0971 Q1022.41 26.1121 1027.39 26.1121 Q1035.66 26.1121 1040.8 32.6746 Q1045.99 39.2371 1045.99 49.9314 Q1045.99 60.6258 1040.8 67.1883 Q1035.66 73.7508 1027.39 73.7508 Q1022.41 73.7508 1018.8 71.8063 Q1015.24 69.8214 1012.89 65.7705 M1038.25 49.9314 Q1038.25 41.7081 1034.85 37.0496 Q1031.48 32.3505 1025.57 32.3505 Q1019.65 32.3505 1016.25 37.0496 Q1012.89 41.7081 1012.89 49.9314 Q1012.89 58.1548 1016.25 62.8538 Q1019.65 67.5124 1025.57 67.5124 Q1031.48 67.5124 1034.85 62.8538 Q1038.25 58.1548 1038.25 49.9314 Z" fill="#000000" fill-rule="nonzero" fill-opacity="1" /><path clip-path="url(#clip550)" d="M1058.34 9.54393 L1065.79 9.54393 L1065.79 72.576 L1058.34 72.576 L1058.34 9.54393 Z" fill="#000000" fill-rule="nonzero" fill-opacity="1" /><path clip-path="url(#clip550)" d="M1120.2 48.0275 L1120.2 51.6733 L1085.93 51.6733 Q1086.41 59.3701 1090.55 63.421 Q1094.72 67.4314 1102.13 67.4314 Q1106.42 67.4314 1110.44 66.3781 Q1114.49 65.3249 1118.46 63.2184 L1118.46 70.267 Q1114.45 71.9684 1110.23 72.8596 Q1106.02 73.7508 1101.69 73.7508 Q1090.83 73.7508 1084.47 67.4314 Q1078.15 61.1119 1078.15 50.3365 Q1078.15 39.1965 1084.14 32.6746 Q1090.18 26.1121 1100.39 26.1121 Q1109.54 26.1121 1114.85 32.0264 Q1120.2 37.9003 1120.2 48.0275 M1112.74 45.84 Q1112.66 39.7232 1109.3 36.0774 Q1105.98 32.4315 1100.47 32.4315 Q1094.23 32.4315 1090.46 35.9558 Q1086.74 39.4801 1086.17 45.8805 L1112.74 45.84 Z" fill="#000000" fill-rule="nonzero" fill-opacity="1" /><path clip-path="url(#clip550)" d="M1161.36 28.5427 L1161.36 35.5912 Q1158.2 33.9709 1154.79 33.1607 Q1151.39 32.3505 1147.74 32.3505 Q1142.19 32.3505 1139.4 34.0519 Q1136.64 35.7533 1136.64 39.156 Q1136.64 41.7486 1138.63 43.2475 Q1140.61 44.7058 1146.61 46.0426 L1149.16 46.6097 Q1157.1 48.3111 1160.42 51.4303 Q1163.79 54.509 1163.79 60.0587 Q1163.79 66.3781 1158.76 70.0644 Q1153.78 73.7508 1145.03 73.7508 Q1141.38 73.7508 1137.41 73.0216 Q1133.48 72.3329 1129.11 70.9151 L1129.11 63.2184 Q1133.24 65.3654 1137.25 66.4591 Q1141.26 67.5124 1145.19 67.5124 Q1150.46 67.5124 1153.29 65.73 Q1156.13 63.9071 1156.13 60.6258 Q1156.13 57.5877 1154.06 55.9673 Q1152.04 54.3469 1145.11 52.8481 L1142.52 52.2405 Q1135.59 50.7821 1132.51 47.7845 Q1129.43 44.7463 1129.43 39.4801 Q1129.43 33.0797 1133.97 29.5959 Q1138.51 26.1121 1146.85 26.1121 Q1150.98 26.1121 1154.63 26.7198 Q1158.28 27.3274 1161.36 28.5427 Z" fill="#000000" fill-rule="nonzero" fill-opacity="1" /><path clip-path="url(#clip550)" d="M1177.56 62.2867 L1186.11 62.2867 L1186.11 72.576 L1177.56 72.576 L1177.56 62.2867 M1177.56 29.6769 L1186.11 29.6769 L1186.11 39.9662 L1177.56 39.9662 L1177.56 29.6769 Z" fill="#000000" fill-rule="nonzero" fill-opacity="1" /><path clip-path="url(#clip550)" d="M1262.63 28.9478 L1262.63 35.9153 Q1259.47 34.1734 1256.27 33.3227 Q1253.11 32.4315 1249.87 32.4315 Q1242.62 32.4315 1238.61 37.0496 Q1234.6 41.6271 1234.6 49.9314 Q1234.6 58.2358 1238.61 62.8538 Q1242.62 67.4314 1249.87 67.4314 Q1253.11 67.4314 1256.27 66.5807 Q1259.47 65.6895 1262.63 63.9476 L1262.63 70.8341 Q1259.51 72.2924 1256.15 73.0216 Q1252.82 73.7508 1249.06 73.7508 Q1238.81 73.7508 1232.77 67.3098 Q1226.74 60.8689 1226.74 49.9314 Q1226.74 38.832 1232.81 32.472 Q1238.93 26.1121 1249.54 26.1121 Q1252.99 26.1121 1256.27 26.8413 Q1259.55 27.5299 1262.63 28.9478 Z" fill="#000000" fill-rule="nonzero" fill-opacity="1" /><path clip-path="url(#clip550)" d="M1293.17 32.4315 Q1287.18 32.4315 1283.69 37.1306 Q1280.21 41.7891 1280.21 49.9314 Q1280.21 58.0738 1283.65 62.7728 Q1287.14 67.4314 1293.17 67.4314 Q1299.13 67.4314 1302.61 62.7323 Q1306.09 58.0333 1306.09 49.9314 Q1306.09 41.8701 1302.61 37.1711 Q1299.13 32.4315 1293.17 32.4315 M1293.17 26.1121 Q1302.89 26.1121 1308.44 32.4315 Q1313.99 38.7509 1313.99 49.9314 Q1313.99 61.0714 1308.44 67.4314 Q1302.89 73.7508 1293.17 73.7508 Q1283.41 73.7508 1277.86 67.4314 Q1272.35 61.0714 1272.35 49.9314 Q1272.35 38.7509 1277.86 32.4315 Q1283.41 26.1121 1293.17 26.1121 Z" fill="#000000" fill-rule="nonzero" fill-opacity="1" /><path clip-path="url(#clip550)" d="M1361.67 35.9153 Q1364.47 30.8922 1368.36 28.5022 Q1372.25 26.1121 1377.51 26.1121 Q1384.6 26.1121 1388.45 31.0947 Q1392.3 36.0368 1392.3 45.1919 L1392.3 72.576 L1384.8 72.576 L1384.8 45.4349 Q1384.8 38.913 1382.49 35.7533 Q1380.19 32.5936 1375.45 32.5936 Q1369.65 32.5936 1366.29 36.4419 Q1362.93 40.2903 1362.93 46.9338 L1362.93 72.576 L1355.43 72.576 L1355.43 45.4349 Q1355.43 38.8725 1353.12 35.7533 Q1350.82 32.5936 1346 32.5936 Q1340.28 32.5936 1336.92 36.4824 Q1333.56 40.3308 1333.56 46.9338 L1333.56 72.576 L1326.06 72.576 L1326.06 27.2059 L1333.56 27.2059 L1333.56 34.2544 Q1336.11 30.082 1339.68 28.0971 Q1343.24 26.1121 1348.14 26.1121 Q1353.08 26.1121 1356.53 28.6237 Q1360.01 31.1352 1361.67 35.9153 Z" fill="#000000" fill-rule="nonzero" fill-opacity="1" /><path clip-path="url(#clip550)" d="M1414.37 65.7705 L1414.37 89.8329 L1406.88 89.8329 L1406.88 27.2059 L1414.37 27.2059 L1414.37 34.0924 Q1416.72 30.0415 1420.29 28.0971 Q1423.89 26.1121 1428.88 26.1121 Q1437.14 26.1121 1442.29 32.6746 Q1447.47 39.2371 1447.47 49.9314 Q1447.47 60.6258 1442.29 67.1883 Q1437.14 73.7508 1428.88 73.7508 Q1423.89 73.7508 1420.29 71.8063 Q1416.72 69.8214 1414.37 65.7705 M1439.73 49.9314 Q1439.73 41.7081 1436.33 37.0496 Q1432.97 32.3505 1427.05 32.3505 Q1421.14 32.3505 1417.74 37.0496 Q1414.37 41.7081 1414.37 49.9314 Q1414.37 58.1548 1417.74 62.8538 Q1421.14 67.5124 1427.05 67.5124 Q1432.97 67.5124 1436.33 62.8538 Q1439.73 58.1548 1439.73 49.9314 Z" fill="#000000" fill-rule="nonzero" fill-opacity="1" /><path clip-path="url(#clip550)" d="M1477.41 32.4315 Q1471.41 32.4315 1467.93 37.1306 Q1464.44 41.7891 1464.44 49.9314 Q1464.44 58.0738 1467.89 62.7728 Q1471.37 67.4314 1477.41 67.4314 Q1483.36 67.4314 1486.85 62.7323 Q1490.33 58.0333 1490.33 49.9314 Q1490.33 41.8701 1486.85 37.1711 Q1483.36 32.4315 1477.41 32.4315 M1477.41 26.1121 Q1487.13 26.1121 1492.68 32.4315 Q1498.23 38.7509 1498.23 49.9314 Q1498.23 61.0714 1492.68 67.4314 Q1487.13 73.7508 1477.41 73.7508 Q1467.64 73.7508 1462.09 67.4314 Q1456.59 61.0714 1456.59 49.9314 Q1456.59 38.7509 1462.09 32.4315 Q1467.64 26.1121 1477.41 26.1121 Z" fill="#000000" fill-rule="nonzero" fill-opacity="1" /><path clip-path="url(#clip550)" d="M1548.3 45.1919 L1548.3 72.576 L1540.84 72.576 L1540.84 45.4349 Q1540.84 38.994 1538.33 35.7938 Q1535.82 32.5936 1530.8 32.5936 Q1524.76 32.5936 1521.28 36.4419 Q1517.79 40.2903 1517.79 46.9338 L1517.79 72.576 L1510.3 72.576 L1510.3 27.2059 L1517.79 27.2059 L1517.79 34.2544 Q1520.47 30.163 1524.07 28.1376 Q1527.72 26.1121 1532.46 26.1121 Q1540.28 26.1121 1544.29 30.9732 Q1548.3 35.7938 1548.3 45.1919 Z" fill="#000000" fill-rule="nonzero" fill-opacity="1" /><path clip-path="url(#clip550)" d="M1601.97 48.0275 L1601.97 51.6733 L1567.7 51.6733 Q1568.19 59.3701 1572.32 63.421 Q1576.49 67.4314 1583.9 67.4314 Q1588.2 67.4314 1592.21 66.3781 Q1596.26 65.3249 1600.23 63.2184 L1600.23 70.267 Q1596.22 71.9684 1592.01 72.8596 Q1587.79 73.7508 1583.46 73.7508 Q1572.6 73.7508 1566.24 67.4314 Q1559.92 61.1119 1559.92 50.3365 Q1559.92 39.1965 1565.92 32.6746 Q1571.95 26.1121 1582.16 26.1121 Q1591.32 26.1121 1596.62 32.0264 Q1601.97 37.9003 1601.97 48.0275 M1594.52 45.84 Q1594.44 39.7232 1591.08 36.0774 Q1587.75 32.4315 1582.24 32.4315 Q1576.01 32.4315 1572.24 35.9558 Q1568.51 39.4801 1567.94 45.8805 L1594.52 45.84 Z" fill="#000000" fill-rule="nonzero" fill-opacity="1" /><path clip-path="url(#clip550)" d="M1651.92 45.1919 L1651.92 72.576 L1644.47 72.576 L1644.47 45.4349 Q1644.47 38.994 1641.95 35.7938 Q1639.44 32.5936 1634.42 32.5936 Q1628.38 32.5936 1624.9 36.4419 Q1621.42 40.2903 1621.42 46.9338 L1621.42 72.576 L1613.92 72.576 L1613.92 27.2059 L1621.42 27.2059 L1621.42 34.2544 Q1624.09 30.163 1627.7 28.1376 Q1631.34 26.1121 1636.08 26.1121 Q1643.9 26.1121 1647.91 30.9732 Q1651.92 35.7938 1651.92 45.1919 Z" fill="#000000" fill-rule="nonzero" fill-opacity="1" /><path clip-path="url(#clip550)" d="M1674.16 14.324 L1674.16 27.2059 L1689.51 27.2059 L1689.51 32.9987 L1674.16 32.9987 L1674.16 57.6282 Q1674.16 63.1779 1675.66 64.7578 Q1677.2 66.3376 1681.86 66.3376 L1689.51 66.3376 L1689.51 72.576 L1681.86 72.576 Q1673.23 72.576 1669.95 69.3758 Q1666.66 66.1351 1666.66 57.6282 L1666.66 32.9987 L1661.2 32.9987 L1661.2 27.2059 L1666.66 27.2059 L1666.66 14.324 L1674.16 14.324 Z" fill="#000000" fill-rule="nonzero" fill-opacity="1" /><path clip-path="url(#clip550)" d="M1728.24 28.5427 L1728.24 35.5912 Q1725.08 33.9709 1721.68 33.1607 Q1718.27 32.3505 1714.63 32.3505 Q1709.08 32.3505 1706.28 34.0519 Q1703.53 35.7533 1703.53 39.156 Q1703.53 41.7486 1705.51 43.2475 Q1707.5 44.7058 1713.49 46.0426 L1716.05 46.6097 Q1723.99 48.3111 1727.31 51.4303 Q1730.67 54.509 1730.67 60.0587 Q1730.67 66.3781 1725.65 70.0644 Q1720.66 73.7508 1711.91 73.7508 Q1708.27 73.7508 1704.3 73.0216 Q1700.37 72.3329 1695.99 70.9151 L1695.99 63.2184 Q1700.13 65.3654 1704.14 66.4591 Q1708.15 67.5124 1712.08 67.5124 Q1717.34 67.5124 1720.18 65.73 Q1723.01 63.9071 1723.01 60.6258 Q1723.01 57.5877 1720.95 55.9673 Q1718.92 54.3469 1711.99 52.8481 L1709.4 52.2405 Q1702.47 50.7821 1699.4 47.7845 Q1696.32 44.7463 1696.32 39.4801 Q1696.32 33.0797 1700.85 29.5959 Q1705.39 26.1121 1713.74 26.1121 Q1717.87 26.1121 1721.51 26.7198 Q1725.16 27.3274 1728.24 28.5427 Z" fill="#000000" fill-rule="nonzero" fill-opacity="1" /><path clip-path="url(#clip550)" d="M1771.38 65.6895 L1784.75 65.6895 L1784.75 19.5497 L1770.21 22.4663 L1770.21 15.0127 L1784.67 12.096 L1792.85 12.096 L1792.85 65.6895 L1806.22 65.6895 L1806.22 72.576 L1771.38 72.576 L1771.38 65.6895 Z" fill="#000000" fill-rule="nonzero" fill-opacity="1" /><path clip-path="url(#clip550)" d="M1868.68 49.7694 Q1859.65 49.7694 1856.17 51.8354 Q1852.68 53.9013 1852.68 58.8839 Q1852.68 62.8538 1855.28 65.2034 Q1857.91 67.5124 1862.4 67.5124 Q1868.6 67.5124 1872.33 63.1374 Q1876.1 58.7219 1876.1 51.4303 L1876.1 49.7694 L1868.68 49.7694 M1883.55 46.6907 L1883.55 72.576 L1876.1 72.576 L1876.1 65.6895 Q1873.54 69.8214 1869.74 71.8063 Q1865.93 73.7508 1860.42 73.7508 Q1853.45 73.7508 1849.32 69.8619 Q1845.23 65.9325 1845.23 59.3701 Q1845.23 51.7138 1850.33 47.825 Q1855.48 43.9361 1865.65 43.9361 L1876.1 43.9361 L1876.1 43.2069 Q1876.1 38.0623 1872.69 35.2672 Q1869.33 32.4315 1863.21 32.4315 Q1859.33 32.4315 1855.64 33.3632 Q1851.95 34.295 1848.55 36.1584 L1848.55 29.2718 Q1852.64 27.692 1856.49 26.9223 Q1860.34 26.1121 1863.98 26.1121 Q1873.83 26.1121 1878.69 31.2163 Q1883.55 36.3204 1883.55 46.6907 Z" fill="#000000" fill-rule="nonzero" fill-opacity="1" /><path clip-path="url(#clip550)" d="M1936.62 45.1919 L1936.62 72.576 L1929.16 72.576 L1929.16 45.4349 Q1929.16 38.994 1926.65 35.7938 Q1924.14 32.5936 1919.12 32.5936 Q1913.08 32.5936 1909.6 36.4419 Q1906.11 40.2903 1906.11 46.9338 L1906.11 72.576 L1898.62 72.576 L1898.62 27.2059 L1906.11 27.2059 L1906.11 34.2544 Q1908.79 30.163 1912.39 28.1376 Q1916.04 26.1121 1920.78 26.1121 Q1928.6 26.1121 1932.61 30.9732 Q1936.62 35.7938 1936.62 45.1919 Z" fill="#000000" fill-rule="nonzero" fill-opacity="1" /><path clip-path="url(#clip550)" d="M1981.34 34.0924 L1981.34 9.54393 L1988.79 9.54393 L1988.79 72.576 L1981.34 72.576 L1981.34 65.7705 Q1978.99 69.8214 1975.38 71.8063 Q1971.82 73.7508 1966.8 73.7508 Q1958.57 73.7508 1953.39 67.1883 Q1948.24 60.6258 1948.24 49.9314 Q1948.24 39.2371 1953.39 32.6746 Q1958.57 26.1121 1966.8 26.1121 Q1971.82 26.1121 1975.38 28.0971 Q1978.99 30.0415 1981.34 34.0924 M1955.94 49.9314 Q1955.94 58.1548 1959.3 62.8538 Q1962.71 67.5124 1968.62 67.5124 Q1974.53 67.5124 1977.94 62.8538 Q1981.34 58.1548 1981.34 49.9314 Q1981.34 41.7081 1977.94 37.0496 Q1974.53 32.3505 1968.62 32.3505 Q1962.71 32.3505 1959.3 37.0496 Q1955.94 41.7081 1955.94 49.9314 Z" fill="#000000" fill-rule="nonzero" fill-opacity="1" /><path clip-path="url(#clip550)" d="M2038.62 65.6895 L2067.18 65.6895 L2067.18 72.576 L2028.78 72.576 L2028.78 65.6895 Q2033.43 60.8689 2041.45 52.7671 Q2049.52 44.6248 2051.58 42.2752 Q2055.51 37.8598 2057.05 34.8216 Q2058.63 31.7429 2058.63 28.7857 Q2058.63 23.9651 2055.23 20.927 Q2051.87 17.8888 2046.44 17.8888 Q2042.59 17.8888 2038.29 19.2256 Q2034.04 20.5624 2029.18 23.2765 L2029.18 15.0127 Q2034.12 13.0277 2038.42 12.015 Q2042.71 11.0023 2046.28 11.0023 Q2055.67 11.0023 2061.26 15.7013 Q2066.85 20.4004 2066.85 28.2591 Q2066.85 31.9859 2065.44 35.3482 Q2064.06 38.6699 2060.37 43.2069 Q2059.36 44.3817 2053.93 50.0125 Q2048.5 55.6027 2038.62 65.6895 Z" fill="#000000" fill-rule="nonzero" fill-opacity="1" /><circle clip-path="url(#clip551)" cx="2186.45" cy="506.461" r="18" fill="#009af9" fill-rule="evenodd" fill-opacity="1" stroke="#000000" stroke-opacity="1" stroke-width="1.6"/>
<circle clip-path="url(#clip551)" cx="2206.19" cy="405.189" r="18" fill="#009af9" fill-rule="evenodd" fill-opacity="1" stroke="#000000" stroke-opacity="1" stroke-width="1.6"/>
<circle clip-path="url(#clip551)" cx="2291.26" cy="327.428" r="18" fill="#009af9" fill-rule="evenodd" fill-opacity="1" stroke="#000000" stroke-opacity="1" stroke-width="1.6"/>
<circle clip-path="url(#clip551)" cx="2256.41" cy="309.098" r="18" fill="#009af9" fill-rule="evenodd" fill-opacity="1" stroke="#000000" stroke-opacity="1" stroke-width="1.6"/>
<circle clip-path="url(#clip551)" cx="2293.02" cy="349.86" r="18" fill="#009af9" fill-rule="evenodd" fill-opacity="1" stroke="#000000" stroke-opacity="1" stroke-width="1.6"/>
<circle clip-path="url(#clip551)" cx="1893.54" cy="337.155" r="18" fill="#009af9" fill-rule="evenodd" fill-opacity="1" stroke="#000000" stroke-opacity="1" stroke-width="1.6"/>
<circle clip-path="url(#clip551)" cx="1962.71" cy="266.792" r="18" fill="#009af9" fill-rule="evenodd" fill-opacity="1" stroke="#000000" stroke-opacity="1" stroke-width="1.6"/>
<circle clip-path="url(#clip551)" cx="2148.4" cy="366.24" r="18" fill="#009af9" fill-rule="evenodd" fill-opacity="1" stroke="#000000" stroke-opacity="1" stroke-width="1.6"/>
<circle clip-path="url(#clip551)" cx="976.047" cy="255.137" r="18" fill="#e26f46" fill-rule="evenodd" fill-opacity="1" stroke="#000000" stroke-opacity="1" stroke-width="1.6"/>
<circle clip-path="url(#clip551)" cx="913.744" cy="267.322" r="18" fill="#e26f46" fill-rule="evenodd" fill-opacity="1" stroke="#000000" stroke-opacity="1" stroke-width="1.6"/>
<circle clip-path="url(#clip551)" cx="452.663" cy="307.836" r="18" fill="#e26f46" fill-rule="evenodd" fill-opacity="1" stroke="#000000" stroke-opacity="1" stroke-width="1.6"/>
<circle clip-path="url(#clip551)" cx="1044.52" cy="407.589" r="18" fill="#e26f46" fill-rule="evenodd" fill-opacity="1" stroke="#000000" stroke-opacity="1" stroke-width="1.6"/>
<circle clip-path="url(#clip551)" cx="495.143" cy="412.34" r="18" fill="#e26f46" fill-rule="evenodd" fill-opacity="1" stroke="#000000" stroke-opacity="1" stroke-width="1.6"/>
<circle clip-path="url(#clip551)" cx="505.254" cy="298.641" r="18" fill="#e26f46" fill-rule="evenodd" fill-opacity="1" stroke="#000000" stroke-opacity="1" stroke-width="1.6"/>
<circle clip-path="url(#clip551)" cx="450.513" cy="332.881" r="18" fill="#e26f46" fill-rule="evenodd" fill-opacity="1" stroke="#000000" stroke-opacity="1" stroke-width="1.6"/>
<circle clip-path="url(#clip551)" cx="459.553" cy="323.395" r="18" fill="#e26f46" fill-rule="evenodd" fill-opacity="1" stroke="#000000" stroke-opacity="1" stroke-width="1.6"/>
<circle clip-path="url(#clip551)" cx="571.744" cy="160.256" r="18" fill="#e26f46" fill-rule="evenodd" fill-opacity="1" stroke="#000000" stroke-opacity="1" stroke-width="1.6"/>
<circle clip-path="url(#clip551)" cx="301.869" cy="750.507" r="18" fill="#e26f46" fill-rule="evenodd" fill-opacity="1" stroke="#000000" stroke-opacity="1" stroke-width="1.6"/>
<circle clip-path="url(#clip551)" cx="549.209" cy="345.455" r="18" fill="#e26f46" fill-rule="evenodd" fill-opacity="1" stroke="#000000" stroke-opacity="1" stroke-width="1.6"/>
<circle clip-path="url(#clip551)" cx="607.296" cy="269.099" r="18" fill="#e26f46" fill-rule="evenodd" fill-opacity="1" stroke="#000000" stroke-opacity="1" stroke-width="1.6"/>
<circle clip-path="url(#clip551)" cx="528.669" cy="580.541" r="18" fill="#e26f46" fill-rule="evenodd" fill-opacity="1" stroke="#000000" stroke-opacity="1" stroke-width="1.6"/>
<circle clip-path="url(#clip551)" cx="1029.24" cy="196.302" r="18" fill="#e26f46" fill-rule="evenodd" fill-opacity="1" stroke="#000000" stroke-opacity="1" stroke-width="1.6"/>
<circle clip-path="url(#clip551)" cx="1337.43" cy="253.526" r="18" fill="#e26f46" fill-rule="evenodd" fill-opacity="1" stroke="#000000" stroke-opacity="1" stroke-width="1.6"/>
<circle clip-path="url(#clip551)" cx="1436.23" cy="162.478" r="18" fill="#e26f46" fill-rule="evenodd" fill-opacity="1" stroke="#000000" stroke-opacity="1" stroke-width="1.6"/>
<circle clip-path="url(#clip551)" cx="1041.65" cy="487.686" r="18" fill="#e26f46" fill-rule="evenodd" fill-opacity="1" stroke="#000000" stroke-opacity="1" stroke-width="1.6"/>
<circle clip-path="url(#clip551)" cx="969.004" cy="178.028" r="18" fill="#e26f46" fill-rule="evenodd" fill-opacity="1" stroke="#000000" stroke-opacity="1" stroke-width="1.6"/>
<circle clip-path="url(#clip551)" cx="970.879" cy="197.291" r="18" fill="#e26f46" fill-rule="evenodd" fill-opacity="1" stroke="#000000" stroke-opacity="1" stroke-width="1.6"/>
<circle clip-path="url(#clip551)" cx="1409.95" cy="559.645" r="18" fill="#e26f46" fill-rule="evenodd" fill-opacity="1" stroke="#000000" stroke-opacity="1" stroke-width="1.6"/>
<circle clip-path="url(#clip551)" cx="1286.67" cy="302.539" r="18" fill="#e26f46" fill-rule="evenodd" fill-opacity="1" stroke="#000000" stroke-opacity="1" stroke-width="1.6"/>
<circle clip-path="url(#clip551)" cx="977.487" cy="276.115" r="18" fill="#e26f46" fill-rule="evenodd" fill-opacity="1" stroke="#000000" stroke-opacity="1" stroke-width="1.6"/>
<circle clip-path="url(#clip551)" cx="1106.31" cy="338.967" r="18" fill="#e26f46" fill-rule="evenodd" fill-opacity="1" stroke="#000000" stroke-opacity="1" stroke-width="1.6"/>
<circle clip-path="url(#clip551)" cx="1698.99" cy="822.167" r="18" fill="#3da44d" fill-rule="evenodd" fill-opacity="1" stroke="#000000" stroke-opacity="1" stroke-width="1.6"/>
<circle clip-path="url(#clip551)" cx="1702.5" cy="797.002" r="18" fill="#3da44d" fill-rule="evenodd" fill-opacity="1" stroke="#000000" stroke-opacity="1" stroke-width="1.6"/>
<circle clip-path="url(#clip551)" cx="1716.45" cy="823.492" r="18" fill="#3da44d" fill-rule="evenodd" fill-opacity="1" stroke="#000000" stroke-opacity="1" stroke-width="1.6"/>
<circle clip-path="url(#clip551)" cx="1905.26" cy="995.833" r="18" fill="#3da44d" fill-rule="evenodd" fill-opacity="1" stroke="#000000" stroke-opacity="1" stroke-width="1.6"/>
<circle clip-path="url(#clip551)" cx="2143.55" cy="990.624" r="18" fill="#3da44d" fill-rule="evenodd" fill-opacity="1" stroke="#000000" stroke-opacity="1" stroke-width="1.6"/>
<circle clip-path="url(#clip551)" cx="1689.12" cy="985.356" r="18" fill="#3da44d" fill-rule="evenodd" fill-opacity="1" stroke="#000000" stroke-opacity="1" stroke-width="1.6"/>
<circle clip-path="url(#clip551)" cx="1757.54" cy="933.092" r="18" fill="#3da44d" fill-rule="evenodd" fill-opacity="1" stroke="#000000" stroke-opacity="1" stroke-width="1.6"/>
<circle clip-path="url(#clip551)" cx="1869.23" cy="916.858" r="18" fill="#3da44d" fill-rule="evenodd" fill-opacity="1" stroke="#000000" stroke-opacity="1" stroke-width="1.6"/>
<circle clip-path="url(#clip551)" cx="1869.49" cy="890.259" r="18" fill="#3da44d" fill-rule="evenodd" fill-opacity="1" stroke="#000000" stroke-opacity="1" stroke-width="1.6"/>
<circle clip-path="url(#clip551)" cx="1793.62" cy="900.256" r="18" fill="#3da44d" fill-rule="evenodd" fill-opacity="1" stroke="#000000" stroke-opacity="1" stroke-width="1.6"/>
<circle clip-path="url(#clip551)" cx="2067.65" cy="893.588" r="18" fill="#3da44d" fill-rule="evenodd" fill-opacity="1" stroke="#000000" stroke-opacity="1" stroke-width="1.6"/>
<circle clip-path="url(#clip551)" cx="2012.19" cy="926.7" r="18" fill="#3da44d" fill-rule="evenodd" fill-opacity="1" stroke="#000000" stroke-opacity="1" stroke-width="1.6"/>
<circle clip-path="url(#clip551)" cx="1180.31" cy="1334.15" r="18" fill="#c271d2" fill-rule="evenodd" fill-opacity="1" stroke="#000000" stroke-opacity="1" stroke-width="1.6"/>
<circle clip-path="url(#clip551)" cx="847.107" cy="1153.91" r="18" fill="#c271d2" fill-rule="evenodd" fill-opacity="1" stroke="#000000" stroke-opacity="1" stroke-width="1.6"/>
<circle clip-path="url(#clip551)" cx="940.608" cy="1144.58" r="18" fill="#c271d2" fill-rule="evenodd" fill-opacity="1" stroke="#000000" stroke-opacity="1" stroke-width="1.6"/>
<circle clip-path="url(#clip551)" cx="1071.25" cy="1098.37" r="18" fill="#c271d2" fill-rule="evenodd" fill-opacity="1" stroke="#000000" stroke-opacity="1" stroke-width="1.6"/>
<circle clip-path="url(#clip551)" cx="1503.61" cy="1171.66" r="18" fill="#c271d2" fill-rule="evenodd" fill-opacity="1" stroke="#000000" stroke-opacity="1" stroke-width="1.6"/>
<circle clip-path="url(#clip551)" cx="1404.64" cy="1079.82" r="18" fill="#c271d2" fill-rule="evenodd" fill-opacity="1" stroke="#000000" stroke-opacity="1" stroke-width="1.6"/>
<circle clip-path="url(#clip551)" cx="1437.79" cy="1112.06" r="18" fill="#c271d2" fill-rule="evenodd" fill-opacity="1" stroke="#000000" stroke-opacity="1" stroke-width="1.6"/>
<circle clip-path="url(#clip551)" cx="1226.4" cy="1026.5" r="18" fill="#c271d2" fill-rule="evenodd" fill-opacity="1" stroke="#000000" stroke-opacity="1" stroke-width="1.6"/>
<circle clip-path="url(#clip551)" cx="1634.94" cy="1185.17" r="18" fill="#c271d2" fill-rule="evenodd" fill-opacity="1" stroke="#000000" stroke-opacity="1" stroke-width="1.6"/>
<circle clip-path="url(#clip551)" cx="1093" cy="1076.07" r="18" fill="#c271d2" fill-rule="evenodd" fill-opacity="1" stroke="#000000" stroke-opacity="1" stroke-width="1.6"/>
<circle clip-path="url(#clip551)" cx="971.462" cy="1021.24" r="18" fill="#c271d2" fill-rule="evenodd" fill-opacity="1" stroke="#000000" stroke-opacity="1" stroke-width="1.6"/>
<circle clip-path="url(#clip551)" cx="866.63" cy="1122.76" r="18" fill="#c271d2" fill-rule="evenodd" fill-opacity="1" stroke="#000000" stroke-opacity="1" stroke-width="1.6"/>
<circle clip-path="url(#clip551)" cx="635.554" cy="986.789" r="18" fill="#c271d2" fill-rule="evenodd" fill-opacity="1" stroke="#000000" stroke-opacity="1" stroke-width="1.6"/>
<circle clip-path="url(#clip551)" cx="827.1" cy="1386.4" r="18" fill="#c271d2" fill-rule="evenodd" fill-opacity="1" stroke="#000000" stroke-opacity="1" stroke-width="1.6"/>
<circle clip-path="url(#clip551)" cx="726.372" cy="1182.91" r="18" fill="#c271d2" fill-rule="evenodd" fill-opacity="1" stroke="#000000" stroke-opacity="1" stroke-width="1.6"/>
<circle clip-path="url(#clip551)" cx="529.284" cy="1158.18" r="18" fill="#c271d2" fill-rule="evenodd" fill-opacity="1" stroke="#000000" stroke-opacity="1" stroke-width="1.6"/>
<circle clip-path="url(#clip551)" cx="847.123" cy="1111.57" r="18" fill="#c271d2" fill-rule="evenodd" fill-opacity="1" stroke="#000000" stroke-opacity="1" stroke-width="1.6"/>
<circle clip-path="url(#clip551)" cx="792.115" cy="975.871" r="18" fill="#c271d2" fill-rule="evenodd" fill-opacity="1" stroke="#000000" stroke-opacity="1" stroke-width="1.6"/>
<circle clip-path="url(#clip551)" cx="646.054" cy="1266.18" r="18" fill="#c271d2" fill-rule="evenodd" fill-opacity="1" stroke="#000000" stroke-opacity="1" stroke-width="1.6"/>
<circle clip-path="url(#clip551)" cx="826.496" cy="1193.72" r="18" fill="#c271d2" fill-rule="evenodd" fill-opacity="1" stroke="#000000" stroke-opacity="1" stroke-width="1.6"/>
<path clip-path="url(#clip550)" d="M1971.71 425.996 L2282.4 425.996 L2282.4 166.796 L1971.71 166.796  Z" fill="#ffffff" fill-rule="evenodd" fill-opacity="1"/>
<polyline clip-path="url(#clip550)" style="stroke:#000000; stroke-linecap:round; stroke-linejoin:round; stroke-width:4; stroke-opacity:1; fill:none" points="1971.71,425.996 2282.4,425.996 2282.4,166.796 1971.71,166.796 1971.71,425.996 "/>
<circle clip-path="url(#clip550)" cx="2065.52" cy="218.636" r="21.9429" fill="#009af9" fill-rule="evenodd" fill-opacity="1" stroke="#000000" stroke-opacity="1" stroke-width="1.95048"/>
<path clip-path="url(#clip550)" d="M2164 219.411 L2164 232.073 L2171.5 232.073 Q2175.27 232.073 2177.08 230.522 Q2178.9 228.948 2178.9 225.731 Q2178.9 222.49 2177.08 220.962 Q2175.27 219.411 2171.5 219.411 L2164 219.411 M2164 205.198 L2164 215.615 L2170.92 215.615 Q2174.34 215.615 2176.01 214.342 Q2177.7 213.045 2177.7 210.407 Q2177.7 207.791 2176.01 206.495 Q2174.34 205.198 2170.92 205.198 L2164 205.198 M2159.32 201.356 L2171.27 201.356 Q2176.61 201.356 2179.51 203.578 Q2182.4 205.8 2182.4 209.897 Q2182.4 213.069 2180.92 214.944 Q2179.44 216.819 2176.57 217.282 Q2180.02 218.022 2181.91 220.383 Q2183.84 222.721 2183.84 226.24 Q2183.84 230.869 2180.69 233.393 Q2177.54 235.916 2171.73 235.916 L2159.32 235.916 L2159.32 201.356 Z" fill="#000000" fill-rule="nonzero" fill-opacity="1" /><path clip-path="url(#clip550)" d="M2191.84 201.356 L2196.52 201.356 L2196.52 231.981 L2213.35 231.981 L2213.35 235.916 L2191.84 235.916 L2191.84 201.356 Z" fill="#000000" fill-rule="nonzero" fill-opacity="1" /><circle clip-path="url(#clip550)" cx="2065.52" cy="270.476" r="21.9429" fill="#e26f46" fill-rule="evenodd" fill-opacity="1" stroke="#000000" stroke-opacity="1" stroke-width="1.95048"/>
<path clip-path="url(#clip550)" d="M2159.32 253.196 L2181.17 253.196 L2181.17 257.131 L2164 257.131 L2164 267.362 L2180.46 267.362 L2180.46 271.297 L2164 271.297 L2164 283.821 L2181.59 283.821 L2181.59 287.756 L2159.32 287.756 L2159.32 253.196 Z" fill="#000000" fill-rule="nonzero" fill-opacity="1" /><path clip-path="url(#clip550)" d="M2186.2 253.196 L2190.92 253.196 L2198.19 282.409 L2205.43 253.196 L2210.69 253.196 L2217.96 282.409 L2225.2 253.196 L2229.95 253.196 L2221.27 287.756 L2215.39 287.756 L2208.09 257.756 L2200.73 287.756 L2194.85 287.756 L2186.2 253.196 Z" fill="#000000" fill-rule="nonzero" fill-opacity="1" /><path clip-path="url(#clip550)" d="M2256.87 254.33 L2256.87 258.89 Q2254.21 257.617 2251.84 256.992 Q2249.48 256.367 2247.28 256.367 Q2243.46 256.367 2241.38 257.848 Q2239.32 259.33 2239.32 262.061 Q2239.32 264.353 2240.69 265.534 Q2242.08 266.691 2245.92 267.409 L2248.74 267.987 Q2253.97 268.983 2256.45 271.506 Q2258.95 274.006 2258.95 278.219 Q2258.95 283.242 2255.57 285.834 Q2252.21 288.427 2245.71 288.427 Q2243.26 288.427 2240.48 287.871 Q2237.72 287.316 2234.76 286.228 L2234.76 281.413 Q2237.61 283.01 2240.34 283.821 Q2243.07 284.631 2245.71 284.631 Q2249.71 284.631 2251.89 283.057 Q2254.07 281.483 2254.07 278.566 Q2254.07 276.02 2252.49 274.584 Q2250.94 273.149 2247.38 272.432 L2244.53 271.876 Q2239.3 270.835 2236.96 268.612 Q2234.62 266.39 2234.62 262.432 Q2234.62 257.848 2237.84 255.21 Q2241.08 252.571 2246.75 252.571 Q2249.18 252.571 2251.71 253.011 Q2254.23 253.45 2256.87 254.33 Z" fill="#000000" fill-rule="nonzero" fill-opacity="1" /><circle clip-path="url(#clip550)" cx="2065.52" cy="322.316" r="21.9429" fill="#3da44d" fill-rule="evenodd" fill-opacity="1" stroke="#000000" stroke-opacity="1" stroke-width="1.95048"/>
<path clip-path="url(#clip550)" d="M2159.32 305.036 L2165.62 305.036 L2180.94 333.948 L2180.94 305.036 L2185.48 305.036 L2185.48 339.596 L2179.18 339.596 L2163.86 310.684 L2163.86 339.596 L2159.32 339.596 L2159.32 305.036 Z" fill="#000000" fill-rule="nonzero" fill-opacity="1" /><path clip-path="url(#clip550)" d="M2199.46 323.091 L2199.46 335.753 L2206.96 335.753 Q2210.73 335.753 2212.54 334.202 Q2214.37 332.628 2214.37 329.411 Q2214.37 326.17 2212.54 324.642 Q2210.73 323.091 2206.96 323.091 L2199.46 323.091 M2199.46 308.878 L2199.46 319.295 L2206.38 319.295 Q2209.81 319.295 2211.47 318.022 Q2213.16 316.725 2213.16 314.087 Q2213.16 311.471 2211.47 310.175 Q2209.81 308.878 2206.38 308.878 L2199.46 308.878 M2194.78 305.036 L2206.73 305.036 Q2212.08 305.036 2214.97 307.258 Q2217.86 309.48 2217.86 313.577 Q2217.86 316.749 2216.38 318.624 Q2214.9 320.499 2212.03 320.962 Q2215.48 321.702 2217.38 324.063 Q2219.3 326.401 2219.3 329.92 Q2219.3 334.549 2216.15 337.073 Q2213 339.596 2207.19 339.596 L2194.78 339.596 L2194.78 305.036 Z" fill="#000000" fill-rule="nonzero" fill-opacity="1" /><circle clip-path="url(#clip550)" cx="2065.52" cy="374.156" r="21.9429" fill="#c271d2" fill-rule="evenodd" fill-opacity="1" stroke="#000000" stroke-opacity="1" stroke-width="1.95048"/>
<path clip-path="url(#clip550)" d="M2175.71 375.232 Q2177.21 375.741 2178.63 377.408 Q2180.06 379.075 2181.5 381.991 L2186.24 391.436 L2181.22 391.436 L2176.8 382.57 Q2175.09 379.098 2173.46 377.964 Q2171.87 376.829 2169.09 376.829 L2164 376.829 L2164 391.436 L2159.32 391.436 L2159.32 356.876 L2169.88 356.876 Q2175.8 356.876 2178.72 359.353 Q2181.64 361.829 2181.64 366.829 Q2181.64 370.093 2180.11 372.246 Q2178.6 374.399 2175.71 375.232 M2164 360.718 L2164 372.987 L2169.88 372.987 Q2173.26 372.987 2174.97 371.436 Q2176.71 369.862 2176.71 366.829 Q2176.71 363.797 2174.97 362.269 Q2173.26 360.718 2169.88 360.718 L2164 360.718 Z" fill="#000000" fill-rule="nonzero" fill-opacity="1" /><path clip-path="url(#clip550)" d="M2192.26 356.876 L2199.23 356.876 L2208.05 380.394 L2216.91 356.876 L2223.88 356.876 L2223.88 391.436 L2219.32 391.436 L2219.32 361.089 L2210.41 384.792 L2205.71 384.792 L2196.8 361.089 L2196.8 391.436 L2192.26 391.436 L2192.26 356.876 Z" fill="#000000" fill-rule="nonzero" fill-opacity="1" /><path clip-path="url(#clip550)" d="M2253.88 358.01 L2253.88 362.57 Q2251.22 361.297 2248.86 360.672 Q2246.5 360.047 2244.3 360.047 Q2240.48 360.047 2238.4 361.528 Q2236.33 363.01 2236.33 365.741 Q2236.33 368.033 2237.7 369.214 Q2239.09 370.371 2242.93 371.089 L2245.76 371.667 Q2250.99 372.663 2253.46 375.186 Q2255.96 377.686 2255.96 381.899 Q2255.96 386.922 2252.58 389.514 Q2249.23 392.107 2242.72 392.107 Q2240.27 392.107 2237.49 391.551 Q2234.74 390.996 2231.77 389.908 L2231.77 385.093 Q2234.62 386.69 2237.35 387.501 Q2240.08 388.311 2242.72 388.311 Q2246.73 388.311 2248.9 386.737 Q2251.08 385.163 2251.08 382.246 Q2251.08 379.7 2249.51 378.264 Q2247.96 376.829 2244.39 376.112 L2241.54 375.556 Q2236.31 374.515 2233.97 372.292 Q2231.64 370.07 2231.64 366.112 Q2231.64 361.528 2234.85 358.89 Q2238.09 356.251 2243.77 356.251 Q2246.2 356.251 2248.72 356.691 Q2251.24 357.13 2253.88 358.01 Z" fill="#000000" fill-rule="nonzero" fill-opacity="1" /></svg>
