<?xml version="1.0" encoding="utf-8"?>
<svg xmlns="http://www.w3.org/2000/svg" xmlns:xlink="http://www.w3.org/1999/xlink" width="600" height="400" viewBox="0 0 2400 1600">
<defs>
  <clipPath id="clip230">
    <rect x="0" y="0" width="2400" height="1600"/>
  </clipPath>
</defs>
<path clip-path="url(#clip230)" d="M0 1600 L2400 1600 L2400 0 L0 0  Z" fill="#ffffff" fill-rule="evenodd" fill-opacity="1"/>
<defs>
  <clipPath id="clip231">
    <rect x="156" y="123" width="1683" height="1364"/>
  </clipPath>
</defs>
<path clip-path="url(#clip230)" d="M156.598 1486.45 L1838.15 1486.45 L1838.15 123.472 L156.598 123.472  Z" fill="#ffffff" fill-rule="evenodd" fill-opacity="1"/>
<polyline clip-path="url(#clip231)" style="stroke:#000000; stroke-linecap:round; stroke-linejoin:round; stroke-width:2; stroke-opacity:0.1; fill:none" points="443.088,1486.45 443.088,123.472 "/>
<polyline clip-path="url(#clip231)" style="stroke:#000000; stroke-linecap:round; stroke-linejoin:round; stroke-width:2; stroke-opacity:0.1; fill:none" points="997.376,1486.45 997.376,123.472 "/>
<polyline clip-path="url(#clip231)" style="stroke:#000000; stroke-linecap:round; stroke-linejoin:round; stroke-width:2; stroke-opacity:0.1; fill:none" points="1551.66,1486.45 1551.66,123.472 "/>
<polyline clip-path="url(#clip231)" style="stroke:#000000; stroke-linecap:round; stroke-linejoin:round; stroke-width:2; stroke-opacity:0.1; fill:none" points="156.598,1486.45 1838.15,1486.45 "/>
<polyline clip-path="url(#clip231)" style="stroke:#000000; stroke-linecap:round; stroke-linejoin:round; stroke-width:2; stroke-opacity:0.1; fill:none" points="156.598,1213.85 1838.15,1213.85 "/>
<polyline clip-path="url(#clip231)" style="stroke:#000000; stroke-linecap:round; stroke-linejoin:round; stroke-width:2; stroke-opacity:0.1; fill:none" points="156.598,941.258 1838.15,941.258 "/>
<polyline clip-path="url(#clip231)" style="stroke:#000000; stroke-linecap:round; stroke-linejoin:round; stroke-width:2; stroke-opacity:0.1; fill:none" points="156.598,668.662 1838.15,668.662 "/>
<polyline clip-path="url(#clip231)" style="stroke:#000000; stroke-linecap:round; stroke-linejoin:round; stroke-width:2; stroke-opacity:0.1; fill:none" points="156.598,396.067 1838.15,396.067 "/>
<polyline clip-path="url(#clip231)" style="stroke:#000000; stroke-linecap:round; stroke-linejoin:round; stroke-width:2; stroke-opacity:0.1; fill:none" points="156.598,123.472 1838.15,123.472 "/>
<polyline clip-path="url(#clip230)" style="stroke:#000000; stroke-linecap:round; stroke-linejoin:round; stroke-width:4; stroke-opacity:1; fill:none" points="156.598,1486.45 1838.15,1486.45 "/>
<polyline clip-path="url(#clip230)" style="stroke:#000000; stroke-linecap:round; stroke-linejoin:round; stroke-width:4; stroke-opacity:1; fill:none" points="443.088,1486.45 443.088,1467.55 "/>
<polyline clip-path="url(#clip230)" style="stroke:#000000; stroke-linecap:round; stroke-linejoin:round; stroke-width:4; stroke-opacity:1; fill:none" points="997.376,1486.45 997.376,1467.55 "/>
<polyline clip-path="url(#clip230)" style="stroke:#000000; stroke-linecap:round; stroke-linejoin:round; stroke-width:4; stroke-opacity:1; fill:none" points="1551.66,1486.45 1551.66,1467.55 "/>
<path clip-path="url(#clip230)" d="M318.76 1514.29 L340.611 1514.29 L340.611 1518.22 L323.436 1518.22 L323.436 1528.45 L339.894 1528.45 L339.894 1532.39 L323.436 1532.39 L323.436 1544.91 L341.028 1544.91 L341.028 1548.85 L318.76 1548.85 L318.76 1514.29 Z" fill="#000000" fill-rule="nonzero" fill-opacity="1" /><path clip-path="url(#clip230)" d="M370.079 1522.92 L360.704 1535.54 L370.565 1548.85 L365.542 1548.85 L357.996 1538.66 L350.449 1548.85 L345.426 1548.85 L355.496 1535.28 L346.283 1522.92 L351.306 1522.92 L358.181 1532.16 L365.056 1522.92 L370.079 1522.92 Z" fill="#000000" fill-rule="nonzero" fill-opacity="1" /><path clip-path="url(#clip230)" d="M380.704 1544.96 L380.704 1558.71 L376.421 1558.71 L376.421 1522.92 L380.704 1522.92 L380.704 1526.86 Q382.046 1524.54 384.083 1523.43 Q386.144 1522.3 388.991 1522.3 Q393.713 1522.3 396.653 1526.05 Q399.616 1529.8 399.616 1535.91 Q399.616 1542.02 396.653 1545.77 Q393.713 1549.52 388.991 1549.52 Q386.144 1549.52 384.083 1548.41 Q382.046 1547.27 380.704 1544.96 M395.194 1535.91 Q395.194 1531.21 393.25 1528.55 Q391.329 1525.86 387.949 1525.86 Q384.569 1525.86 382.625 1528.55 Q380.704 1531.21 380.704 1535.91 Q380.704 1540.61 382.625 1543.29 Q384.569 1545.95 387.949 1545.95 Q391.329 1545.95 393.25 1543.29 Q395.194 1540.61 395.194 1535.91 Z" fill="#000000" fill-rule="nonzero" fill-opacity="1" /><path clip-path="url(#clip230)" d="M421.699 1526.9 Q420.981 1526.49 420.125 1526.3 Q419.292 1526.09 418.273 1526.09 Q414.662 1526.09 412.717 1528.45 Q410.796 1530.79 410.796 1535.19 L410.796 1548.85 L406.514 1548.85 L406.514 1522.92 L410.796 1522.92 L410.796 1526.95 Q412.139 1524.59 414.292 1523.45 Q416.444 1522.3 419.523 1522.3 Q419.963 1522.3 420.495 1522.37 Q421.028 1522.41 421.676 1522.53 L421.699 1526.9 Z" fill="#000000" fill-rule="nonzero" fill-opacity="1" /><path clip-path="url(#clip230)" d="M447.301 1534.82 L447.301 1536.9 L427.717 1536.9 Q427.995 1541.3 430.356 1543.62 Q432.741 1545.91 436.977 1545.91 Q439.43 1545.91 441.722 1545.31 Q444.037 1544.7 446.305 1543.5 L446.305 1547.53 Q444.014 1548.5 441.606 1549.01 Q439.199 1549.52 436.722 1549.52 Q430.518 1549.52 426.884 1545.91 Q423.273 1542.3 423.273 1536.14 Q423.273 1529.77 426.699 1526.05 Q430.148 1522.3 435.981 1522.3 Q441.213 1522.3 444.245 1525.68 Q447.301 1529.03 447.301 1534.82 M443.041 1533.57 Q442.995 1530.07 441.074 1527.99 Q439.176 1525.91 436.028 1525.91 Q432.463 1525.91 430.31 1527.92 Q428.18 1529.94 427.856 1533.59 L443.041 1533.57 Z" fill="#000000" fill-rule="nonzero" fill-opacity="1" /><path clip-path="url(#clip230)" d="M470.819 1523.69 L470.819 1527.71 Q469.013 1526.79 467.069 1526.32 Q465.125 1525.86 463.041 1525.86 Q459.87 1525.86 458.273 1526.83 Q456.699 1527.81 456.699 1529.75 Q456.699 1531.23 457.833 1532.09 Q458.967 1532.92 462.393 1533.69 L463.851 1534.01 Q468.388 1534.98 470.287 1536.76 Q472.208 1538.52 472.208 1541.7 Q472.208 1545.31 469.338 1547.41 Q466.49 1549.52 461.49 1549.52 Q459.407 1549.52 457.139 1549.1 Q454.893 1548.71 452.393 1547.9 L452.393 1543.5 Q454.754 1544.73 457.046 1545.35 Q459.338 1545.95 461.583 1545.95 Q464.592 1545.95 466.213 1544.94 Q467.833 1543.89 467.833 1542.02 Q467.833 1540.28 466.652 1539.36 Q465.495 1538.43 461.537 1537.57 L460.055 1537.23 Q456.097 1536.39 454.338 1534.68 Q452.578 1532.95 452.578 1529.94 Q452.578 1526.28 455.171 1524.29 Q457.764 1522.3 462.532 1522.3 Q464.893 1522.3 466.976 1522.64 Q469.06 1522.99 470.819 1523.69 Z" fill="#000000" fill-rule="nonzero" fill-opacity="1" /><path clip-path="url(#clip230)" d="M495.518 1523.69 L495.518 1527.71 Q493.712 1526.79 491.768 1526.32 Q489.824 1525.86 487.74 1525.86 Q484.569 1525.86 482.972 1526.83 Q481.398 1527.81 481.398 1529.75 Q481.398 1531.23 482.532 1532.09 Q483.666 1532.92 487.092 1533.69 L488.55 1534.01 Q493.087 1534.98 494.986 1536.76 Q496.907 1538.52 496.907 1541.7 Q496.907 1545.31 494.036 1547.41 Q491.189 1549.52 486.189 1549.52 Q484.106 1549.52 481.837 1549.1 Q479.592 1548.71 477.092 1547.9 L477.092 1543.5 Q479.453 1544.73 481.745 1545.35 Q484.037 1545.95 486.282 1545.95 Q489.291 1545.95 490.911 1544.94 Q492.532 1543.89 492.532 1542.02 Q492.532 1540.28 491.351 1539.36 Q490.194 1538.43 486.236 1537.57 L484.754 1537.23 Q480.796 1536.39 479.037 1534.68 Q477.277 1532.95 477.277 1529.94 Q477.277 1526.28 479.87 1524.29 Q482.462 1522.3 487.231 1522.3 Q489.592 1522.3 491.675 1522.64 Q493.759 1522.99 495.518 1523.69 Z" fill="#000000" fill-rule="nonzero" fill-opacity="1" /><path clip-path="url(#clip230)" d="M503.689 1522.92 L507.948 1522.92 L507.948 1548.85 L503.689 1548.85 L503.689 1522.92 M503.689 1512.83 L507.948 1512.83 L507.948 1518.22 L503.689 1518.22 L503.689 1512.83 Z" fill="#000000" fill-rule="nonzero" fill-opacity="1" /><path clip-path="url(#clip230)" d="M526.907 1525.91 Q523.481 1525.91 521.49 1528.59 Q519.499 1531.26 519.499 1535.91 Q519.499 1540.56 521.467 1543.25 Q523.458 1545.91 526.907 1545.91 Q530.309 1545.91 532.3 1543.22 Q534.291 1540.54 534.291 1535.91 Q534.291 1531.3 532.3 1528.62 Q530.309 1525.91 526.907 1525.91 M526.907 1522.3 Q532.462 1522.3 535.633 1525.91 Q538.805 1529.52 538.805 1535.91 Q538.805 1542.27 535.633 1545.91 Q532.462 1549.52 526.907 1549.52 Q521.328 1549.52 518.157 1545.91 Q515.009 1542.27 515.009 1535.91 Q515.009 1529.52 518.157 1525.91 Q521.328 1522.3 526.907 1522.3 Z" fill="#000000" fill-rule="nonzero" fill-opacity="1" /><path clip-path="url(#clip230)" d="M567.416 1533.2 L567.416 1548.85 L563.156 1548.85 L563.156 1533.34 Q563.156 1529.66 561.721 1527.83 Q560.286 1526 557.416 1526 Q553.967 1526 551.976 1528.2 Q549.985 1530.4 549.985 1534.2 L549.985 1548.85 L545.703 1548.85 L545.703 1522.92 L549.985 1522.92 L549.985 1526.95 Q551.513 1524.61 553.573 1523.45 Q555.657 1522.3 558.365 1522.3 Q562.832 1522.3 565.124 1525.07 Q567.416 1527.83 567.416 1533.2 Z" fill="#000000" fill-rule="nonzero" fill-opacity="1" /><path clip-path="url(#clip230)" d="M861.821 1514.29 L868.789 1514.29 L877.608 1537.81 L886.474 1514.29 L893.441 1514.29 L893.441 1548.85 L888.881 1548.85 L888.881 1518.5 L879.969 1542.2 L875.27 1542.2 L866.358 1518.5 L866.358 1548.85 L861.821 1548.85 L861.821 1514.29 Z" fill="#000000" fill-rule="nonzero" fill-opacity="1" /><path clip-path="url(#clip230)" d="M924.714 1534.82 L924.714 1536.9 L905.131 1536.9 Q905.409 1541.3 907.77 1543.62 Q910.154 1545.91 914.39 1545.91 Q916.844 1545.91 919.136 1545.31 Q921.45 1544.7 923.719 1543.5 L923.719 1547.53 Q921.427 1548.5 919.02 1549.01 Q916.612 1549.52 914.136 1549.52 Q907.932 1549.52 904.298 1545.91 Q900.687 1542.3 900.687 1536.14 Q900.687 1529.77 904.113 1526.05 Q907.562 1522.3 913.395 1522.3 Q918.626 1522.3 921.659 1525.68 Q924.714 1529.03 924.714 1534.82 M920.455 1533.57 Q920.409 1530.07 918.487 1527.99 Q916.589 1525.91 913.441 1525.91 Q909.876 1525.91 907.724 1527.92 Q905.594 1529.94 905.27 1533.59 L920.455 1533.57 Z" fill="#000000" fill-rule="nonzero" fill-opacity="1" /><path clip-path="url(#clip230)" d="M935.918 1515.56 L935.918 1522.92 L944.691 1522.92 L944.691 1526.23 L935.918 1526.23 L935.918 1540.31 Q935.918 1543.48 936.774 1544.38 Q937.654 1545.28 940.316 1545.28 L944.691 1545.28 L944.691 1548.85 L940.316 1548.85 Q935.386 1548.85 933.511 1547.02 Q931.636 1545.17 931.636 1540.31 L931.636 1526.23 L928.511 1526.23 L928.511 1522.92 L931.636 1522.92 L931.636 1515.56 L935.918 1515.56 Z" fill="#000000" fill-rule="nonzero" fill-opacity="1" /><path clip-path="url(#clip230)" d="M971.844 1533.2 L971.844 1548.85 L967.584 1548.85 L967.584 1533.34 Q967.584 1529.66 966.149 1527.83 Q964.714 1526 961.844 1526 Q958.395 1526 956.404 1528.2 Q954.413 1530.4 954.413 1534.2 L954.413 1548.85 L950.131 1548.85 L950.131 1512.83 L954.413 1512.83 L954.413 1526.95 Q955.941 1524.61 958.001 1523.45 Q960.084 1522.3 962.793 1522.3 Q967.26 1522.3 969.552 1525.07 Q971.844 1527.83 971.844 1533.2 Z" fill="#000000" fill-rule="nonzero" fill-opacity="1" /><path clip-path="url(#clip230)" d="M991.126 1551.26 Q989.32 1555.88 987.607 1557.3 Q985.895 1558.71 983.024 1558.71 L979.621 1558.71 L979.621 1555.14 L982.121 1555.14 Q983.881 1555.14 984.853 1554.31 Q985.825 1553.48 987.006 1550.38 L987.77 1548.43 L977.283 1522.92 L981.797 1522.92 L989.899 1543.2 L998.001 1522.92 L1002.51 1522.92 L991.126 1551.26 Z" fill="#000000" fill-rule="nonzero" fill-opacity="1" /><path clip-path="url(#clip230)" d="M1008.39 1512.83 L1012.65 1512.83 L1012.65 1548.85 L1008.39 1548.85 L1008.39 1512.83 Z" fill="#000000" fill-rule="nonzero" fill-opacity="1" /><path clip-path="url(#clip230)" d="M1033.35 1535.82 Q1028.19 1535.82 1026.2 1537 Q1024.2 1538.18 1024.2 1541.02 Q1024.2 1543.29 1025.69 1544.63 Q1027.19 1545.95 1029.76 1545.95 Q1033.3 1545.95 1035.43 1543.45 Q1037.58 1540.93 1037.58 1536.76 L1037.58 1535.82 L1033.35 1535.82 M1041.84 1534.06 L1041.84 1548.85 L1037.58 1548.85 L1037.58 1544.91 Q1036.13 1547.27 1033.95 1548.41 Q1031.77 1549.52 1028.63 1549.52 Q1024.64 1549.52 1022.28 1547.3 Q1019.95 1545.05 1019.95 1541.3 Q1019.95 1536.93 1022.86 1534.7 Q1025.8 1532.48 1031.61 1532.48 L1037.58 1532.48 L1037.58 1532.07 Q1037.58 1529.13 1035.64 1527.53 Q1033.72 1525.91 1030.22 1525.91 Q1028 1525.91 1025.89 1526.44 Q1023.79 1526.97 1021.84 1528.04 L1021.84 1524.1 Q1024.18 1523.2 1026.38 1522.76 Q1028.58 1522.3 1030.66 1522.3 Q1036.29 1522.3 1039.07 1525.21 Q1041.84 1528.13 1041.84 1534.06 Z" fill="#000000" fill-rule="nonzero" fill-opacity="1" /><path clip-path="url(#clip230)" d="M1054.83 1515.56 L1054.83 1522.92 L1063.6 1522.92 L1063.6 1526.23 L1054.83 1526.23 L1054.83 1540.31 Q1054.83 1543.48 1055.69 1544.38 Q1056.57 1545.28 1059.23 1545.28 L1063.6 1545.28 L1063.6 1548.85 L1059.23 1548.85 Q1054.3 1548.85 1052.42 1547.02 Q1050.55 1545.17 1050.55 1540.31 L1050.55 1526.23 L1047.42 1526.23 L1047.42 1522.92 L1050.55 1522.92 L1050.55 1515.56 L1054.83 1515.56 Z" fill="#000000" fill-rule="nonzero" fill-opacity="1" /><path clip-path="url(#clip230)" d="M1069.2 1522.92 L1073.46 1522.92 L1073.46 1548.85 L1069.2 1548.85 L1069.2 1522.92 M1069.2 1512.83 L1073.46 1512.83 L1073.46 1518.22 L1069.2 1518.22 L1069.2 1512.83 Z" fill="#000000" fill-rule="nonzero" fill-opacity="1" /><path clip-path="url(#clip230)" d="M1092.42 1525.91 Q1089 1525.91 1087.01 1528.59 Q1085.01 1531.26 1085.01 1535.91 Q1085.01 1540.56 1086.98 1543.25 Q1088.97 1545.91 1092.42 1545.91 Q1095.82 1545.91 1097.82 1543.22 Q1099.81 1540.54 1099.81 1535.91 Q1099.81 1531.3 1097.82 1528.62 Q1095.82 1525.91 1092.42 1525.91 M1092.42 1522.3 Q1097.98 1522.3 1101.15 1525.91 Q1104.32 1529.52 1104.32 1535.91 Q1104.32 1542.27 1101.15 1545.91 Q1097.98 1549.52 1092.42 1549.52 Q1086.84 1549.52 1083.67 1545.91 Q1080.52 1542.27 1080.52 1535.91 Q1080.52 1529.52 1083.67 1525.91 Q1086.84 1522.3 1092.42 1522.3 Z" fill="#000000" fill-rule="nonzero" fill-opacity="1" /><path clip-path="url(#clip230)" d="M1132.93 1533.2 L1132.93 1548.85 L1128.67 1548.85 L1128.67 1533.34 Q1128.67 1529.66 1127.24 1527.83 Q1125.8 1526 1122.93 1526 Q1119.48 1526 1117.49 1528.2 Q1115.5 1530.4 1115.5 1534.2 L1115.5 1548.85 L1111.22 1548.85 L1111.22 1522.92 L1115.5 1522.92 L1115.5 1526.95 Q1117.03 1524.61 1119.09 1523.45 Q1121.17 1522.3 1123.88 1522.3 Q1128.35 1522.3 1130.64 1525.07 Q1132.93 1527.83 1132.93 1533.2 Z" fill="#000000" fill-rule="nonzero" fill-opacity="1" /><path clip-path="url(#clip230)" d="M1494.27 1527.9 Q1495.87 1525.03 1498.09 1523.66 Q1500.31 1522.3 1503.32 1522.3 Q1507.37 1522.3 1509.57 1525.14 Q1511.77 1527.97 1511.77 1533.2 L1511.77 1548.85 L1507.49 1548.85 L1507.49 1533.34 Q1507.49 1529.61 1506.17 1527.81 Q1504.85 1526 1502.14 1526 Q1498.83 1526 1496.91 1528.2 Q1494.99 1530.4 1494.99 1534.2 L1494.99 1548.85 L1490.7 1548.85 L1490.7 1533.34 Q1490.7 1529.59 1489.38 1527.81 Q1488.07 1526 1485.31 1526 Q1482.05 1526 1480.13 1528.22 Q1478.2 1530.42 1478.2 1534.2 L1478.2 1548.85 L1473.92 1548.85 L1473.92 1522.92 L1478.2 1522.92 L1478.2 1526.95 Q1479.66 1524.57 1481.7 1523.43 Q1483.74 1522.3 1486.54 1522.3 Q1489.36 1522.3 1491.33 1523.73 Q1493.32 1525.17 1494.27 1527.9 Z" fill="#000000" fill-rule="nonzero" fill-opacity="1" /><path clip-path="url(#clip230)" d="M1520.26 1522.92 L1524.52 1522.92 L1524.52 1548.85 L1520.26 1548.85 L1520.26 1522.92 M1520.26 1512.83 L1524.52 1512.83 L1524.52 1518.22 L1520.26 1518.22 L1520.26 1512.83 Z" fill="#000000" fill-rule="nonzero" fill-opacity="1" /><path clip-path="url(#clip230)" d="M1550.01 1532.64 Q1551.51 1533.15 1552.93 1534.82 Q1554.36 1536.49 1555.8 1539.4 L1560.54 1548.85 L1555.52 1548.85 L1551.1 1539.98 Q1549.38 1536.51 1547.76 1535.38 Q1546.17 1534.24 1543.39 1534.24 L1538.3 1534.24 L1538.3 1548.85 L1533.62 1548.85 L1533.62 1514.29 L1544.18 1514.29 Q1550.1 1514.29 1553.02 1516.76 Q1555.94 1519.24 1555.94 1524.24 Q1555.94 1527.51 1554.41 1529.66 Q1552.9 1531.81 1550.01 1532.64 M1538.3 1518.13 L1538.3 1530.4 L1544.18 1530.4 Q1547.56 1530.4 1549.27 1528.85 Q1551 1527.27 1551 1524.24 Q1551 1521.21 1549.27 1519.68 Q1547.56 1518.13 1544.18 1518.13 L1538.3 1518.13 Z" fill="#000000" fill-rule="nonzero" fill-opacity="1" /><path clip-path="url(#clip230)" d="M1566.56 1514.29 L1572.86 1514.29 L1588.18 1543.2 L1588.18 1514.29 L1592.72 1514.29 L1592.72 1548.85 L1586.42 1548.85 L1571.1 1519.94 L1571.1 1548.85 L1566.56 1548.85 L1566.56 1514.29 Z" fill="#000000" fill-rule="nonzero" fill-opacity="1" /><path clip-path="url(#clip230)" d="M1613.57 1518.89 L1607.23 1536.09 L1619.94 1536.09 L1613.57 1518.89 M1610.93 1514.29 L1616.24 1514.29 L1629.41 1548.85 L1624.55 1548.85 L1621.4 1539.98 L1605.82 1539.98 L1602.67 1548.85 L1597.74 1548.85 L1610.93 1514.29 Z" fill="#000000" fill-rule="nonzero" fill-opacity="1" /><polyline clip-path="url(#clip230)" style="stroke:#000000; stroke-linecap:round; stroke-linejoin:round; stroke-width:4; stroke-opacity:1; fill:none" points="156.598,1486.45 156.598,123.472 "/>
<polyline clip-path="url(#clip230)" style="stroke:#000000; stroke-linecap:round; stroke-linejoin:round; stroke-width:4; stroke-opacity:1; fill:none" points="156.598,1486.45 171.068,1486.45 "/>
<polyline clip-path="url(#clip230)" style="stroke:#000000; stroke-linecap:round; stroke-linejoin:round; stroke-width:4; stroke-opacity:1; fill:none" points="156.598,1213.85 171.068,1213.85 "/>
<polyline clip-path="url(#clip230)" style="stroke:#000000; stroke-linecap:round; stroke-linejoin:round; stroke-width:4; stroke-opacity:1; fill:none" points="156.598,941.258 171.068,941.258 "/>
<polyline clip-path="url(#clip230)" style="stroke:#000000; stroke-linecap:round; stroke-linejoin:round; stroke-width:4; stroke-opacity:1; fill:none" points="156.598,668.662 171.068,668.662 "/>
<polyline clip-path="url(#clip230)" style="stroke:#000000; stroke-linecap:round; stroke-linejoin:round; stroke-width:4; stroke-opacity:1; fill:none" points="156.598,396.067 171.068,396.067 "/>
<polyline clip-path="url(#clip230)" style="stroke:#000000; stroke-linecap:round; stroke-linejoin:round; stroke-width:4; stroke-opacity:1; fill:none" points="156.598,123.472 171.068,123.472 "/>
<path clip-path="url(#clip230)" d="M63.4226 1472.25 Q59.8115 1472.25 57.9828 1475.81 Q56.1773 1479.35 56.1773 1486.48 Q56.1773 1493.59 57.9828 1497.15 Q59.8115 1500.7 63.4226 1500.7 Q67.0569 1500.7 68.8624 1497.15 Q70.6911 1493.59 70.6911 1486.48 Q70.6911 1479.35 68.8624 1475.81 Q67.0569 1472.25 63.4226 1472.25 M63.4226 1468.54 Q69.2328 1468.54 72.2883 1473.15 Q75.367 1477.73 75.367 1486.48 Q75.367 1495.21 72.2883 1499.82 Q69.2328 1504.4 63.4226 1504.4 Q57.6125 1504.4 54.5338 1499.82 Q51.4782 1495.21 51.4782 1486.48 Q51.4782 1477.73 54.5338 1473.15 Q57.6125 1468.54 63.4226 1468.54 Z" fill="#000000" fill-rule="nonzero" fill-opacity="1" /><path clip-path="url(#clip230)" d="M83.5845 1497.85 L88.4688 1497.85 L88.4688 1503.73 L83.5845 1503.73 L83.5845 1497.85 Z" fill="#000000" fill-rule="nonzero" fill-opacity="1" /><path clip-path="url(#clip230)" d="M108.654 1472.25 Q105.043 1472.25 103.214 1475.81 Q101.409 1479.35 101.409 1486.48 Q101.409 1493.59 103.214 1497.15 Q105.043 1500.7 108.654 1500.7 Q112.288 1500.7 114.094 1497.15 Q115.922 1493.59 115.922 1486.48 Q115.922 1479.35 114.094 1475.81 Q112.288 1472.25 108.654 1472.25 M108.654 1468.54 Q114.464 1468.54 117.52 1473.15 Q120.598 1477.73 120.598 1486.48 Q120.598 1495.21 117.52 1499.82 Q114.464 1504.4 108.654 1504.4 Q102.844 1504.4 99.765 1499.82 Q96.7095 1495.21 96.7095 1486.48 Q96.7095 1477.73 99.765 1473.15 Q102.844 1468.54 108.654 1468.54 Z" fill="#000000" fill-rule="nonzero" fill-opacity="1" /><path clip-path="url(#clip230)" d="M65.0198 1199.65 Q61.4087 1199.65 59.58 1203.22 Q57.7745 1206.76 57.7745 1213.89 Q57.7745 1220.99 59.58 1224.56 Q61.4087 1228.1 65.0198 1228.1 Q68.6541 1228.1 70.4596 1224.56 Q72.2883 1220.99 72.2883 1213.89 Q72.2883 1206.76 70.4596 1203.22 Q68.6541 1199.65 65.0198 1199.65 M65.0198 1195.95 Q70.83 1195.95 73.8855 1200.55 Q76.9642 1205.14 76.9642 1213.89 Q76.9642 1222.61 73.8855 1227.22 Q70.83 1231.8 65.0198 1231.8 Q59.2097 1231.8 56.131 1227.22 Q53.0754 1222.61 53.0754 1213.89 Q53.0754 1205.14 56.131 1200.55 Q59.2097 1195.95 65.0198 1195.95 Z" fill="#000000" fill-rule="nonzero" fill-opacity="1" /><path clip-path="url(#clip230)" d="M85.1818 1225.25 L90.066 1225.25 L90.066 1231.13 L85.1818 1231.13 L85.1818 1225.25 Z" fill="#000000" fill-rule="nonzero" fill-opacity="1" /><path clip-path="url(#clip230)" d="M104.279 1227.2 L120.598 1227.2 L120.598 1231.13 L98.6539 1231.13 L98.6539 1227.2 Q101.316 1224.44 105.899 1219.81 Q110.506 1215.16 111.686 1213.82 Q113.932 1211.29 114.811 1209.56 Q115.714 1207.8 115.714 1206.11 Q115.714 1203.36 113.77 1201.62 Q111.848 1199.88 108.746 1199.88 Q106.547 1199.88 104.094 1200.65 Q101.663 1201.41 98.8854 1202.96 L98.8854 1198.24 Q101.709 1197.11 104.163 1196.53 Q106.617 1195.95 108.654 1195.95 Q114.024 1195.95 117.219 1198.63 Q120.413 1201.32 120.413 1205.81 Q120.413 1207.94 119.603 1209.86 Q118.816 1211.76 116.709 1214.35 Q116.131 1215.02 113.029 1218.24 Q109.927 1221.43 104.279 1227.2 Z" fill="#000000" fill-rule="nonzero" fill-opacity="1" /><path clip-path="url(#clip230)" d="M62.9365 927.056 Q59.3254 927.056 57.4967 930.621 Q55.6912 934.163 55.6912 941.292 Q55.6912 948.399 57.4967 951.964 Q59.3254 955.505 62.9365 955.505 Q66.5707 955.505 68.3763 951.964 Q70.205 948.399 70.205 941.292 Q70.205 934.163 68.3763 930.621 Q66.5707 927.056 62.9365 927.056 M62.9365 923.353 Q68.7467 923.353 71.8022 927.959 Q74.8809 932.542 74.8809 941.292 Q74.8809 950.019 71.8022 954.626 Q68.7467 959.209 62.9365 959.209 Q57.1264 959.209 54.0477 954.626 Q50.9921 950.019 50.9921 941.292 Q50.9921 932.542 54.0477 927.959 Q57.1264 923.353 62.9365 923.353 Z" fill="#000000" fill-rule="nonzero" fill-opacity="1" /><path clip-path="url(#clip230)" d="M83.0984 952.658 L87.9827 952.658 L87.9827 958.538 L83.0984 958.538 L83.0984 952.658 Z" fill="#000000" fill-rule="nonzero" fill-opacity="1" /><path clip-path="url(#clip230)" d="M111.015 928.052 L99.2095 946.501 L111.015 946.501 L111.015 928.052 M109.788 923.978 L115.668 923.978 L115.668 946.501 L120.598 946.501 L120.598 950.389 L115.668 950.389 L115.668 958.538 L111.015 958.538 L111.015 950.389 L95.4132 950.389 L95.4132 945.876 L109.788 923.978 Z" fill="#000000" fill-rule="nonzero" fill-opacity="1" /><path clip-path="url(#clip230)" d="M63.2606 654.461 Q59.6495 654.461 57.8208 658.026 Q56.0152 661.568 56.0152 668.697 Q56.0152 675.804 57.8208 679.368 Q59.6495 682.91 63.2606 682.91 Q66.8948 682.91 68.7004 679.368 Q70.5291 675.804 70.5291 668.697 Q70.5291 661.568 68.7004 658.026 Q66.8948 654.461 63.2606 654.461 M63.2606 650.757 Q69.0707 650.757 72.1263 655.364 Q75.205 659.947 75.205 668.697 Q75.205 677.424 72.1263 682.03 Q69.0707 686.614 63.2606 686.614 Q57.4504 686.614 54.3717 682.03 Q51.3162 677.424 51.3162 668.697 Q51.3162 659.947 54.3717 655.364 Q57.4504 650.757 63.2606 650.757 Z" fill="#000000" fill-rule="nonzero" fill-opacity="1" /><path clip-path="url(#clip230)" d="M83.4225 680.063 L88.3067 680.063 L88.3067 685.942 L83.4225 685.942 L83.4225 680.063 Z" fill="#000000" fill-rule="nonzero" fill-opacity="1" /><path clip-path="url(#clip230)" d="M109.071 666.799 Q105.922 666.799 104.071 668.952 Q102.242 671.105 102.242 674.855 Q102.242 678.581 104.071 680.757 Q105.922 682.91 109.071 682.91 Q112.219 682.91 114.047 680.757 Q115.899 678.581 115.899 674.855 Q115.899 671.105 114.047 668.952 Q112.219 666.799 109.071 666.799 M118.353 652.146 L118.353 656.406 Q116.594 655.572 114.788 655.132 Q113.006 654.693 111.246 654.693 Q106.617 654.693 104.163 657.818 Q101.733 660.943 101.385 667.262 Q102.751 665.248 104.811 664.183 Q106.871 663.095 109.348 663.095 Q114.557 663.095 117.566 666.267 Q120.598 669.415 120.598 674.855 Q120.598 680.179 117.45 683.396 Q114.302 686.614 109.071 686.614 Q103.075 686.614 99.9039 682.03 Q96.7326 677.424 96.7326 668.697 Q96.7326 660.503 100.621 655.642 Q104.51 650.757 111.061 650.757 Q112.82 650.757 114.603 651.105 Q116.408 651.452 118.353 652.146 Z" fill="#000000" fill-rule="nonzero" fill-opacity="1" /><path clip-path="url(#clip230)" d="M63.5152 381.866 Q59.9041 381.866 58.0754 385.431 Q56.2699 388.972 56.2699 396.102 Q56.2699 403.208 58.0754 406.773 Q59.9041 410.315 63.5152 410.315 Q67.1494 410.315 68.955 406.773 Q70.7837 403.208 70.7837 396.102 Q70.7837 388.972 68.955 385.431 Q67.1494 381.866 63.5152 381.866 M63.5152 378.162 Q69.3254 378.162 72.3809 382.769 Q75.4596 387.352 75.4596 396.102 Q75.4596 404.829 72.3809 409.435 Q69.3254 414.019 63.5152 414.019 Q57.7051 414.019 54.6264 409.435 Q51.5708 404.829 51.5708 396.102 Q51.5708 387.352 54.6264 382.769 Q57.7051 378.162 63.5152 378.162 Z" fill="#000000" fill-rule="nonzero" fill-opacity="1" /><path clip-path="url(#clip230)" d="M83.6771 407.468 L88.5614 407.468 L88.5614 413.347 L83.6771 413.347 L83.6771 407.468 Z" fill="#000000" fill-rule="nonzero" fill-opacity="1" /><path clip-path="url(#clip230)" d="M108.746 396.935 Q105.413 396.935 103.492 398.718 Q101.594 400.5 101.594 403.625 Q101.594 406.75 103.492 408.532 Q105.413 410.315 108.746 410.315 Q112.08 410.315 114.001 408.532 Q115.922 406.727 115.922 403.625 Q115.922 400.5 114.001 398.718 Q112.103 396.935 108.746 396.935 M104.071 394.945 Q101.061 394.204 99.3715 392.144 Q97.7048 390.084 97.7048 387.121 Q97.7048 382.977 100.645 380.57 Q103.608 378.162 108.746 378.162 Q113.908 378.162 116.848 380.57 Q119.788 382.977 119.788 387.121 Q119.788 390.084 118.098 392.144 Q116.432 394.204 113.445 394.945 Q116.825 395.732 118.7 398.023 Q120.598 400.315 120.598 403.625 Q120.598 408.648 117.52 411.333 Q114.464 414.019 108.746 414.019 Q103.029 414.019 99.9502 411.333 Q96.8947 408.648 96.8947 403.625 Q96.8947 400.315 98.7928 398.023 Q100.691 395.732 104.071 394.945 M102.358 387.56 Q102.358 390.246 104.024 391.75 Q105.714 393.255 108.746 393.255 Q111.756 393.255 113.445 391.75 Q115.158 390.246 115.158 387.56 Q115.158 384.875 113.445 383.371 Q111.756 381.866 108.746 381.866 Q105.714 381.866 104.024 383.371 Q102.358 384.875 102.358 387.56 Z" fill="#000000" fill-rule="nonzero" fill-opacity="1" /><path clip-path="url(#clip230)" d="M54.2328 136.817 L61.8717 136.817 L61.8717 110.451 L53.5616 112.118 L53.5616 107.859 L61.8254 106.192 L66.5013 106.192 L66.5013 136.817 L74.1402 136.817 L74.1402 140.752 L54.2328 140.752 L54.2328 136.817 Z" fill="#000000" fill-rule="nonzero" fill-opacity="1" /><path clip-path="url(#clip230)" d="M83.5845 134.873 L88.4688 134.873 L88.4688 140.752 L83.5845 140.752 L83.5845 134.873 Z" fill="#000000" fill-rule="nonzero" fill-opacity="1" /><path clip-path="url(#clip230)" d="M108.654 109.271 Q105.043 109.271 103.214 112.836 Q101.409 116.377 101.409 123.507 Q101.409 130.613 103.214 134.178 Q105.043 137.72 108.654 137.72 Q112.288 137.72 114.094 134.178 Q115.922 130.613 115.922 123.507 Q115.922 116.377 114.094 112.836 Q112.288 109.271 108.654 109.271 M108.654 105.567 Q114.464 105.567 117.52 110.174 Q120.598 114.757 120.598 123.507 Q120.598 132.234 117.52 136.84 Q114.464 141.423 108.654 141.423 Q102.844 141.423 99.765 136.84 Q96.7095 132.234 96.7095 123.507 Q96.7095 114.757 99.765 110.174 Q102.844 105.567 108.654 105.567 Z" fill="#000000" fill-rule="nonzero" fill-opacity="1" /><path clip-path="url(#clip230)" d="M623.64 72.576 L600.549 12.096 L609.097 12.096 L628.258 63.0159 L647.459 12.096 L655.966 12.096 L632.916 72.576 L623.64 72.576 Z" fill="#000000" fill-rule="nonzero" fill-opacity="1" /><path clip-path="url(#clip230)" d="M678.651 49.7694 Q669.617 49.7694 666.134 51.8354 Q662.65 53.9013 662.65 58.8839 Q662.65 62.8538 665.242 65.2034 Q667.875 67.5124 672.372 67.5124 Q678.57 67.5124 682.297 63.1374 Q686.064 58.7219 686.064 51.4303 L686.064 49.7694 L678.651 49.7694 M693.518 46.6907 L693.518 72.576 L686.064 72.576 L686.064 65.6895 Q683.512 69.8214 679.704 71.8063 Q675.896 73.7508 670.387 73.7508 Q663.419 73.7508 659.287 69.8619 Q655.196 65.9325 655.196 59.3701 Q655.196 51.7138 660.3 47.825 Q665.445 43.9361 675.613 43.9361 L686.064 43.9361 L686.064 43.2069 Q686.064 38.0623 682.661 35.2672 Q679.299 32.4315 673.182 32.4315 Q669.293 32.4315 665.607 33.3632 Q661.921 34.295 658.518 36.1584 L658.518 29.2718 Q662.609 27.692 666.458 26.9223 Q670.306 26.1121 673.952 26.1121 Q683.795 26.1121 688.657 31.2163 Q693.518 36.3204 693.518 46.6907 Z" fill="#000000" fill-rule="nonzero" fill-opacity="1" /><path clip-path="url(#clip230)" d="M735.161 34.1734 Q733.905 33.4443 732.406 33.1202 Q730.948 32.7556 729.166 32.7556 Q722.846 32.7556 719.443 36.8875 Q716.081 40.9789 716.081 48.6757 L716.081 72.576 L708.587 72.576 L708.587 27.2059 L716.081 27.2059 L716.081 34.2544 Q718.431 30.1225 722.198 28.1376 Q725.965 26.1121 731.353 26.1121 Q732.123 26.1121 733.054 26.2337 Q733.986 26.3147 735.12 26.5172 L735.161 34.1734 Z" fill="#000000" fill-rule="nonzero" fill-opacity="1" /><path clip-path="url(#clip230)" d="M742.979 27.2059 L750.433 27.2059 L750.433 72.576 L742.979 72.576 L742.979 27.2059 M742.979 9.54393 L750.433 9.54393 L750.433 18.9825 L742.979 18.9825 L742.979 9.54393 Z" fill="#000000" fill-rule="nonzero" fill-opacity="1" /><path clip-path="url(#clip230)" d="M786.648 49.7694 Q777.614 49.7694 774.131 51.8354 Q770.647 53.9013 770.647 58.8839 Q770.647 62.8538 773.239 65.2034 Q775.873 67.5124 780.369 67.5124 Q786.567 67.5124 790.294 63.1374 Q794.061 58.7219 794.061 51.4303 L794.061 49.7694 L786.648 49.7694 M801.515 46.6907 L801.515 72.576 L794.061 72.576 L794.061 65.6895 Q791.509 69.8214 787.701 71.8063 Q783.893 73.7508 778.384 73.7508 Q771.417 73.7508 767.285 69.8619 Q763.193 65.9325 763.193 59.3701 Q763.193 51.7138 768.297 47.825 Q773.442 43.9361 783.61 43.9361 L794.061 43.9361 L794.061 43.2069 Q794.061 38.0623 790.658 35.2672 Q787.296 32.4315 781.179 32.4315 Q777.29 32.4315 773.604 33.3632 Q769.918 34.295 766.515 36.1584 L766.515 29.2718 Q770.606 27.692 774.455 26.9223 Q778.303 26.1121 781.949 26.1121 Q791.793 26.1121 796.654 31.2163 Q801.515 36.3204 801.515 46.6907 Z" fill="#000000" fill-rule="nonzero" fill-opacity="1" /><path clip-path="url(#clip230)" d="M824.24 14.324 L824.24 27.2059 L839.593 27.2059 L839.593 32.9987 L824.24 32.9987 L824.24 57.6282 Q824.24 63.1779 825.739 64.7578 Q827.278 66.3376 831.937 66.3376 L839.593 66.3376 L839.593 72.576 L831.937 72.576 Q823.309 72.576 820.027 69.3758 Q816.746 66.1351 816.746 57.6282 L816.746 32.9987 L811.277 32.9987 L811.277 27.2059 L816.746 27.2059 L816.746 14.324 L824.24 14.324 Z" fill="#000000" fill-rule="nonzero" fill-opacity="1" /><path clip-path="url(#clip230)" d="M849.396 27.2059 L856.85 27.2059 L856.85 72.576 L849.396 72.576 L849.396 27.2059 M849.396 9.54393 L856.85 9.54393 L856.85 18.9825 L849.396 18.9825 L849.396 9.54393 Z" fill="#000000" fill-rule="nonzero" fill-opacity="1" /><path clip-path="url(#clip230)" d="M890.027 32.4315 Q884.032 32.4315 880.548 37.1306 Q877.064 41.7891 877.064 49.9314 Q877.064 58.0738 880.507 62.7728 Q883.991 67.4314 890.027 67.4314 Q895.982 67.4314 899.466 62.7323 Q902.949 58.0333 902.949 49.9314 Q902.949 41.8701 899.466 37.1711 Q895.982 32.4315 890.027 32.4315 M890.027 26.1121 Q899.749 26.1121 905.299 32.4315 Q910.849 38.7509 910.849 49.9314 Q910.849 61.0714 905.299 67.4314 Q899.749 73.7508 890.027 73.7508 Q880.264 73.7508 874.715 67.4314 Q869.205 61.0714 869.205 49.9314 Q869.205 38.7509 874.715 32.4315 Q880.264 26.1121 890.027 26.1121 Z" fill="#000000" fill-rule="nonzero" fill-opacity="1" /><path clip-path="url(#clip230)" d="M960.918 45.1919 L960.918 72.576 L953.464 72.576 L953.464 45.4349 Q953.464 38.994 950.953 35.7938 Q948.441 32.5936 943.418 32.5936 Q937.382 32.5936 933.898 36.4419 Q930.415 40.2903 930.415 46.9338 L930.415 72.576 L922.92 72.576 L922.92 27.2059 L930.415 27.2059 L930.415 34.2544 Q933.088 30.163 936.693 28.1376 Q940.339 26.1121 945.079 26.1121 Q952.897 26.1121 956.907 30.9732 Q960.918 35.7938 960.918 45.1919 Z" fill="#000000" fill-rule="nonzero" fill-opacity="1" /><path clip-path="url(#clip230)" d="M1002.48 12.096 L1040.72 12.096 L1040.72 18.9825 L1010.66 18.9825 L1010.66 36.8875 L1039.46 36.8875 L1039.46 43.7741 L1010.66 43.7741 L1010.66 65.6895 L1041.45 65.6895 L1041.45 72.576 L1002.48 72.576 L1002.48 12.096 Z" fill="#000000" fill-rule="nonzero" fill-opacity="1" /><path clip-path="url(#clip230)" d="M1092.29 27.2059 L1075.88 49.2833 L1093.14 72.576 L1084.35 72.576 L1071.14 54.752 L1057.94 72.576 L1049.15 72.576 L1066.77 48.8377 L1050.65 27.2059 L1059.44 27.2059 L1071.47 43.369 L1083.5 27.2059 L1092.29 27.2059 Z" fill="#000000" fill-rule="nonzero" fill-opacity="1" /><path clip-path="url(#clip230)" d="M1110.88 65.7705 L1110.88 89.8329 L1103.39 89.8329 L1103.39 27.2059 L1110.88 27.2059 L1110.88 34.0924 Q1113.23 30.0415 1116.8 28.0971 Q1120.4 26.1121 1125.38 26.1121 Q1133.65 26.1121 1138.79 32.6746 Q1143.98 39.2371 1143.98 49.9314 Q1143.98 60.6258 1138.79 67.1883 Q1133.65 73.7508 1125.38 73.7508 Q1120.4 73.7508 1116.8 71.8063 Q1113.23 69.8214 1110.88 65.7705 M1136.24 49.9314 Q1136.24 41.7081 1132.84 37.0496 Q1129.48 32.3505 1123.56 32.3505 Q1117.65 32.3505 1114.24 37.0496 Q1110.88 41.7081 1110.88 49.9314 Q1110.88 58.1548 1114.24 62.8538 Q1117.65 67.5124 1123.56 67.5124 Q1129.48 67.5124 1132.84 62.8538 Q1136.24 58.1548 1136.24 49.9314 Z" fill="#000000" fill-rule="nonzero" fill-opacity="1" /><path clip-path="url(#clip230)" d="M1156.33 9.54393 L1163.79 9.54393 L1163.79 72.576 L1156.33 72.576 L1156.33 9.54393 Z" fill="#000000" fill-rule="nonzero" fill-opacity="1" /><path clip-path="url(#clip230)" d="M1200 49.7694 Q1190.97 49.7694 1187.48 51.8354 Q1184 53.9013 1184 58.8839 Q1184 62.8538 1186.59 65.2034 Q1189.23 67.5124 1193.72 67.5124 Q1199.92 67.5124 1203.65 63.1374 Q1207.42 58.7219 1207.42 51.4303 L1207.42 49.7694 L1200 49.7694 M1214.87 46.6907 L1214.87 72.576 L1207.42 72.576 L1207.42 65.6895 Q1204.86 69.8214 1201.06 71.8063 Q1197.25 73.7508 1191.74 73.7508 Q1184.77 73.7508 1180.64 69.8619 Q1176.55 65.9325 1176.55 59.3701 Q1176.55 51.7138 1181.65 47.825 Q1186.8 43.9361 1196.96 43.9361 L1207.42 43.9361 L1207.42 43.2069 Q1207.42 38.0623 1204.01 35.2672 Q1200.65 32.4315 1194.53 32.4315 Q1190.64 32.4315 1186.96 33.3632 Q1183.27 34.295 1179.87 36.1584 L1179.87 29.2718 Q1183.96 27.692 1187.81 26.9223 Q1191.66 26.1121 1195.3 26.1121 Q1205.15 26.1121 1210.01 31.2163 Q1214.87 36.3204 1214.87 46.6907 Z" fill="#000000" fill-rule="nonzero" fill-opacity="1" /><path clip-path="url(#clip230)" d="M1230.22 27.2059 L1237.68 27.2059 L1237.68 72.576 L1230.22 72.576 L1230.22 27.2059 M1230.22 9.54393 L1237.68 9.54393 L1237.68 18.9825 L1230.22 18.9825 L1230.22 9.54393 Z" fill="#000000" fill-rule="nonzero" fill-opacity="1" /><path clip-path="url(#clip230)" d="M1290.99 45.1919 L1290.99 72.576 L1283.53 72.576 L1283.53 45.4349 Q1283.53 38.994 1281.02 35.7938 Q1278.51 32.5936 1273.49 32.5936 Q1267.45 32.5936 1263.97 36.4419 Q1260.48 40.2903 1260.48 46.9338 L1260.48 72.576 L1252.99 72.576 L1252.99 27.2059 L1260.48 27.2059 L1260.48 34.2544 Q1263.16 30.163 1266.76 28.1376 Q1270.41 26.1121 1275.15 26.1121 Q1282.96 26.1121 1286.98 30.9732 Q1290.99 35.7938 1290.99 45.1919 Z" fill="#000000" fill-rule="nonzero" fill-opacity="1" /><path clip-path="url(#clip230)" d="M1344.66 48.0275 L1344.66 51.6733 L1310.39 51.6733 Q1310.88 59.3701 1315.01 63.421 Q1319.18 67.4314 1326.59 67.4314 Q1330.89 67.4314 1334.9 66.3781 Q1338.95 65.3249 1342.92 63.2184 L1342.92 70.267 Q1338.91 71.9684 1334.69 72.8596 Q1330.48 73.7508 1326.15 73.7508 Q1315.29 73.7508 1308.93 67.4314 Q1302.61 61.1119 1302.61 50.3365 Q1302.61 39.1965 1308.61 32.6746 Q1314.64 26.1121 1324.85 26.1121 Q1334.01 26.1121 1339.31 32.0264 Q1344.66 37.9003 1344.66 48.0275 M1337.21 45.84 Q1337.13 39.7232 1333.76 36.0774 Q1330.44 32.4315 1324.93 32.4315 Q1318.69 32.4315 1314.93 35.9558 Q1311.2 39.4801 1310.63 45.8805 L1337.21 45.84 Z" fill="#000000" fill-rule="nonzero" fill-opacity="1" /><path clip-path="url(#clip230)" d="M1386.75 34.0924 L1386.75 9.54393 L1394.2 9.54393 L1394.2 72.576 L1386.75 72.576 L1386.75 65.7705 Q1384.4 69.8214 1380.79 71.8063 Q1377.23 73.7508 1372.21 73.7508 Q1363.98 73.7508 1358.8 67.1883 Q1353.65 60.6258 1353.65 49.9314 Q1353.65 39.2371 1358.8 32.6746 Q1363.98 26.1121 1372.21 26.1121 Q1377.23 26.1121 1380.79 28.0971 Q1384.4 30.0415 1386.75 34.0924 M1361.35 49.9314 Q1361.35 58.1548 1364.71 62.8538 Q1368.11 67.5124 1374.03 67.5124 Q1379.94 67.5124 1383.35 62.8538 Q1386.75 58.1548 1386.75 49.9314 Q1386.75 41.7081 1383.35 37.0496 Q1379.94 32.3505 1374.03 32.3505 Q1368.11 32.3505 1364.71 37.0496 Q1361.35 41.7081 1361.35 49.9314 Z" fill="#000000" fill-rule="nonzero" fill-opacity="1" /><path clip-path="url(#clip231)" d="M249.087 123.472 L249.087 663.521 L637.089 663.521 L637.089 123.472 L249.087 123.472 L249.087 123.472  Z" fill="#a5a5a5" fill-rule="evenodd" fill-opacity="1"/>
<polyline clip-path="url(#clip231)" style="stroke:#000000; stroke-linecap:round; stroke-linejoin:round; stroke-width:1.2; stroke-opacity:1; fill:none" points="249.087,123.472 249.087,663.521 637.089,663.521 637.089,123.472 249.087,123.472 "/>
<path clip-path="url(#clip231)" d="M803.375 123.472 L803.375 842.949 L1191.38 842.949 L1191.38 123.472 L803.375 123.472 L803.375 123.472  Z" fill="#a5a5a5" fill-rule="evenodd" fill-opacity="1"/>
<polyline clip-path="url(#clip231)" style="stroke:#000000; stroke-linecap:round; stroke-linejoin:round; stroke-width:1.2; stroke-opacity:1; fill:none" points="803.375,123.472 803.375,842.949 1191.38,842.949 1191.38,123.472 803.375,123.472 "/>
<path clip-path="url(#clip231)" d="M1357.66 123.472 L1357.66 855.304 L1745.67 855.304 L1745.67 123.472 L1357.66 123.472 L1357.66 123.472  Z" fill="#a5a5a5" fill-rule="evenodd" fill-opacity="1"/>
<polyline clip-path="url(#clip231)" style="stroke:#000000; stroke-linecap:round; stroke-linejoin:round; stroke-width:1.2; stroke-opacity:1; fill:none" points="1357.66,123.472 1357.66,855.304 1745.67,855.304 1745.67,123.472 1357.66,123.472 "/>
<circle clip-path="url(#clip231)" style="fill:#a5a5a5; stroke:none; fill-opacity:0" cx="443.088" cy="123.472" r="2"/>
<circle clip-path="url(#clip231)" style="fill:#a5a5a5; stroke:none; fill-opacity:0" cx="997.376" cy="123.472" r="2"/>
<circle clip-path="url(#clip231)" style="fill:#a5a5a5; stroke:none; fill-opacity:0" cx="1551.66" cy="123.472" r="2"/>
<path clip-path="url(#clip231)" d="M249.087 663.521 L249.087 1231.11 L637.089 1231.11 L637.089 663.521 L249.087 663.521 L249.087 663.521  Z" fill="#6d6d6d" fill-rule="evenodd" fill-opacity="1"/>
<polyline clip-path="url(#clip231)" style="stroke:#000000; stroke-linecap:round; stroke-linejoin:round; stroke-width:1.2; stroke-opacity:1; fill:none" points="249.087,663.521 249.087,1231.11 637.089,1231.11 637.089,663.521 249.087,663.521 "/>
<path clip-path="url(#clip231)" d="M803.375 842.949 L803.375 1145.31 L1191.38 1145.31 L1191.38 842.949 L803.375 842.949 L803.375 842.949  Z" fill="#6d6d6d" fill-rule="evenodd" fill-opacity="1"/>
<polyline clip-path="url(#clip231)" style="stroke:#000000; stroke-linecap:round; stroke-linejoin:round; stroke-width:1.2; stroke-opacity:1; fill:none" points="803.375,842.949 803.375,1145.31 1191.38,1145.31 1191.38,842.949 803.375,842.949 "/>
<path clip-path="url(#clip231)" d="M1357.66 855.304 L1357.66 1263.99 L1745.67 1263.99 L1745.67 855.304 L1357.66 855.304 L1357.66 855.304  Z" fill="#6d6d6d" fill-rule="evenodd" fill-opacity="1"/>
<polyline clip-path="url(#clip231)" style="stroke:#000000; stroke-linecap:round; stroke-linejoin:round; stroke-width:1.2; stroke-opacity:1; fill:none" points="1357.66,855.304 1357.66,1263.99 1745.67,1263.99 1745.67,855.304 1357.66,855.304 "/>
<circle clip-path="url(#clip231)" style="fill:#6d6d6d; stroke:none; fill-opacity:0" cx="443.088" cy="663.521" r="2"/>
<circle clip-path="url(#clip231)" style="fill:#6d6d6d; stroke:none; fill-opacity:0" cx="997.376" cy="842.949" r="2"/>
<circle clip-path="url(#clip231)" style="fill:#6d6d6d; stroke:none; fill-opacity:0" cx="1551.66" cy="855.304" r="2"/>
<path clip-path="url(#clip231)" d="M249.087 1231.11 L249.087 1486.45 L637.089 1486.45 L637.089 1231.11 L249.087 1231.11 L249.087 1231.11  Z" fill="#333333" fill-rule="evenodd" fill-opacity="1"/>
<polyline clip-path="url(#clip231)" style="stroke:#000000; stroke-linecap:round; stroke-linejoin:round; stroke-width:1.2; stroke-opacity:1; fill:none" points="249.087,1231.11 249.087,1486.45 637.089,1486.45 637.089,1231.11 249.087,1231.11 "/>
<path clip-path="url(#clip231)" d="M803.375 1145.31 L803.375 1486.45 L1191.38 1486.45 L1191.38 1145.31 L803.375 1145.31 L803.375 1145.31  Z" fill="#333333" fill-rule="evenodd" fill-opacity="1"/>
<polyline clip-path="url(#clip231)" style="stroke:#000000; stroke-linecap:round; stroke-linejoin:round; stroke-width:1.2; stroke-opacity:1; fill:none" points="803.375,1145.31 803.375,1486.45 1191.38,1486.45 1191.38,1145.31 803.375,1145.31 "/>
<path clip-path="url(#clip231)" d="M1357.66 1263.99 L1357.66 1486.45 L1745.67 1486.45 L1745.67 1263.99 L1357.66 1263.99 L1357.66 1263.99  Z" fill="#333333" fill-rule="evenodd" fill-opacity="1"/>
<polyline clip-path="url(#clip231)" style="stroke:#000000; stroke-linecap:round; stroke-linejoin:round; stroke-width:1.2; stroke-opacity:1; fill:none" points="1357.66,1263.99 1357.66,1486.45 1745.67,1486.45 1745.67,1263.99 1357.66,1263.99 "/>
<circle clip-path="url(#clip231)" style="fill:#333333; stroke:none; fill-opacity:0" cx="443.088" cy="1231.11" r="2"/>
<circle clip-path="url(#clip231)" style="fill:#333333; stroke:none; fill-opacity:0" cx="997.376" cy="1145.31" r="2"/>
<circle clip-path="url(#clip231)" style="fill:#333333; stroke:none; fill-opacity:0" cx="1551.66" cy="1263.99" r="2"/>
<path clip-path="url(#clip230)" d="M1911.36 376.265 L2352.76 376.265 L2352.76 168.905 L1911.36 168.905  Z" fill="#ffffff" fill-rule="evenodd" fill-opacity="1"/>
<polyline clip-path="url(#clip230)" style="stroke:#000000; stroke-linecap:round; stroke-linejoin:round; stroke-width:4; stroke-opacity:1; fill:none" points="1911.36,376.265 2352.76,376.265 2352.76,168.905 1911.36,168.905 1911.36,376.265 "/>
<path clip-path="url(#clip230)" d="M1935.76 241.481 L2082.17 241.481 L2082.17 200.009 L1935.76 200.009 L1935.76 241.481  Z" fill="#a5a5a5" fill-rule="evenodd" fill-opacity="1"/>
<polyline clip-path="url(#clip230)" style="stroke:#000000; stroke-linecap:round; stroke-linejoin:round; stroke-width:1.2; stroke-opacity:1; fill:none" points="1935.76,241.481 2082.17,241.481 2082.17,200.009 1935.76,200.009 1935.76,241.481 "/>
<path clip-path="url(#clip230)" d="M2122.96 221.821 Q2124.47 222.33 2125.88 223.997 Q2127.31 225.664 2128.75 228.58 L2133.49 238.025 L2128.47 238.025 L2124.05 229.159 Q2122.34 225.687 2120.72 224.553 Q2119.12 223.418 2116.34 223.418 L2111.25 223.418 L2111.25 238.025 L2106.57 238.025 L2106.57 203.465 L2117.13 203.465 Q2123.05 203.465 2125.97 205.941 Q2128.89 208.418 2128.89 213.418 Q2128.89 216.682 2127.36 218.835 Q2125.86 220.988 2122.96 221.821 M2111.25 207.307 L2111.25 219.576 L2117.13 219.576 Q2120.51 219.576 2122.22 218.025 Q2123.96 216.451 2123.96 213.418 Q2123.96 210.386 2122.22 208.858 Q2120.51 207.307 2117.13 207.307 L2111.25 207.307 Z" fill="#000000" fill-rule="nonzero" fill-opacity="1" /><path clip-path="url(#clip230)" d="M2159.37 223.997 L2159.37 226.08 L2139.79 226.08 Q2140.07 230.478 2142.43 232.793 Q2144.81 235.085 2149.05 235.085 Q2151.5 235.085 2153.79 234.483 Q2156.11 233.881 2158.38 232.677 L2158.38 236.705 Q2156.09 237.677 2153.68 238.187 Q2151.27 238.696 2148.79 238.696 Q2142.59 238.696 2138.96 235.085 Q2135.35 231.474 2135.35 225.316 Q2135.35 218.951 2138.77 215.224 Q2142.22 211.474 2148.05 211.474 Q2153.29 211.474 2156.32 214.853 Q2159.37 218.21 2159.37 223.997 M2155.11 222.747 Q2155.07 219.252 2153.15 217.168 Q2151.25 215.085 2148.1 215.085 Q2144.54 215.085 2142.38 217.099 Q2140.25 219.113 2139.93 222.77 L2155.11 222.747 Z" fill="#000000" fill-rule="nonzero" fill-opacity="1" /><path clip-path="url(#clip230)" d="M2182.89 212.863 L2182.89 216.891 Q2181.09 215.965 2179.14 215.502 Q2177.2 215.039 2175.11 215.039 Q2171.94 215.039 2170.35 216.011 Q2168.77 216.983 2168.77 218.928 Q2168.77 220.409 2169.91 221.265 Q2171.04 222.099 2174.47 222.863 L2175.92 223.187 Q2180.46 224.159 2182.36 225.941 Q2184.28 227.701 2184.28 230.872 Q2184.28 234.483 2181.41 236.589 Q2178.56 238.696 2173.56 238.696 Q2171.48 238.696 2169.21 238.279 Q2166.97 237.886 2164.47 237.076 L2164.47 232.677 Q2166.83 233.904 2169.12 234.529 Q2171.41 235.131 2173.66 235.131 Q2176.67 235.131 2178.29 234.113 Q2179.91 233.071 2179.91 231.196 Q2179.91 229.46 2178.73 228.534 Q2177.57 227.608 2173.61 226.752 L2172.13 226.404 Q2168.17 225.571 2166.41 223.858 Q2164.65 222.122 2164.65 219.113 Q2164.65 215.455 2167.24 213.465 Q2169.84 211.474 2174.6 211.474 Q2176.97 211.474 2179.05 211.821 Q2181.13 212.168 2182.89 212.863 Z" fill="#000000" fill-rule="nonzero" fill-opacity="1" /><path clip-path="url(#clip230)" d="M2191.06 212.099 L2195.32 212.099 L2195.32 238.025 L2191.06 238.025 L2191.06 212.099 M2191.06 202.006 L2195.32 202.006 L2195.32 207.4 L2191.06 207.4 L2191.06 202.006 Z" fill="#000000" fill-rule="nonzero" fill-opacity="1" /><path clip-path="url(#clip230)" d="M2221.29 216.034 L2221.29 202.006 L2225.55 202.006 L2225.55 238.025 L2221.29 238.025 L2221.29 234.136 Q2219.95 236.451 2217.89 237.585 Q2215.85 238.696 2212.98 238.696 Q2208.29 238.696 2205.32 234.946 Q2202.38 231.196 2202.38 225.085 Q2202.38 218.974 2205.32 215.224 Q2208.29 211.474 2212.98 211.474 Q2215.85 211.474 2217.89 212.608 Q2219.95 213.719 2221.29 216.034 M2206.78 225.085 Q2206.78 229.784 2208.7 232.469 Q2210.65 235.131 2214.03 235.131 Q2217.41 235.131 2219.35 232.469 Q2221.29 229.784 2221.29 225.085 Q2221.29 220.386 2219.35 217.724 Q2217.41 215.039 2214.03 215.039 Q2210.65 215.039 2208.7 217.724 Q2206.78 220.386 2206.78 225.085 Z" fill="#000000" fill-rule="nonzero" fill-opacity="1" /><path clip-path="url(#clip230)" d="M2233.89 227.793 L2233.89 212.099 L2238.15 212.099 L2238.15 227.631 Q2238.15 231.312 2239.58 233.164 Q2241.02 234.992 2243.89 234.992 Q2247.34 234.992 2249.33 232.793 Q2251.34 230.594 2251.34 226.798 L2251.34 212.099 L2255.6 212.099 L2255.6 238.025 L2251.34 238.025 L2251.34 234.043 Q2249.79 236.404 2247.73 237.562 Q2245.69 238.696 2242.98 238.696 Q2238.52 238.696 2236.2 235.918 Q2233.89 233.14 2233.89 227.793 M2244.6 211.474 L2244.6 211.474 Z" fill="#000000" fill-rule="nonzero" fill-opacity="1" /><path clip-path="url(#clip230)" d="M2276.16 224.992 Q2270.99 224.992 2269 226.173 Q2267.01 227.353 2267.01 230.201 Q2267.01 232.469 2268.49 233.812 Q2270 235.131 2272.57 235.131 Q2276.11 235.131 2278.24 232.631 Q2280.39 230.108 2280.39 225.941 L2280.39 224.992 L2276.16 224.992 M2284.65 223.233 L2284.65 238.025 L2280.39 238.025 L2280.39 234.089 Q2278.93 236.451 2276.76 237.585 Q2274.58 238.696 2271.43 238.696 Q2267.45 238.696 2265.09 236.474 Q2262.75 234.228 2262.75 230.478 Q2262.75 226.103 2265.67 223.881 Q2268.61 221.659 2274.42 221.659 L2280.39 221.659 L2280.39 221.242 Q2280.39 218.303 2278.45 216.705 Q2276.53 215.085 2273.03 215.085 Q2270.81 215.085 2268.7 215.617 Q2266.6 216.15 2264.65 217.215 L2264.65 213.279 Q2266.99 212.377 2269.19 211.937 Q2271.39 211.474 2273.47 211.474 Q2279.1 211.474 2281.87 214.391 Q2284.65 217.307 2284.65 223.233 Z" fill="#000000" fill-rule="nonzero" fill-opacity="1" /><path clip-path="url(#clip230)" d="M2293.42 202.006 L2297.68 202.006 L2297.68 238.025 L2293.42 238.025 L2293.42 202.006 Z" fill="#000000" fill-rule="nonzero" fill-opacity="1" /><path clip-path="url(#clip230)" d="M1935.76 293.321 L2082.17 293.321 L2082.17 251.849 L1935.76 251.849 L1935.76 293.321  Z" fill="#6d6d6d" fill-rule="evenodd" fill-opacity="1"/>
<polyline clip-path="url(#clip230)" style="stroke:#000000; stroke-linecap:round; stroke-linejoin:round; stroke-width:1.2; stroke-opacity:1; fill:none" points="1935.76,293.321 2082.17,293.321 2082.17,251.849 1935.76,251.849 1935.76,293.321 "/>
<path clip-path="url(#clip230)" d="M2106.57 255.305 L2111.25 255.305 L2111.25 289.865 L2106.57 289.865 L2106.57 255.305 Z" fill="#000000" fill-rule="nonzero" fill-opacity="1" /><path clip-path="url(#clip230)" d="M2141.92 274.217 L2141.92 289.865 L2137.66 289.865 L2137.66 274.355 Q2137.66 270.675 2136.23 268.846 Q2134.79 267.018 2131.92 267.018 Q2128.47 267.018 2126.48 269.217 Q2124.49 271.416 2124.49 275.212 L2124.49 289.865 L2120.21 289.865 L2120.21 263.939 L2124.49 263.939 L2124.49 267.967 Q2126.02 265.629 2128.08 264.471 Q2130.16 263.314 2132.87 263.314 Q2137.34 263.314 2139.63 266.092 Q2141.92 268.846 2141.92 274.217 Z" fill="#000000" fill-rule="nonzero" fill-opacity="1" /><path clip-path="url(#clip230)" d="M2167.48 267.874 L2167.48 253.846 L2171.73 253.846 L2171.73 289.865 L2167.48 289.865 L2167.48 285.976 Q2166.13 288.291 2164.07 289.425 Q2162.04 290.536 2159.17 290.536 Q2154.47 290.536 2151.5 286.786 Q2148.56 283.036 2148.56 276.925 Q2148.56 270.814 2151.5 267.064 Q2154.47 263.314 2159.17 263.314 Q2162.04 263.314 2164.07 264.448 Q2166.13 265.559 2167.48 267.874 M2152.96 276.925 Q2152.96 281.624 2154.88 284.309 Q2156.83 286.971 2160.21 286.971 Q2163.59 286.971 2165.53 284.309 Q2167.48 281.624 2167.48 276.925 Q2167.48 272.226 2165.53 269.564 Q2163.59 266.879 2160.21 266.879 Q2156.83 266.879 2154.88 269.564 Q2152.96 272.226 2152.96 276.925 Z" fill="#000000" fill-rule="nonzero" fill-opacity="1" /><path clip-path="url(#clip230)" d="M2180.51 263.939 L2184.77 263.939 L2184.77 289.865 L2180.51 289.865 L2180.51 263.939 M2180.51 253.846 L2184.77 253.846 L2184.77 259.24 L2180.51 259.24 L2180.51 253.846 Z" fill="#000000" fill-rule="nonzero" fill-opacity="1" /><path clip-path="url(#clip230)" d="M2190.62 263.939 L2195.14 263.939 L2203.24 285.698 L2211.34 263.939 L2215.85 263.939 L2206.13 289.865 L2200.35 289.865 L2190.62 263.939 Z" fill="#000000" fill-rule="nonzero" fill-opacity="1" /><path clip-path="url(#clip230)" d="M2221.73 263.939 L2225.99 263.939 L2225.99 289.865 L2221.73 289.865 L2221.73 263.939 M2221.73 253.846 L2225.99 253.846 L2225.99 259.24 L2221.73 259.24 L2221.73 253.846 Z" fill="#000000" fill-rule="nonzero" fill-opacity="1" /><path clip-path="url(#clip230)" d="M2251.97 267.874 L2251.97 253.846 L2256.22 253.846 L2256.22 289.865 L2251.97 289.865 L2251.97 285.976 Q2250.62 288.291 2248.56 289.425 Q2246.53 290.536 2243.66 290.536 Q2238.96 290.536 2235.99 286.786 Q2233.05 283.036 2233.05 276.925 Q2233.05 270.814 2235.99 267.064 Q2238.96 263.314 2243.66 263.314 Q2246.53 263.314 2248.56 264.448 Q2250.62 265.559 2251.97 267.874 M2237.45 276.925 Q2237.45 281.624 2239.37 284.309 Q2241.32 286.971 2244.7 286.971 Q2248.08 286.971 2250.02 284.309 Q2251.97 281.624 2251.97 276.925 Q2251.97 272.226 2250.02 269.564 Q2248.08 266.879 2244.7 266.879 Q2241.32 266.879 2239.37 269.564 Q2237.45 272.226 2237.45 276.925 Z" fill="#000000" fill-rule="nonzero" fill-opacity="1" /><path clip-path="url(#clip230)" d="M2264.56 279.633 L2264.56 263.939 L2268.82 263.939 L2268.82 279.471 Q2268.82 283.152 2270.25 285.004 Q2271.69 286.832 2274.56 286.832 Q2278.01 286.832 2280 284.633 Q2282.01 282.434 2282.01 278.638 L2282.01 263.939 L2286.27 263.939 L2286.27 289.865 L2282.01 289.865 L2282.01 285.883 Q2280.46 288.244 2278.4 289.402 Q2276.36 290.536 2273.66 290.536 Q2269.19 290.536 2266.87 287.758 Q2264.56 284.98 2264.56 279.633 M2275.28 263.314 L2275.28 263.314 Z" fill="#000000" fill-rule="nonzero" fill-opacity="1" /><path clip-path="url(#clip230)" d="M2306.83 276.832 Q2301.66 276.832 2299.67 278.013 Q2297.68 279.193 2297.68 282.041 Q2297.68 284.309 2299.16 285.652 Q2300.67 286.971 2303.24 286.971 Q2306.78 286.971 2308.91 284.471 Q2311.06 281.948 2311.06 277.781 L2311.06 276.832 L2306.83 276.832 M2315.32 275.073 L2315.32 289.865 L2311.06 289.865 L2311.06 285.929 Q2309.6 288.291 2307.43 289.425 Q2305.25 290.536 2302.1 290.536 Q2298.12 290.536 2295.76 288.314 Q2293.42 286.068 2293.42 282.318 Q2293.42 277.943 2296.34 275.721 Q2299.28 273.499 2305.09 273.499 L2311.06 273.499 L2311.06 273.082 Q2311.06 270.143 2309.12 268.545 Q2307.2 266.925 2303.7 266.925 Q2301.48 266.925 2299.37 267.457 Q2297.27 267.99 2295.32 269.055 L2295.32 265.119 Q2297.66 264.217 2299.86 263.777 Q2302.06 263.314 2304.14 263.314 Q2309.77 263.314 2312.54 266.231 Q2315.32 269.147 2315.32 275.073 Z" fill="#000000" fill-rule="nonzero" fill-opacity="1" /><path clip-path="url(#clip230)" d="M2324.09 253.846 L2328.35 253.846 L2328.35 289.865 L2324.09 289.865 L2324.09 253.846 Z" fill="#000000" fill-rule="nonzero" fill-opacity="1" /><path clip-path="url(#clip230)" d="M1935.76 345.161 L2082.17 345.161 L2082.17 303.689 L1935.76 303.689 L1935.76 345.161  Z" fill="#333333" fill-rule="evenodd" fill-opacity="1"/>
<polyline clip-path="url(#clip230)" style="stroke:#000000; stroke-linecap:round; stroke-linejoin:round; stroke-width:1.2; stroke-opacity:1; fill:none" points="1935.76,345.161 2082.17,345.161 2082.17,303.689 1935.76,303.689 1935.76,345.161 "/>
<path clip-path="url(#clip230)" d="M2113.68 307.145 L2118.36 307.145 L2118.36 339.297 Q2118.36 345.547 2115.97 348.371 Q2113.61 351.195 2108.36 351.195 L2106.57 351.195 L2106.57 347.26 L2108.03 347.26 Q2111.13 347.26 2112.41 345.524 Q2113.68 343.788 2113.68 339.297 L2113.68 307.145 Z" fill="#000000" fill-rule="nonzero" fill-opacity="1" /><path clip-path="url(#clip230)" d="M2137.52 318.765 Q2134.1 318.765 2132.11 321.45 Q2130.11 324.112 2130.11 328.765 Q2130.11 333.418 2132.08 336.103 Q2134.07 338.765 2137.52 338.765 Q2140.92 338.765 2142.92 336.08 Q2144.91 333.395 2144.91 328.765 Q2144.91 324.158 2142.92 321.473 Q2140.92 318.765 2137.52 318.765 M2137.52 315.154 Q2143.08 315.154 2146.25 318.765 Q2149.42 322.376 2149.42 328.765 Q2149.42 335.131 2146.25 338.765 Q2143.08 342.376 2137.52 342.376 Q2131.94 342.376 2128.77 338.765 Q2125.62 335.131 2125.62 328.765 Q2125.62 322.376 2128.77 318.765 Q2131.94 315.154 2137.52 315.154 Z" fill="#000000" fill-rule="nonzero" fill-opacity="1" /><path clip-path="url(#clip230)" d="M2156.48 315.779 L2160.74 315.779 L2160.74 341.705 L2156.48 341.705 L2156.48 315.779 M2156.48 305.686 L2160.74 305.686 L2160.74 311.08 L2156.48 311.08 L2156.48 305.686 Z" fill="#000000" fill-rule="nonzero" fill-opacity="1" /><path clip-path="url(#clip230)" d="M2191.2 326.057 L2191.2 341.705 L2186.94 341.705 L2186.94 326.195 Q2186.94 322.515 2185.51 320.686 Q2184.07 318.858 2181.2 318.858 Q2177.75 318.858 2175.76 321.057 Q2173.77 323.256 2173.77 327.052 L2173.77 341.705 L2169.49 341.705 L2169.49 315.779 L2173.77 315.779 L2173.77 319.807 Q2175.3 317.469 2177.36 316.311 Q2179.44 315.154 2182.15 315.154 Q2186.62 315.154 2188.91 317.932 Q2191.2 320.686 2191.2 326.057 Z" fill="#000000" fill-rule="nonzero" fill-opacity="1" /><path clip-path="url(#clip230)" d="M2203.91 308.418 L2203.91 315.779 L2212.68 315.779 L2212.68 319.089 L2203.91 319.089 L2203.91 333.163 Q2203.91 336.334 2204.77 337.237 Q2205.65 338.14 2208.31 338.14 L2212.68 338.14 L2212.68 341.705 L2208.31 341.705 Q2203.38 341.705 2201.5 339.876 Q2199.63 338.024 2199.63 333.163 L2199.63 319.089 L2196.5 319.089 L2196.5 315.779 L2199.63 315.779 L2199.63 308.418 L2203.91 308.418 Z" fill="#000000" fill-rule="nonzero" fill-opacity="1" /></svg>
